<mxfile host="app.diagrams.net" modified="2023-12-27T19:13:34.939Z" agent="Mozilla/5.0 (Windows NT 10.0; Win64; x64) AppleWebKit/537.36 (KHTML, like Gecko) Chrome/120.0.0.0 Safari/537.36" etag="SXS1xHQRZbMPiajuokvN" version="22.1.15" type="device">
  <diagram name="Page-1" id="wlU43uWtwXLDnvBiwt83">
    <mxGraphModel dx="794" dy="512" grid="1" gridSize="10" guides="1" tooltips="1" connect="1" arrows="1" fold="1" page="1" pageScale="1" pageWidth="850" pageHeight="1100" math="0" shadow="0">
      <root>
        <mxCell id="0" />
        <mxCell id="1" parent="0" />
        <mxCell id="jYoHbaH1N5Su-d7ojsiI-33" value="" style="edgeStyle=orthogonalEdgeStyle;rounded=0;orthogonalLoop=1;jettySize=auto;html=1;" parent="1" source="jYoHbaH1N5Su-d7ojsiI-28" target="jYoHbaH1N5Su-d7ojsiI-29" edge="1">
          <mxGeometry relative="1" as="geometry" />
        </mxCell>
        <mxCell id="JxcuIvw0Jv6S8uEPPxHX-4" style="edgeStyle=orthogonalEdgeStyle;rounded=0;orthogonalLoop=1;jettySize=auto;html=1;" parent="1" source="jYoHbaH1N5Su-d7ojsiI-28" target="JxcuIvw0Jv6S8uEPPxHX-3" edge="1">
          <mxGeometry relative="1" as="geometry" />
        </mxCell>
        <mxCell id="jYoHbaH1N5Su-d7ojsiI-28" value="&lt;font style=&quot;font-size: 29px;&quot;&gt;&lt;b&gt;Raw Data&lt;/b&gt;&lt;/font&gt;" style="rounded=1;whiteSpace=wrap;html=1;rotation=0;" parent="1" vertex="1">
          <mxGeometry x="266.8659199500088" y="170" width="250.35971223021585" height="70" as="geometry" />
        </mxCell>
        <mxCell id="JxcuIvw0Jv6S8uEPPxHX-15" value="" style="edgeStyle=orthogonalEdgeStyle;rounded=0;orthogonalLoop=1;jettySize=auto;html=1;" parent="1" source="jYoHbaH1N5Su-d7ojsiI-29" target="JxcuIvw0Jv6S8uEPPxHX-10" edge="1">
          <mxGeometry relative="1" as="geometry" />
        </mxCell>
        <mxCell id="s97L8WDLcnvQ_uzKS5xr-1" style="edgeStyle=orthogonalEdgeStyle;rounded=0;orthogonalLoop=1;jettySize=auto;html=1;entryX=0;entryY=0.5;entryDx=0;entryDy=0;" edge="1" parent="1" source="jYoHbaH1N5Su-d7ojsiI-29" target="JxcuIvw0Jv6S8uEPPxHX-5">
          <mxGeometry relative="1" as="geometry" />
        </mxCell>
        <mxCell id="jYoHbaH1N5Su-d7ojsiI-29" value="&lt;font style=&quot;font-size: 29px;&quot;&gt;&lt;b&gt;Label Mapping&amp;nbsp;&lt;/b&gt;&lt;/font&gt;" style="rounded=1;whiteSpace=wrap;html=1;rotation=0;align=center;" parent="1" vertex="1">
          <mxGeometry x="264.08050028574024" y="330" width="255.92326139088732" height="70" as="geometry" />
        </mxCell>
        <mxCell id="jYoHbaH1N5Su-d7ojsiI-35" value="" style="edgeStyle=orthogonalEdgeStyle;rounded=0;orthogonalLoop=1;jettySize=auto;html=1;" parent="1" source="jYoHbaH1N5Su-d7ojsiI-30" target="jYoHbaH1N5Su-d7ojsiI-31" edge="1">
          <mxGeometry relative="1" as="geometry" />
        </mxCell>
        <mxCell id="JxcuIvw0Jv6S8uEPPxHX-19" style="edgeStyle=orthogonalEdgeStyle;rounded=0;orthogonalLoop=1;jettySize=auto;html=1;entryX=0;entryY=0.5;entryDx=0;entryDy=0;" parent="1" source="jYoHbaH1N5Su-d7ojsiI-30" target="JxcuIvw0Jv6S8uEPPxHX-18" edge="1">
          <mxGeometry relative="1" as="geometry" />
        </mxCell>
        <mxCell id="jYoHbaH1N5Su-d7ojsiI-30" value="&lt;font style=&quot;&quot;&gt;&lt;b&gt;&lt;span style=&quot;font-size: 29px;&quot;&gt;Feature Scaling&amp;nbsp;&lt;/span&gt;&lt;br&gt;&lt;/b&gt;&lt;font style=&quot;font-size: 20px;&quot;&gt;MinMax Scaler&lt;/font&gt;&lt;br&gt;&lt;/font&gt;" style="rounded=1;whiteSpace=wrap;html=1;rotation=0;align=center;" parent="1" vertex="1">
          <mxGeometry x="263.52050028574024" y="640" width="255.92326139088732" height="70" as="geometry" />
        </mxCell>
        <mxCell id="jYoHbaH1N5Su-d7ojsiI-31" value="&lt;span style=&quot;font-size: 29px;&quot;&gt;&lt;b&gt;MLP Regressor&lt;/b&gt;&lt;/span&gt;" style="rounded=1;whiteSpace=wrap;html=1;rotation=0;align=center;" parent="1" vertex="1">
          <mxGeometry x="264.08" y="800" width="255.92" height="70" as="geometry" />
        </mxCell>
        <mxCell id="JxcuIvw0Jv6S8uEPPxHX-3" value="" style="shape=image;verticalLabelPosition=bottom;labelBackgroundColor=default;verticalAlign=top;aspect=fixed;imageAspect=0;image=data:image/png,iVBORw0KGgoAAAANSUhEUgAAAycAAAD6CAYAAAC74TjFAAAgAElEQVR4Ae2dzY7jNtO2cyjT5xYgDcypBFkM+ijyrHr273Ky69l+uwBZDTD7WeuD+CNWFYsSJcuWbF8BAssyRRavuqvIktye3wb+gwAEIAABCEAAAhCAAAQgcAICv53ABkyAAAQgAAEIQAACEIAABCAwUJwgAghAAAIQgAAEIAABCEDgFAQoTk7hBoyAAAQgAAEIQAACEIAABChO0AAEIAABCEAAAhCAAAQgcAoCFCencANGQAACEIAABCAAAQhAAAIUJ2gAAhCAAAQgAAEIQAACEDgFAYqTU7gBIyAAAQhAAAIQgAAEIAABihM0AAEIQAACEIAABCAAAQicggDFySncsNaIn8P755fh5WX8/234yJd/f0vnXof3H/nk5a8/v76mfl+Gt++X93eWHtx5XYnhNOep/5fh9evP6TQHtyDwMbyFmHkZXj6/D9C/BfPHGOPjS8q3G3Xj5prHQLPTLE4cmz/eh9eUNx5p/dvJcTPdNPYpM1eUj06sh2LkfRxNe46N+8KD9E9xch/yMlb6QT8toC/7bnwfdWH15nUthpMDp0Sxr4+m/jmYIcCCNwOHj5oEhG5eti3wXq5pDveUHwjGGwvAa2GTvnv5Mt0KvNZwD9Svv0/pm+B59dBn/3laXbqnOUr/FCfn0dAKSxpBP218ty2gLQOkOB/pzpE7rysxnNhO/VOcTEzkQbpLc52nSix4EjXH/QSmBX7jxtnNNbPDJ60+zWb4HLEZ/WTWz4PuHM/K4y4+bOxTumw/hx66TD17o2nPYXTda/dB+qc46XXQqdpdEvTrJ7J+YV0/xhFXHDKvKVFQnFQ+vzobFryKOSduQmBVrhGbgee5U398bE4F6ManYzcR0l0Ncsk+5Xg93BXqBzSW4uQunXpJ0K+f8KqFdX33h11xyLyuvgE/DOflA1+dDQve5U6ihy0EVuUaipND/h6M4mSLsueuuWSfQq6eI/sMn52oOLFCFuIc/xgtPd6WSf7F3uEwmxvd1vtjbjlm+uNy08d1RGDmNs7v8/vw/8QfnuuvtUg7xz+At++jlXK++etX9lxJwON8vcd8xrbP78OHsCv3m7no/oqfkkX6D/cntuWP+KvrXzw/5dEuee2bl+WVR5Tn4w8RiCcf07ziOdtWMTNtc/8eB/VjB7nhMAy2/9EeNcZg5jr3+fg1FbkZEn+vpG0qPhOmDLrNgv+tXdNXZKSe0x8epz9A1XEgR95yLLjMzFv1bNgE309255a63ylepnbi8zSvyrfVOCY2jW6sBrT/k11Vn/aHAAT3ydZhGOR14mtFxddSC/XctC3ic5lL5HgZ48bXRbvEWIWb5lv6SPoT8x4a+TaYK/wyauP164fOeWlOZdwYq3q8wlOfF7Gg7NkISlwm7cn5zF8PxouED7N+BdPQreEQWcifnKj7mNOJvNIbX10rxpb8c+7wmRbmSu95fuE1aUT1ry3zOOZxJ9zmenuNmst00YUHs2Nm7RufuBozbQIXwU6aKcaci4V4Sd2v5iA+t1qbxhT5y+5lGjnMsq9+GEVeJ7Sgfaptq/P9ZOAOB2KsyR7LX3J4Gz4mP8R2cs6asbxuzDXy2vb+pvLf6B/LzdXSOhwnLU5EUp4c8jK8fi6/GjUlVCncySn+9eM1xTme0/V1WpDrwDZbt2y0DpbzEo6PNklRFaF6IpTnJmaCqQpOMY7btpffZLu0U7IdbW59Jn3UpLjugxXzkryyVvzFzQ/eRW7C/0VfbRZ6E9tul20dRP/WljLekvZfh9fp1+CE31TCmelj0f+lz1rP5bPR/mLzOpf7rWdsTjExcWwUgYVpXuDHkRr92piWcSd+ZU9qrvQfOUz2zPg1XzO1XWF70XaZj7Yn5xehvayDGZuK32bY+E5afVbaOzFQtpW5TfOdNNqwb/TV1EbMvdNv0SeZnX9DIfstvKaxJvuUVmzRvxpRdUFzHLvJUxxFbE5shvoGRbJ90kCrDxXfwg+i76581uh/KbdMubW5PiTdiP6nOc2sX9KfAby4Xvl88nHRSeWorSeWxvz8Ov0CmbRpip9x3IU+ZFsZg7K/cizmONNv4dvQg+Ehxy3XynjLsS9jWOg4+OAC2yYfynxhjNz6dobTyLXwb80tzksyKtcIvnIO4njiKeyYzrXWPHF9GWsbgNMWJxmCBFvu7EhnZPHZYGqcT4lP9ZsXW5Nwsg3b0DpXqSQo7Bu3N1/jT5uWRaN8XmzN5+T8S2CVdkW48lxZbKUwc596kSlzl21Lv8XOMr68AxWFKe00C6xkMfGPPrxU1JZ8sVVudv15SV7RDtFOLpo/3oe3/FPAIniLRo0e87WibWFsLdbXZh5yHvlJYrjyx/vwHn7iWdgqmJY5ZV+JdiLJqf6nTZhsm6+XWinnlvw/zVcwKJrUc57aOmi2n5JzKVoufIRGpT4nFuapQvapSdTSdtl39uNo/8eXxE2MI6+bfJHHkMzkBlKez21Fn9MGbBxUns9txfXZvmnssNDk/FDYVXGxQmtyjtv9aK4U88r9S+5lIS/5KLcrc+3VcW5XeDRjXuhG2ZPZK91kzsZPgq2Z9b5vHYZKL1JzYr3y5zWa9jG8h/woOIm5lOscnh6fuWuFhpUvWoRE+6z5YHH+uWgzV7lJz7op9oucYW4K5Lby+hKPRYtFny2DN5wXcyxjCl+MsZ2Zyrb5XEub6rzjO8lO9jvFgrBhGksWE06fkx48DqK/qZ1gm84Vf4k4E3OZfFUNUfdlb0a1r606W3FCzEsyFTYXvwobpV/TaGXuC2tea/8r/FjmKu1b6nfFtEXTkxYnWaDtRF2AC7G5EMfZSueNfdv3gkizD9Fm42GxWW6STWfV+MLWKZjFuSnoZYD7YpGJWNpSbTamII+2zbYVlXK5S5LnJ+0UfgrdanF3LSoGVd9bMc7ivDyGcg7mbnY2oPJZ/kBemzTdbDteI9uXuzsxIYh5CJ/nkcKr6Fv6ohxnH4i+JBNxfUlCXiEiru/2v4hpNU9xvjG+muNFb4Tdct5iY5YX7FrzZeCyoXV4Wt+IOQU/yHHNZqb4qfh+WoBEP9I3WjOR5Vbblc4+vw1v6elZOD8xqnXs293BpiC98EjETciR+f3b8JY3nOF89r9nm2RejiOT3N94vp7/kj/GybV8UmupveZdCMm9vIxf5uzFgJ5j7kpyyUzzZ+lV6LZbJzlGeq+V7aY10tihck6Zq5xXYWHmIvpv6mEaLmtM3Emvrq/ZSDumri45aIzpz1HYnPk1rh9NqrTcbCv1UcfNaj00eFRzmnJV3gdJO4rv1fh53nkMMafSLs3BLRDyhTu9ivGtNir+SttGu56/VPs8p2S3N653TjLI8Rq6EFpS59dzeYDiJAtw7s6rFOfoDPtegHMdIT6/4LAWldeZsG10bhVo4zWiTV4sXRE6iSQNWdvSFtVs28bmNC5wvp3TrAXrkgDq4JrabzpYM68GL+GDYucW3bU0Kmx0eMbkJNq0gt7lqZPxbCEqrpcJsUr+MjE59gZGIdm3/N843xh/k9vdixoMpX/TIlVrvnQ4y8PxTWkvfJHayXGktspxiocmm5ql7FPekBhnUGzJcSaul/nmy0dpOzLJ4+f55fct/09P5BrMC85djsq8xvyexrR/4zL5OS/IwrbWPFo6FvOXsbImN/v+uEVxInzuzbsjBqLTZD+ZqXGn4FQ0LeJgTie914p22heBcPmHV525yvZFQzk20lyq/ufmLTTlxIocb4op9fU2w2/r28rm2JE/xxU2e/uMxlhuLIi2q/XQYjHFdbwpWvJf1qT0l9beZENXPs79Obxatm09LzgpzXj8G/vBPHThkfcskkeeU2rtjeudyzl2jKms89DFfmyepDixwFY6J3v5wtdaJH6HpZ38AyUpIt/+cl0WYWOz7QrcMiq21f2225arxiPfTt3GLMaV2KvWK0+0ba3n1eYVBxV9hYUu+cQN3vEK0T4HsNNW2jElIpNw3b4sCadv26SaR7Zr/KBxfb2gOfNyB2r5v3G+Mb7b9aaTDbsFa++u8fIGv9GvsVH6eVwUR1/Lc3YcdXmTTT32XJ+1L6Xm34b39OMXwZY85uf34T09gZj0mT9b3FjV9ql57fVmsud1eP/6NmS+5atJZW7Zx10xFexz9DqNl58S54k4bd18G9t7/ig2i6/e5O73eBW2uyyuVJxM2nHn4OhE2Dl77Uw7GQtTHyLep3Nu4Z4Mrfr3fRxbr5hH1a8LZtvJRt+u3jrXqWyIZKryRJULHE4Nu3Lf5dXhWD40R2Ice1MltBSfi5u5phO9Xot2hVneg62xrR6l68wMp4r/wj5rVXtvXO+cp5kwsf3YPGxxMj1+NwtDTsZFcHJxEWCrQOuS1HwjkRT115h+Du9f4t+cxA60HdNCO/XuB1stQrnxKAXL2E3dVvYp2iqby3mfX+hZzEX2mQM7TWLsNy2C8cxM23TJthfZb7FfbQCmu3cel4/hTW7gvUVMBO+S7rwCoLAsjKR/8gJa2plNy/e39MdxUjfm7p/8G5lWYhHzyGOOzMu4pc9yTsbP2FpqWbIvc2sWrWL8HKfbfN66SvCRPpUaz5qU51ptp/ONflOcqaJD9juOJd+LBTHMYPKrLhwXNSb7nGw0NwHc8/mHEJKvpn7y+eJ/tbFX34mO40x/j9XSWstFm88XH8QfTsm25vN5DiIHKG2v1PHEZrwTW7Qt47Z1XuqhxFG2d8ZPm9noC4uNYkwv9tQcRVsR46Uvcwd1yjeZ/8hJ9tGjk85rhe0yb42zLnx9H8n2pa3WiJez5bxlH+75ln2t89pd2941+i5zlL4QnKe8IM4Jfeu4t3miJxZkv9KGHj3MoBDzjU9DdN/SL3Ztmf/7P2lv1pA4N/GasW3TR2KMJf6rixMZFzLvyTHFecG2aF20VQxa59dDeODixHt8l8VlFgDncW9dEKyH612hgkSOqxysxVMl9YYYZd95AfTOjXa554UIY4DXDHO/elNl2k1zaW1OF/jnDaIHcMu5FfOquYhgk/4aj/M8F/sXuhNtc6DLMT3uuZ1eGDTz7Je5vtx+8hxGro5t42l3QVMbF23LxKWh02Zx4vRZbN7ieHuN8KWctxxXaG+OpY7JRr8mzqxvs88KX8NRFM3SN7af+F5obGFcbXvwsP7qy8RGxq/Qe8I6x6f4rc3Geuey98ZWsaBrvprTJXlM91v7bnNxIgu6nHOELi/jpOPc1ZIYq+njlkayveLmXrMP0UbltqlvvU5ZWyeNNfLWyGlu7LG/qQ+3bdrguv1bvRn/iznI2JXjNc9f7GDtYzlm0azcvDdiVMzbsh/f5/w1mlv6NRwmPZS4m/NJsbVhU5ONaC/X5qm9+Xyya7Q32zbXptFO+nkaa6eDbv5Si3kuxQbJe/KZXPMUi+K/yRfCjumczFGKgWCozhd7eo8etjiRv3ceA6t2WrUwjTBdR/Ti7GznCUMsCKEX2aZysi9GT4TeubH/1vmKyZePdlu1+SyingJAfW74y/mJ4CjXdrLsbWbHa8yr5iKCTdhZgtQuBPLfOZAJLRna0JdK7qO/hb1qLHchkAtNq/CT/MWcpLYWbTPjKP+u8b+v30BI2GA3D72ubrdrzFuwtnfVqngYNSCZhcEa/Zo4Kwu89EWy1sw7tJXjiM+7ctvYrZxX1q7sU4CS+pN6k/FQsWmNMS32Y4M2GzH8LodNWwW72nfj0FKPa3Rcb8revsu+ip+lbTLHFe4mtqzv7PpwITFpT9ycCT/Zsawto5ZMG91fZCjn6WqxVyfe+PJa4V+p3YyoME6xK/qz7VXb/KRnpn9v3rbPZhEy02+2ffNro+8yP6k34fsqP4jPcg6R7IWBlkUrFsIlwgd+XhTjVjaJQcWhHL/yQWpX5l/iXLU1do0aLtfkeF5vmzBz5aEYq8nfzzl5IMllNiZHzp5uvHPNvC7s7fRbttO+nqg4saZteO9CXNdP05Hrurm8tZiLEtTlPdPD3gSEr1Si23sc+nteAmjsTny/3+J8JxPGTAicgkBdRJzCrLsy4jT732EYnrg4qf+WQN7hKI/6jtDWfCV8hEWMOUOAjeMMHD7ahQAa2wXjnp2MC7m+cSTztv7K0J7j0hcEIGAIyCce5qmeacnbQODM+9/ooucuTqbHZOURX3zEKB953lDLMsCSbXrxu6EtDNVPgI1jPytabiOAxrZxu+JV8i5j+WpKWkvYIF2RPF1DIBKoYzB/9QpC8wTEE95qH3zQ/tcYTHFiHXPkomKKEwoTo9azvmXjeFbPPI5daOx0vqw3RmNhco6F/XSwMAgCVyCgY5DCpB9xozg5cv9rjH+s4sRMjrcQgAAEIAABCEAAAhCAwP0QoDi5H19hKQQgAAEIQAACEIAABB6aAMXJQ7uXyUEAAhCAAAQgAAEIQOB+CFCc3I+vsBQCEIAABCAAAQhAAAIPTYDi5KHdy+QgAAEIQAACEIAABCBwPwQoTu7HV1gKAQhAAAIQgAAEIACBhyZAcfLQ7mVyEIAABCAAAQhAAAIQuB8CFCf34ysshQAEIAABCEAAAhCAwEMToDh5aPcyOQhAAAIQgAAEIAABCNwPAYqT+/EVlkIAAhCAAAQgAAEIQOChCfz2f//3fwP/wwANoAE0gAbQABpAA2gADaCBozXAk5OHrj2ZHAQgAAEIQAACEIAABO6HAMXJ/fgKSyEAAQhAAAIQgAAEIPDQBChOHtq9TA4CEIAABCAAAQhAAAL3Q4Di5H58haUQgAAEIAABCEAAAhB4aAIUJw/tXiYHAQhAAAIQgAAEIACB+yFAcXI/vsJSCEAAAhCAAAQgAAEIPDQBipOHdi+TgwAEIAABCEAAAhCAwP0QoDi5H19hKQQgAAEIQAACEIAABB6aAMXJQ7uXyUEAAhCAAAQgAAEIQOB+CFCc3I+vsBQCEIAABCAAAQhAAAIPTYDi5KHdy+QgAAEIQAACEIAABCBwPwQoTu7HV1gKAQhAAAIQgAAEIACBhyZAcfLQ7mVyEIAABCAAAQhAAAIQuB8CFCf34ysshQAEIAABCEAAAhCAwEMToDh5aPcyOQhAAAIQgAAEIAABCNwPgQ3Fycfw9vIyvEz/vw7vP+SEfw7vn+Xn9ti2l9cOw/DjfXid+n4ZXr58mAbx7c+vr8KGl+Htu9ts+Pgix2+Nbeb0+X346XfH2asQyJp5G3xvX2XQU3c66ralaWl4jgOvbf4sx6rXRvYVjztj4ZA4ra3lzDEEtLZaeTUpSuXgl+H16x1kV6vvF5Obqs/lOvMyvNg15PubWq9aDPrWq2N8fuioIz93L2Dy1bR3MP5qGV/5sb6uzyfGDuv/PL4dz51TbszrTQkY37gxatq82LxwU4PPNti4j5tfC9ZYvLI4iQEoNzkxcPsMCm3ngjE5vvSfAt5cExdGkURS4i/XRQRhPJEk4nXW1jhGEWLaKIvr1gCl7QYC08ItfLqhm8e4pCxyVs/1/Npte2NE99kZC4fEqbaUd8cRqPJoI/8Ow53m0qBvuU6suXkSY0jGbsVrsHEWfdm3Xh3n96NGjnuM1o3Kmne3nU3dlh76fGL92dB9Z94so3N0MwLJN2UfGH2qCuKL8sLNZnLMQInfy4vMm5eZsro4+aieUNjAbBgUEsG84SERmEJkqK7zk5FNIvEJjB0vJQ0xRlg4bCFSJZHGnDi9A4G88I93Hp+5OJEc4l1YucHxQMdNj9e2M0ZMp72xcEScGlN5exgBP99X+XcY4lNrm1sPs3vFwD8+hg/1bYDyRH8pJmsOfizGdU3ku2rjM9pbr1crZnH3TWV+C09/xbpdJtfgWxr4Rz1rfKdP9s2bvrmcvS6BOm6Hodp7XpAXrmv9kb3H+MvfzjiwOPEg9CVQd0OjumslmXh+qmhDsSKSeu7DFDFuwhjTffg6WL4+2j71nft68kVhwnCLg9Fvn9+HD+WXWwx8tjGk/uVxy86xzevw/j1+DVJtmjpjRPfcGwst2+L5KZY6beiLU20p7w4k0NjU1X5s6eRA2y8a2ujb7cuZs1mXymW6bc0vttTrVbn6GY7knkEeq7m7BYRq4b5p8ZaNW220T3bOm9IAjm9EoLGH7dJWT1640TSOGEYyksc72LLyyYk3YsOxsmkweuE79M0krvt3K9xxLDWGvkaaoqphdY1qdb93/fQ0Tv6uLNA64Z/c7KubV7i0hpoWa0fDfTFienb6yS1Uf0fEaTaE1xMQ8BfjSY/ZwlZxmj+/u1d/3nIabg5rxovsr3O9koM92XGlrzz/kLfsNyTyh63XyHu6keI26/TJznnTNYWTVyeg1rg8WlcOk3GcL3zS102x2GZ1eXEyE5x5WNfx+cP8OiMEmZjkcb40vkaRxDvIM8lHApTHurP4hOUev5Jg5nHmt9KX7sJ+ZuOvapvUsjOQjBUn/iRXffVMv72xIMfWnceCPn31os+Gzjg14/D2WAIxVsWGMGhCvM9PqMf8mfQ5PfZ3v5pz7Hy6RnfmqK9rbFKc+AzXpfNxg0wcaJb1u2Y+CX4xP0awqLGSB0O/0x/RSw13+mTnvFnPnDM3IaDicRyxEc/WmMW8YC944PczsbBl1hcWJ9GB6o+GKitKIqg+kieCk/PXreQH+rvLzSSlxLSUWNJTnBmYbJa1D3Z/Z/wNb0l4LmbMZympyq919cWIHC8/eZSLc/lc+cb4rbS6YpzKQTg+BYGoibwprHUzbfrkDZ6k1fn14hTT00Yku2fvtC/FhfpD0XF9eh1eP+dfLutcr7RVT/WundMMhqwxqTvTJH/LYiyYq7w5+anTJ2G8Wv/jkFvypjWV9zckkLWTitXZeB/N6skLNzT/8KFmYmGLbduLk5CMnZ9MtFbMJG3VdKadTEzyWF2fihOenGgqp3yXglouDCqRn9LoWxplCpBp6Lhgqs2dw7IvRqZO48FMYgm+yYv9EXFqTOXtkQQcDabcK3UZNDht9Iq9Mc79zVxpdZ6jaG/rl6KKne2Yi20iD1nMyc2vPC59hqOZuDQtH/rtEl81eScnep9LvcbPY96N5zt9MuOfLXlT2cmbmxGIca5vjseY1eeyQb15Ibd/iteZWNgy/03FSXbMYmW55g/Lw6bHW7T0YhgEkzdKcsYqIelrZDP+5kTROOCN7xsvORxg3EmG9IsTl5HSfTS/L0bMVJ1+cgvV3xFxmg3h9XACrgZHq4wulGak1TM6k83OcBzmYO6uu3ZtmpOMcT8nhrEMV3f8JzgZfLH4da0MIrJt7k9m/FV02+mTrr7q+MiWPvsvshUOBx41fejrqDsvHDilQ4YOHL09/DZrVhcn6xwjE/CCgZ0CuXRx1Nf74iNhLPjqko/DYpvvIDZeuxehSww587Ve3MRz03f3p+9JS4bxLo/WuJjn7EanMxYOiVMxBw4PJVA2b9YMrdmmBndewKwV+7xPG1PnyY/bf4gr/w6r2348aa5pcW1ybHb8mB8EPt3rQiuXZTbtz+U4fT5p9WWKm868mS3k9YYEZtZFqYdpX9ibF244hVMMtXNuX1ecNAOsgcYk4EardNoEc25shdOwoUok9rrQXz1Gdd3YrjFGNonX/QmwCEumeqMnP6mOPa165zr+3Ym+WKhjKNhk463XBntd6KwxRjV5TtyaQDNOrR8b/m9ef+uJzI1n5zLXNsdV98Z57MzRtzum027Blkf9WG8SF2bpstTXuLlO/d1qLiDtneDaJ25flf7r64JFHbZqy3m3O4HKV3kEU3jiqwzGfw0cbbz4TXvOripOwsLifaWqMZIbtFPbFKyyv+B8+UdqRhzp2tCv/Af7XNHU/bsLYxJmeQTcSCKT3Rxcg4Drm2sMdBd9Xlic5A3TQoxE5iKZ9MbCEXF6F357BiOjNvX39dM5mcvtHwSPaCp9nZNXWF+6iw1/jZIz+/iin6pU61do3LleyY6f6Ljlk59f34Z3+Q9mJo25+lQ+rf1W+6XTJ5WuG3uIzrz5RG49zVRr36cfeBFPSVoaPM0kjjYkxIHYT1xoz/rixP06yfjVEmtUI0Ang+vADx+lAM5fXylFw3RhOIhiyl9psWPntmmMyWa9SORWedHMY+rENrXi4IoEKE4k3Lhwyh8MkJ+q47Qwem2XYqQqTsaO8+KeY0Yt6GLkI+JUDM/hkQRsXs2/OlXbFDWW87S88VS3PcsZHTfF9rg+mDVkJv7yfKr+WjGVn6jk2JM3F3JnT/oaGDrcrL5GH9W5MBXP1fXpfOZtiuuI2mrd+D/7Y+e8mbvl9XYEKi0ZPVRxnHUTXhu6uJ35x48UYqC1F19v3qriZH33XAEBCEAAAhCAAAQgAAEIQKCPAMVJHydaQQACEIAABCAAAQhAAAJXJkBxcmXAdA8BCEAAAhCAAAQgAAEI9BGgOOnjRCsIQAACEIAABCAAAQhA4MoEKE6uDJjuIQABCEAAAhCAAAQgAIE+AhQnfZxoBQEIQAACEIAABCAAAQhcmQDFyZUB0z0EIAABCEAAAhCAAAQg0EeA4qSPE60gAAEIQAACEIAABCAAgSsToDi5MmC6hwAEIAABCEAAAhCAAAT6CFCc9HGiFQQgAAEIQAACEIAABCBwZQIUJ1cGTPcQgAAEIAABCEAAAhCAQB8BipM+TrSCAAQgAAEIQAACEIAABK5MgOLkyoDpHgIQgAAEIAABCEAAAhDoI0Bx0seJVhCAAAQgAAEIQAACEIDAlQn89uvXr4H/YYAG0AAaQANoAA2gATSABtDA0RqgOKE4ozhFA2gADaABNIAG0AAaQAOn0ADFCUI8hRCPrtIZnztFaAANoAE0gAbQABo4XgMUJxQnFCdoAA2gATSABtAAGkADaOAUGqA4QYinECJ3Ko6/U4EP8AEaQANoAA2gATRwtAYoTihOKE7QABpAA2gADaABNIAG0MApNEBxghBPIcSjq3TG504RGkADaAANoAE0gAaO1wDFCcUJxQkaQANoAA2gATSABtAAGjiFBihOEOIphMidiuPvVOADfNLWkNQAACAASURBVIAG0AAaQANoAA0crQGKE4oTihM0gAbQABpAA2gADaABNHAKDVCcIMRTCPHoKp3xuVOEBtAAGkADaAANoIHjNUBxQnFCcYIG0AAaQANoAA2gATSABk6hAYoThHgKIXKn4vg7FfgAH6ABNIAG0AAaQANHa4DihOKE4gQNoAE0gAbQABpAA2gADZxCAxQnCPEUQjy6Smd87hShATSABtAAGkADaOB4DVxYnPw3/P3Hp+HTp7+Gb7Ob/G/DX58+DZ/++Hv4b7bdr+HXv38Pv49t8/9/fnM3z//97/fS5tOn4a9/fJjf/hR9ffp9+Ptfr12yL4/ZY+fSPPjc9Zsf9L068nz3hOf++Utp//f//adYa81L/cfjVqxE33TGwiFx+oS+PmEesbk352qrwyqXL64TJ/Kv1XeH7WPcubFl4nXk5bb79WvQsdtar07E6Zr63OCDX4l1pcWWnR1j9Plk37zpr5NP4veWr6593mjB1ZBps7z3fXyf6fj4NLjcNvjusuJkSrrzxcm0mC1t+pPjS+JOAW8KlNifGDPZUa6LggjQxJjxOpvw4xgFaNooi+tIFFcOsE4d4YdfQ61hq9+2r8K1s7q2fTVi4ZA4bc8LXdyWzbKO8k0mmWvv6AZE0Pca29M61Sg6vv0p1qpfOYbrAqVvvbqtrw+LrdU+GLlkjXVukBr7BjnnPp/smzfl+BzfSO9pTSv7wBTTcu+5SZM3sn/D5n8PbYX4kIxSTBWO2+d/QXFSEsF89VgS99KTk2qiI/AwWblQxP6WCpF4105eJ5KXgOkutEmodow9nEkfVqy9OrLXPeN7X/sxRvQGqNJZh6Z7Y+GIOK3mc1Ayxo60uZ4tcsfi5NvwzT6l7tDgKfh22y5zV89TyZyz0nViHepdr07B5xax1+2DzDTvFaIfFjdHPVoMbfbbQ/TlTTGfW3BmjPCtg+Abm9Ps3nOLJh+c77d/6m82uSw3cNhenIyO++Pv4Vv4elV7YxQ2PH9+i4+rrfOVwY2N1694fko2QTDOeEZI7kZrumuVr4+LxNT3ZI+zeEyfkTx2XSA7dbTrmPfqS6PxwqQVO0WrrXgoffTGQmusa8ZpmUexl3NHsXA3WV0xZTTSdc1Z/OzZLmNBHi/bbBm24jOc7/hK2VFauO24ng8y65i//vpnrk1u21dg9/lk57x5VzFReN5WB3uP29jvucWpHbtPb/fNx855/v1eOWtjcVIS8awhwrmL1VRz46WF0+xH3QnR1yhhyHHUNRp4cxySh/r7BsV2NZtOHa3uV/vyMhtP1JfUrmKylCCXPs9fw6m/ajKyU7HQtEHHnLpG2qpiTl+j/NQc50T+kPN6ouPgW3nXv3vuHTrs7uvWOliyPX7e97Q96r7cFCMOVOw3NdD2QSkk2m3KGJa/p6VOn6h8pvtRObCZz2bGaXLQ45R5cX4rC+WrzD34LN/IbrHt0Vvr2sc8P1sTZLYdr5uKE7k4tQ3RCcB1vjRwRghyPHmshSgXBz22aheSSXpUK4+lLfkJy+yTnscUlmJlmOz9mfRlW0dwnri3FsJ0vmx2NLMutr2xcEScXlmHE1/G6bjxkDZT+cdDwqv96ovW38S3uUFrtD+TPxZtl+vP/HzqtbBzvToTjyNsaflA5a6ezWLxVfDFpGWp406fqLG130PezXuIzrw5xcoRfJ95zGoN7dFR/iqh1I3WwPP5M60Pm25eaXbrixMTZK2NjwpMe/fVCwLTr3SqTOZyQyvb/FJf/1pKLOkO8VJi4XF6x2ZFC0r7ZOYz4++Wjrr78zT1gOfiYiqT4aj134ff/2j9EehMLEg+vbFg/Cb9c7U4lXZyfL2Y3Mg2atJ/6jbpo1r8Z3LDRjumsfa+vsv2suGt7UgLdtoE1zcRZmI0jd33ROaOmK71UdMHll3HpjL1ZX81TedW269gK30SjmU+Lu3UmtaZN2vtlP747MoshC5GbdRxasZP7RfbrdX6HbePMbT0tMlwbMx3XXEigzJ1qAIwDxICUQes3Li4QbYUvKkSC/24VZlcHJYSS7JtKbHkux55XrzuszHq1RG8Xd4xAeSfCB613Kn3OZ69sXBEnM7ZzWeuRtwce0VWc/k9rhGfhk9u3u5bqG49nzxev+1y/ZmfU+6zbGp2iN8r+jazOOo18/L0U+tuRXFS6TFeG8fp9MnOefMoxs8+btSY3lTHdVafy5zmNJnbPNdrip3mP9cxnxM9ViuKkxisNkHUTvWTQ51EjLFOQRMN1uM2+1EbXn2NmrgcR12j7WmO88CLgOJ0tXn6vql1pP1xG9vudcwYc97d1W4d98aCjB+lEe3X5rhqHH2N8nFznHv10WPb3YrfoIPGT+wqfystnYPVOtvbMejNU/MiDjxG47lZH7g5wt9/qP5VDtJaK3mr0yddfc19/WdmnBPGhOL4KPY1fehraVaTj8JkzTwSv6Vf412rnf7iJCSCfLe28frnt/TvMDQ+bz7WnvuDXC0QndRFYjGJqiQZ0Sb/Lcn0dS3dd4FHwigsNL+Lz3fq6OJx1gTXvbcNTL07PFHH5Q7tnC87Y6Ezke8bp3N289kZYqX2d8qhO95Ju908t9ge48e7QeDavWm9eiatL/kgfz6319Df3ih+aOW6VAzJb2k4357QWm/1lezLT2c682ax8Zl8ffBcTSxKH4R9ZPbh9O/otHR18DyO2Mfk/dzEaD8G/cVJY+I6UNuGtYqFIgQTzHk8K5xGkFf92+tCf/UY1XVju8YYxdb2PGmzjU2vjuBr+daanhgFHfcn0r5YaIxn460RQ9UY9rpGnE5zynmB11N8nSv6xdGE61er3ZO+32T7uuKkynfumA7XZ9G9y6NHL61iQV9b5aHA1Vzr2lD7xO2ryn/1dSF23DG0reS+K/OofJXH69FDbvuMrw1N75SjDixO0sTknYkQqPIPK4040qRDMpiefrQemdb9VwvC2F8SZrm7fF3gJBo/iF3f7CTyR2Ju/7XpKhYEsyWm8XNRvPTGwhFxKub1SP68v7l8G/4yd8miBoWO8tdxTLt7mWuYz2rb41pVPTkZY8r2VcXPmBM716sniYNtPhg5enuGeE5/Jb1uV+fSTp/snDfvJU4eyc7a9/krhSWvbdekv+e5e35B94XP3vM5V3EyJt6UuMdfS5j7xYQopvxItwUoJZfppwK9r76UAiWPqZPYgwrrZIvc0kZ6b+Hfa39a9/N/ZBzayuLf+LwqTsbP00K7GAtHxKmx/159eN92p43elFM/hX+M9z/jm0qnsr28sWSuOwObbbZHLlVxkosONf8L16sTMtvbb9t8sKY4KW2nXOfmyp33EJ15c2+e9Le8j4vrYd5T1nltuyaXx75L/9i9gspxHb92tpDHLi5O7hLqAhTm9KDBhN9P9FUgNEaeQQNoAA2gATSABmoNUJywYWXDigbQABpAA2gADaABNIAGTqEBihOEeAohcuegvnMAE5igATSABtAAGkADz6YBihOKE4oTNIAG0AAaQANoAA2gATRwCg1QnCDEUwjx2e4KMF/uhKEBNIAG0AAaQANooNYAxQnFCcUJGkADaAANoAE0gAbQABo4hQYoThDiKYTInYP6zgFMYIIG0AAaQANoAA08mwYoTihOKE7QABpAA2gADaABNIAG0MApNEBxghBPIcRnuyvAfLkThgbQABpAA2gADaCBWgMUJxQnFCdoAA2gATSABtAAGkADaOAUGqA4QYinECJ3Duo7BzCBCRpAA2gADaABNPBsGqA4oTihOEEDaAANoAE0gAbQABpAA6fQAMUJQjyFEJ/trgDz5U4YGkADaAANoAE0gAZqDVCcUJxQnKABNIAG0AAaQANoAA2ggVNo4LeB/yAAAQhAAAIQgAAEIAABCJyAAMXJCZyACRCAAAQgAAEIQAACEIDAMFCcoAIIQAACEIAABCAAAQhA4BQEKE5O4QaMgAAEIAABCEAAAhCAAAQoTtAABCAAAQhAAAIQgAAEIHAKAhQnp3ADRkAAAhCAAAQgAAEIQAACFCdoAAIQgAAEIAABCEAAAhA4BQGKk1O4ASMgAAEIQAACEIAABCAAAYoTNAABCEAAAhCAAAQgAAEInIIAxckp3IAREIAABCAAAQhAAAIQgADFCRqAAAQgAAEIQAACEIAABE5BgOLkFG7ACAhAAAIQgAAEIAABCECA4gQNQAACEIAABCAAAQhAAAKnIEBxcgo3YAQEIAABCEAAAhCAAAQgQHGCBiAAAQhAAAIQgAAEIACBUxBYXZx8fHkZXl7k/2/DhzeVH+/Da087e6297ovb+/Dz66uy4+277Si+1/a+Du8/vHYfw5u09fP78NNrxrkrEfg5vH8eNdXQ0pVGPXO3o25dTX9/U7ofY9FrZ+Mjx+zr1yVld8bCIXF6Zo89l21aX628KpkkXd1LbrX6buQmzeFleGmsV4OJWy8O9VpV1lgvviXZpzge+bXYCgDNvCnaqMMOP2u/tLS+b95UNvLmNgSMFrwYHUwb9izSNeM+rhUfsl3f8cri5GN4UwmisakMDpRGNtpZG5PjSzJOAa/GHFJhIjayKfGX62LHIamIxTAuJNKusV0cowgx2Squs2byfmcC08ItfLrzEPfTXVnkrJ7HOXx80Yzy5si2DedXa7gzFg6J0/vx4KNbWuXRRv6VHLJOX1ZrUvZyo+PO9auKsRQXdhNd8arWnDivsF6Zte5GMz71MFNxMMtmPm+6E+zQ7a57iM686drKyesSSL4p+8CkJ6m5zrxwXUNP2nvOfS92f73d3pXFiTNQFXDDMPz4GD7sEwqvnenOTc4hgcgJR9HYzZhNIrHCldeNg6XCQwiuWmDGZh22GtN5u5lALlyf/cmJ5BDvmlqN+4hrTY/tXF37HUxn3WucWDgiTicjOTiYgC1gozlV/lVWlo3jfRQnfevXz+8f1RP2WIjIGwj+ehWfpMh2442HmScviudzvIksyxMkW/RFChvzppPXKqqhzX57CNe/1f6msoITNyDg5i/rm4372huYf+AQIreHbx/ZeNlu2uXFSboLtLyR8he1Ynojidu7TEEwOqmHPoyQ3I1W3rRNj+hjYivVcrbG3/DlT3ndkcDot8/vw0f4mp7j1x2HOndXUv/yeNlqb9Hzzs331BsLLdvi+SmWdo3Tecv59IYEGpu6Vr4dLQufffmIm+97eHLi4jT6dtsMQyw6xAJt1qVymY2jVvyVK57tSOYweaw5SI7yWLey7+b0mtu22oTzq/cQLdvi+Slv5sF5vSGBxn7PLU6tWU/uP8lIHltMG95fXpx0G7TgxGYS18IJScpb4IId+fv3+hrFRY6jrlGt7nwh1XM577uSsHXCP6/Ft7GscFkez9/UtBfzRo+9sSDjR3WlY27XOFXj8OZYAn4eb+pNrA9NTRw7oc7R/XlXF9v4sO+nC2x/fhxPzZ/8oKkvxaU3b/aw1vlMDSN9unPeVOPw5mYE3NwU/Lx0w9TG8c1MPt9AItfvYdyFxckKx8iA9iyfEYJMTPJYdyMT00zykQDlse5s09diTBe8XSAgfUlxImFJLcvz9bGbVPPXF+WPPCx9F7Q3Fo6I03ranDmQQIzVnqcDOg/7Wj1wImuGXlq/Ul/VHENc5ZtmYsB0vtwxjzGff7givi5tjER/D34o14r2VHvzZmkX+p3ypNB0yqHFP2JUmSvlsWgyHoY4yTdSO/Om6YK3tyLQiEfX/9KmzrwgL3nY45lY2DLn9cVJcmJMnjKYZ4avHO+0XQreFOTtJBUTThSTXhTVaMmW8DW0GZhslhW1/d8Yf8NbIi6Lpzwbj9MdvbSgLibP1EFehJtfv+yNBeM3aV8Y4xpxKgfh+BQEYrzmvwfw1wG1OQs/5vASvsK59Htxp5igNKJn/cqbUecmQIw9yWiM4dfh9fPL0I7fHOfyOmnUcx23133JYS5vinbJn+MeRuZD7aed9xCdeVNYyeGtCQhdjNpox2YyrDMv3Hoah40XeOyXr9YXJ2rmywl0WsTEH6GrLvKbpeBN17eTlExMS4klAZyBaRfWbCavOxBIQS0XhqgT7hRGulLL87xzfC0m0qXNYW8sHBGn8wj49KYEUs5X+TzqVf3BctCJXqhC7s53km9q8/bBcnypuVXd5XVQb3Zls7jxlcXczBo1Xeixnj58qoP2ui8xdObNtP7UPpU6nvGPzJXyWJqSi9Ws9868abrg7Y0IePuPGLP+nqQvL9zI+LMMMxMLW0y8sDgZh2wn0JyQ5Sa0aaSzmMW2uv/QZw542VlKOHEsfY1spv5gUV2jWvE3JxrHju9833jJYcdB76yrzkU2zaqX3Wy73lg4Ik7vzHuPbG5TQ0oXUb+2YG7m7pMC61u/0oZ2+gPp3sn0xfi9Meud/dp2gYMqiL0e+pjO/Rpn4e2vU2FUqfWd86Y3K85dmUDThzN5zDx1u7KF99F94KhvSF1i+A7FSfoJRFUwpMB2HnE3je0USN/i6NkUR9bX++KbK7ia9vNBH4GQ2PMdxMbr4iLUN9T9tupcZPME5WKZzzmvWvu2QWcsHBKn1lbeH0WgbN6sBUWzUWeN2F75dUQ7ym3ed65fKRY2/TxyiFn/rqycY5u3bPX4x7sWJ/YXQAU+OU6Lvc6j++ZNYQqHtyIws35KPUz7wjX72lvN4QzjnK84ce4wzDi7zdDpZ2xs+2psjqpEYq8LA9djVNeN7RpjtG3nk0sJ6IR/aW/3fn3Z6PXMpI9drX3bd18sNPqx8daIoWoMe10wqjGGNZj3NyfQ1JrrR21e5Xv98XnedcxlNHb7fHr13dr4ngfVrSwJrBdvWvXnTd93hrerg9p3bl9V/quvC+zcMW5FlXECgcpXmUuPHnJbXv1/W3A7l1VPTsaFyX5FKwSmeaTdl0hSsMonLiFQ5fd2jTjSPKsx3QCv+3cX1iTM8hWERhLZzpgrOwi4vum47jGbNBbZUat2ga5iZiTyMbyZdjFm9CPXyFyc642FaswbxOljOvoOZxV9rb+vn87JXO7MLGhwoY1z2c1P9a1fjRh1rP34op+QVOvXeM2P9+Htq/ypgLQOmbXV6f4pTl3mk7Zmy7qfik3Fe+c9RGfefAqHnmySXkzGc2V97NPgySZ2S3PC/qHwunToVcVJfqIQf6krPbZ3Fpvo1NZj/Zyo68APk0kBnMeQyUNOVo/RApITfLYljy17Kk9K8ph64TVteXsVAhQnEmtr42P1POra035ajKefyPR/JakqTkYTUoGyGAtHxKlExPGBBGodtvK0NDLkbGe9kG3OcKzXlrx25Ne8hjgxJuNN3Byo+hOfTfO1cTf25bWbLniug8BwkUcrbyZfVdcbH7ratFrP/jf8rf+qsVL7zrxpeuftDQjE9TDHeb1mVnEs410VtTcw9oxDHFqcnBEINkEAAhCAAAQgAAEIQAACD0Fg3ZOTh5gyk4AABCAAAQhAAAIQgAAEzkiA4uSMXsEmCEAAAhCAAAQgAAEIPCEBipMndDpThgAEIAABCEAAAhCAwBkJUJyc0SvYBAEIQAACEIAABCAAgSckQHHyhE5nyhCAAAQgAAEIQAACEDgjAYqTM3oFmyAAAQhAAAIQgAAEIPCEBChOntDpTBkCEIAABCAAAQhAAAJnJEBxckavYBMEIAABCEAAAhCAAASekADFyRM6nSlDAAIQgAAEIAABCEDgjAQoTs7oFWyCAAQgAAEIQAACEIDAExKgOHlCpzNlCEAAAhCAAAQgAAEInJEAxckZvYJNEIAABCAAAQhAAAIQeEICFCdP6HSmDAEIQAACEIAABCAAgTMS+O3Xr18D/8MADaABNIAG0AAaQANoAA2ggaM1QHFCcUZxigbQABpAA2gADaABNIAGTqEBihOEeAohHl2lMz53itAAGkADaAANoAE0cLwGKE4oTihO0AAaQANoAA2gATSABtDAKTRAcYIQTyFE7lQcf6cCH+ADNIAG0AAaQANo4GgNUJxQnFCcoAE0gAbQABpAA2gADaCBU2iA4gQhnkKIR1fpjM+dIjSABtAAGkADaAANHK8BihOKE4oTNIAG0AAaQANoAA2gATRwCg1QnCDEUwiROxXH36nAB/gADaABNIAG0AAaOFoDFCcUJxQnaAANoAE0gAbQABpAA2jgFBqgOEGIpxDi0VU643OnCA2gATSABtAAGkADx2uA4oTihOIEDaABNIAG0AAaQANoAA2cQgMUJwjxFELkTsXxdyrwAT5AA2gADaABNIAGjtYAxQnFCcUJGkADaAANoAE0gAbQABo4hQYoThDiKYR4dJXO+NwpQgNoAA2gATSABtDA8RrYUJx8G/769Gn4NP3/+/D3v/5Evv0p2/01fOspBP79e/h96vvT8OnPb+7m+b///S5s+DT89U+PDS1bzZz++Hv4r8dW2ri+WR/Y/w1//zFqpVMjT8B9jJ0+TX8afv/ff64femNE+6szFg6JUz/Gtf20uSYPndNlfo/HWrM5rnO7O4pvq+/Z3GRi5lO9zlhuXszaNnmN1UyfVN///NXcC/z6Zfg39gxuXHT4Wful9m3s19jQ2kPY8dbY+gTrnuujW83b+MaL0V+mDXsWmY/GfN+KD9mu73hlcRIDUCbLGLi1QfF8WYziRqlup8SYHF/6TwFvAjj2Vfr+NSauT/VmLtggkoRvQxyjCDEtqOI6ZeOtAuWZxkn+I9DHoC2LXImDEsxB0zIeErui39i2N0a0tjtj4ZA4LQy0zZw/A4+gN5Uz69xdafKsOS7oW65VucgSa062PcWCjT/pk96YrdrlMZ78NXAZb1jKvDcxsTpbsX439g2V74SuL9pDdOZNOT7HN8rvVRxbXf0aYmHSmRcmfd7I/qPHS/w+OTdmtmp4dXHyrXpCYTc02Ym2WEhJw00w0YFucg4JRAoijmc3buFakURqIY1j1DbUi2rL/icR2c1Fnhf+Z39yIjl4d6FTjPxTP0mstJ8KnMUYMb7ujYUj4nRrguO6G+StatP1a3C1lPLv3Eb+FP7699vwzX4bwJljvpGwNJ9vXTH7a3DjysToKfjcyKZYCOSnbn5xEtuYotH1lYmD7jZy7zH2sX0P4fq32t8YO2/E+pl05c21XkN/DfGmt/B/d154Jh+mIm76tpPgdaF2VxYnHvQ6WCunJiPd4Jwm4Bcd1QIQgtkko7EPE+T+4pgWzekRfbS9XlycOU12egw45wV817nRb3/8PXwLX9Nz/Po03KX+5fGytqoFujNGtH96Y6FlWzw/xVKnDX1xusxAz4X2t+RR+7CdP+u29+Iro+9pzdmWs6qYvZfC7Yb5WO4X5LHUtrupbNyckdf16LDVRvtu57x5Q76Sx3MfN/JVKGCXNttOXngmH0pG8ngHBtcpTty7Eq0gTouTKS5KsGjh+MnIPu3Q15S+TBHj2hntaY6zA3Rlz1P3Vza6OuHfy4blWnYWLj1aseya2p3Re/4urX3aMo6v+jsiTp86Rq6lsb369Rbndv61Wu3R9zna1PMMcTHzTYA5u2sOC+vjk8dAi3XNMe8F5jaVPazbGlY3Qmdy6pa8OacZPtsrZ9X9KF/lWGvdYMufh9c6Lzytn0IszMVdzX2O1eXFSSM4g7OnJxT2iYVj5IwQZGKSx3pickM3k3wkQHmsBNf6WoJjt7lO20T7OR7Sl+4i87RspZaXNFQvopKr5j/Tb28sHBGnT6uDJd8f/3krboMG5ddskw/DebEuaH0eP5+mPVVRXtaYyKB8/cgr8HW/dczmbwjkP4KPr9ueyuixTsx0RVwv5bTy9ygeW8ug5MGox+w7ubEq/q14ylwpj818gi5yDHTmzWos0yefW1/u9D74Uf64TNTI9E2Alh+qvLCTPa3xznx+Jha26PbC4iQ6sCQG7Rgd+AuJdil4U5AvJakopqXEkv4eZgZma9HdAplrtC4CD+NveEtGZfFc0k6MMR1bfTEix5u/26h8Y/wm7QvjXiNOz5yQn9q25Tyr1oZ//hp+/2P8lUWtV6mhUx5XG5cxdtLa90luaPJNOPv3ljrWvJit55022Tv+gWk9hrbrzJ+3c5r2RSjqlp5mJX/aH9GJfskFyrK2QxHau4fozJtn9sHD2yZ0MWpjsTBx88L9xNTu/pyJhS1jbS9OQrB9Cn8vUP/srlN1LjlyKXhTwmknKbmhW0osKQHNwFR3PZ56A3KFYEtakHcY1Qb46XlLLbf4581RXkxLu74YKe1D4uiNhSPi9On1YHx1Fh4zmimaynel0x80z+hnywJ27WtiXvL+GDvFX74zPvkkFRXV+dGH7Zj155H6WtpsT2OfVCc72NfMaUFPOgdGn+lzim9af1ThHGxM/gm8d95DzOi+ObcduKl505/7k/sjI2//EfzSuJHSzguPG4OLWlpaD1bqb1Nxkh3TqiyDU53k7AlgmrCTZOJnOkG3+tbfmdfXTGOMcOQ4KUnJTXJu2xxnJeDcH685aH3fzGrj6ZjHRdLTZdBRXlydGBs/b2p3Ru86frKv4qvqT8aP8ov2q7pGtlM26GtUjDTH0bapa+Q4HDcX4r2YNX08wz7EeUO3e9m1Vz9hfs5P1Mf+Y4x6a6CbyxZitmXzFsatvu75fOBQFWktH8zklVGbKgfpfFJ4z/Qhc1NXX2bfoeJjZhzVTtt5z748ne1NH/r6ms8LT+ynwHHmpsBKPa8uTpYdMxNsc8Z3CsRN/OOkZcKY2aDp633xeT8XeLqAWuno09gf/CTupk4/QSfOVYvQswV81KVbnGR+M4y0xgU7EyNaE52xcEicijncq+4fzu6Y573NudaV9N2Wa+T1tzpOa9jsV6ra61yIP1mAdcRsi1nZLN9q7uccJ3CwOa+Zi5b+ZrSV6/TPObfY6/za6svoo2lr6/pz+qGl07s+P7Muat315IUn9lvQ+FHFSTPAtEP6glpf0ywIrHAaNlRj2uvC5sAkjFYR0xjjrgPw5JsjnfCtNp7tfVyw6uKk1q+ryYZ+qxgxmnA/NHCEZQAADxtJREFUr/pq2GDjrbou+rAaw17XiFN3nsZ+2twwToJ/Vy5Erq9vaHOvXjrt9HOWjQ/7fs182bjmmA55wxYn6WtydYG8zLzKQ0Ebhrerg7pvt68q/9XXhbm5Y6zRCG2zRja/Vr7KTHv0kNvyGp9IrlwTZnLyqicn1R2hVsfJ2SpppHPle54pWJ07TGVTZsSRxgvJQH4X0A3wun93MalsbSSR1lw5v8vXR1zfPC3bqPsSBynxBa32BX9PjETmor/eWAjxJv/o9wZx+rRaOOeitxiv//49/PW//0puqLR1znmNG5wQO9VG2LO3Xiv8mBIx1tKx5ZX/sT+5zrWufYLzLZ9UvKe/H6jzU9l7jL6sc1aVM7MPxB7F1X2l7VoXpRCp7VL7pCfw5eYi4opsat+nPCCenrY0eMb5HGLTiv1Jj33rixPvazjhnE3AMfjjTyLGr+zozVZdPASD08YnX9cK3Cim/FUgO3ZeSNIYk82NX4lJySWPqZNY7ovXHkFtbeMm/Ssmo6123ua6ueIka75+tbGyFCPewp6/j70YC0fE6dPq4Xy5J2hLbNqquLA5VSzyVduT+VXHjY0zu4YsrDEVB93fFLNeu64C6XzauIZ/g09aPEwuqn8NLu1FquvNHsXV84J/s3at/6qxkp+MrZP/cz+8lhsaN2YR10MRn0YP6/LCc8SlivUQA629+Hoeq4oTZciNhcPY650LM5ihATSABtAAGkADaAAN3JMGKE4osg67U3FPgYKtJHY0gAbQABpAA2gADVxfAxQnFCcUJ2gADaABNIAG0AAaQANo4BQaoDhBiKcQIncirn8nAsYwRgNoAA2gATSABs6uAYoTihOKEzSABtAAGkADaAANoAE0cAoNUJwgxFMI8exVPPZxpwkNoAE0gAbQABpAA9fXAMUJxQnFCRpAA2gADaABNIAG0AAaOIUGKE4Q4imEyJ2I69+JgDGM0QAaQANoAA2ggbNrgOKE4oTiBA2gATSABtAAGkADaAANnEIDFCcI8RRCPHsVj33caUIDaAANoAE0gAbQwPU1QHFCcUJxggbQABpAA2gADaABNIAGTqEBihOEeAohcifi+nciYAxjNIAG0AAaQANo4OwaoDihOKE4QQNoAA2gATSABtAAGkADp9AAxQlCPIUQz17FYx93mtAAGkADaAANoAE0cH0N/DbwHwQgAAEIQAACEIAABCAAgRMQoDg5gRMwAQIQgAAEIAABCEAAAhAYBooTVAABCEAAAhCAAAQgAAEInIIAxckp3IAREIAABCAAAQhAAAIQgADFCRqAAAQgAAEIQAACEIAABE5BgOLkFG7ACAhAAAIQgAAEIAABCECA4gQNQAACEIAABCAAAQhAAAKnIEBxcgo3YAQEIAABCEAAAhCAAAQgQHGCBiAAAQhAAAIQgAAEIACBUxCgODmFGzACAhCAAAQgAAEIQAACEKA4QQMQgAAEIAABCEAAAhCAwCkIUJycwg0YAQEIQAACEIAABCAAAQhQnKABCEAAAhCAAAQgAAEIQOAUBChOTuEGjIAABCAAAQhAAAIQgAAEKE7QAAQgAAEIQAACEIAABCBwCgKri5OPLy/Dy4v8/234WJrK97fh5ctiq9jLj/fhVfbfuO7n11dlx9t33wht7+vw/sNr9zG8yTE/vw8/vWacuxKBn8P751FTHVq6kgVn63bUbUvTxdaRW0vTw9Cn/dJbPOqMhUPi1NrK+6MI6Pzb0KDVyD3F95Lt1edyTXwZXswaomPxZXj96q8wul2D61FOP3LcuT2E9UVjzzBnftazl3P7fLJv3pyzlc+uRMDoyI1R04Y9i/TF/H5Etuw5XlmcfAxvKvCXN5VTYKvrGqYlx5cEkQLeXBsTidjIjonrpd7MhbHFIhGvswk/jlGEmOYkrmtYy+m9CCT/Eegj0LLIlThwQE9J0up5bOtoODD22sq+O2PhkDiVdnJ8JIEqj3r5N2hE6m15rThyTmrsi2yPMSRjN6xDcg1LvMqaE0fvW6+UpU/xZnYPUWkv6UzyXqTUzrl9Ptk3by6aS4P9CaQ1rcRk0oTU0UV5YX+TT9Vj4vfyInP+ZRauLE6cwZJRMhmPrfKdiOkpi3Sy0814qkri48lqU1Un/+laWVBUQhpb1Ykr2CmvG5s15jR+xH97E8iblmd/ciI5xLuwNqYi+bKQxthykkGIGVG8J5e58SXc2RsLbj9XjlNhJoeHErAbsWiM3cQNPz6GD/uU+l7y6gW2VxzGde17/a2Bql3nenWo6288+PIeIubMsqFMBros28bLcVTOdfvZvofoy5ttO/nkegSqeByHsmvaBXnhepYf3XPHfmSjiZcXJ+lOrwpqU2i4QVkZ7Bcd+U7ylIAaGy8rJHejNRVNeePWSG5OEVOZy4l9CIz+/Pw+fISv6WW/7NP1ffUi9S+PzSzkgimPRTM30Y6ft2InXNsbCy3b4vnrxKmYHIfHEgiaq59St/KtNtZoRH948nc9trdio55a3BCXfNfiZ9vVPT3uGblvkMfTjBtazDchp1w0XeAdjD57Hd6/x6+Ty31Mn092zpueiZy7MoG64AwDNtZXbUxPXtBXPNQ7yUge7zDJy4uTDoPcxGKNt1Xq9LkWTnPjFezIi6a+ZupqPJDjqGtUq/gUxz5R0U14dzGBspg/8yJcYyxc6s/EmUbsNWNEal90Ew57Y6HZh465pg1qHH2NMqk5jmrFm5sT8BfjrhyfbmT1bRpvPrGFAf15y4vW5DDdljiQHL1jV18ql8irZnjKZvImatXXTB8yN1XXlQFUDpTXlCbutznUx7y5CQHlqzxi8Fm5gZBP69flvKDbP/C7EAvONzk2TvnC4qTPMW5isQbPCEFeL491F9GWeOcjJhZ3EZQA5bHuLH4tjeLEUNn3rfSlXqz3Hef+epNanrG+od8Wy3i+kTwafY2jh+tyLBwRpzMI+Oj2BCodNTdexrbeduayU7xdtL1vLYxzsRvfzvXqFCCOMUKuFcWCFvN4fvFHeGQuC/kv39wcR+j0yc55s8yNo5sSSP4ve8aWtoxVi3nBtH/ktzOxsGXa64uT5MTm990dK/zEYhrKRGE+CtenzVG7LymmpcSSktAMzNYGz5jG260EjL/hLUFGLcuvGMhPp+OmftPinAuK8YKx7efX4bX1B2vNvvLfj6U7SMZvky35LuQ14lQOwvEpCMR4zb9Q1Sh4paVBX+1fqZJNT3fcY/tMXNj5hDVM/XJZ53plO3qi9611P+tQ5sqPL6/D6/jrj7N/52pybPJx6afTJzvnzSdy6fmmmjSQ/066FCoNU3vyQuPShzw9Ewtb5ru+OFGjxABe+gv9VmJRXc0kd3m9PFbXq799WUosaTGdgRmSntzc6cF4dwmBFNRlITAb4Ev6fohrzcLZmtOMfvPfauVEG37adK79zGcqFo6I09b8OX8AgZTz1cYvFcPqXDEtbyDnN4ul/ZmOem1vr0tyNolTdYOgc72SXT3Z8RzfyUfpnwMY15W59vmpiNJjtSZ1+mTnvPlkbj3NdKOG9Fe4gobUTYRi7qS5Rs4rLZ/oaCYWtlC4sDgZh/QWK23KfKJIbcOmx7sDp/sPfXlFg0ou+hpljRxHXaNa8TcnGseO73zfeMlhx0HvrKs9ihNnyjOFxdwv1KmYk/GjhtB+VdfIdirm9DWymfrbMPUBb44k0IzThi6CDpyfeT9yDr1jd9uuNN3oPbWx//5JbE0cNKhNp4MvujeCkWfrzrer4cqHnT6prptM1nuIRnz07J9KjxxdhUDTh3EdtjrqzgtXMfbEnQaO3h5+m807FCfpLoVXMCSbuhJLp0DcxDKOY4I/jOnYpK/3xUfC2CamrquCn/LXQRqv3YtQ14h32Og6xcl8HHbGwiFxeocufFCTW3k1P6krT0PT5q56SnAPYFbaHnKavuuqZplz3kxea3HV65Xq9anezOcug2J2kxTz3PREWf7jy9Nx9GWfT/bNm2YmvL0FAbN3lENq3a3MC7KjZziejbv1AHYoTmbuMCR7tINbRjb6scJpbI6qRGKvC8PWY1TXje0aY7Qs5/zlBFiEJcMrFCcdmu6LhTqGguU23hrjVWPY60JnjTEkIo4PIdCMU+tH+/4QazcOutL2oOlm4dGpZXfMzms3TvOeLptnrGdS5Rj9sf/Oy1edPnHHq/pr+NIdwzeRs1ciUPkqj2MKT3yVwfivgeNBT07GhancGYv2hcBsfC8vz8BPLClY5dON4Hz5ixlGHKnDakxXNHX/7sKahFke3TWSSJ4Mr1ch4PrmKiPdQ6eXFicfw5vaLMX+1Hes869wyTvbvbFwRJzeg9uewkZPS+mcyOV+zr8PQOtsj3Mv64eZY/eC3bleme6f5W3LJz+/vg3v4h/7jOuI3SB5mjXkUu7T+5tOn+ycN41lvL0BgWpPmX/gRayPLQ3ewLz7GKI71/VNZ92TkxSE6pGoWJBaQ/pOrQM/XJ82PnmMVtKPYspfC7LJKFuSxjCPa/On06udl9rYTa04uCIBihMJNy6meqGUn6fjZjJIi/Gke1nwl37chbw3Fo6I02I6R4cSsHm1/hUunZ9zns6vM1+BOnRecfBVtqd4acaqjScRk+Map9c3y/XcnG7pKn8PkX9IJevqJfyDvj8rw7YWJ2NHnT6xfm7tITrzZjUFTlydQFwP21palReubu0JBwgx0NqLr7d3XXGyvn+ugAAEIAABCEAAAhCAAAQg0EWA4qQLE40gAAEIQAACEIAABCAAgWsToDi5NmH6hwAEIAABCEAAAhCAAAS6CFCcdGGiEQQgAAEIQAACEIAABCBwbQIUJ9cmTP8QgAAEIAABCEAAAhCAQBcBipMuTDSCAAQgAAEIQAACEIAABK5NgOLk2oTpHwIQgAAEIAABCEAAAhDoIkBx0oWJRhCAAAQgAAEIQAACEIDAtQlQnFybMP1DAAIQgAAEIAABCEAAAl0EKE66MNEIAhCAAAQgAAEIQAACELg2AYqTaxOmfwhAAAIQgAAEIAABCECgiwDFSRcmGkEAAhCAAAQgAAEIQAAC1yZAcXJtwvQPAQhAAAIQgAAEIAABCHQRoDjpwkQjCEAAAhCAAAQgAAEIQODaBChOrk2Y/iEAAQhAAAIQgAAEIACBLgIUJ12YaAQBCEAAAhCAAAQgAAEIXJvA/wdeOjfWi+xz3gAAAABJRU5ErkJggg==;" parent="1" vertex="1">
          <mxGeometry x="590.23" y="100" width="677.88" height="210" as="geometry" />
        </mxCell>
        <mxCell id="JxcuIvw0Jv6S8uEPPxHX-13" style="edgeStyle=orthogonalEdgeStyle;rounded=0;orthogonalLoop=1;jettySize=auto;html=1;" parent="1" source="JxcuIvw0Jv6S8uEPPxHX-10" target="JxcuIvw0Jv6S8uEPPxHX-12" edge="1">
          <mxGeometry relative="1" as="geometry" />
        </mxCell>
        <mxCell id="JxcuIvw0Jv6S8uEPPxHX-16" style="edgeStyle=orthogonalEdgeStyle;rounded=0;orthogonalLoop=1;jettySize=auto;html=1;" parent="1" source="JxcuIvw0Jv6S8uEPPxHX-10" target="jYoHbaH1N5Su-d7ojsiI-30" edge="1">
          <mxGeometry relative="1" as="geometry" />
        </mxCell>
        <mxCell id="JxcuIvw0Jv6S8uEPPxHX-10" value="&lt;font style=&quot;font-size: 29px;&quot;&gt;&lt;b&gt;One-hot Encoding&lt;/b&gt;&lt;/font&gt;" style="rounded=1;whiteSpace=wrap;html=1;rotation=0;align=center;" parent="1" vertex="1">
          <mxGeometry x="263.52050028574024" y="480" width="255.92326139088732" height="70" as="geometry" />
        </mxCell>
        <mxCell id="JxcuIvw0Jv6S8uEPPxHX-11" value="" style="group" parent="1" vertex="1" connectable="0">
          <mxGeometry x="590.23" y="310" width="677.81" height="210" as="geometry" />
        </mxCell>
        <mxCell id="JxcuIvw0Jv6S8uEPPxHX-5" value="" style="shape=image;verticalLabelPosition=bottom;labelBackgroundColor=default;verticalAlign=top;aspect=fixed;imageAspect=0;image=data:image/png,iVBORw0KGgoAAAANSUhEUgAAAyYAAAD5CAYAAADStyFVAAAgAElEQVR4Ae2dva7jRvK391Lm3JuBHcC3YjgYzFV4o3H+D2ez4/TNFnBkYPKJ+YL9wa6qriJbEiVSR88CXvGjP6qf+lV1Nymd+dfE/yAAAQhAAAIQgAAEIAABCBxM4F8H90/3EIAABCAAAQhAAAIQgAAEJjYmiAACEIAABCAAAQhAAAIQOJwAG5PDXYABEIAABCAAAQhAAAIQgAAbEzQAAQhAAAIQgAAEIAABCBxOgI3J4S7AAAhAAAIQgAAEIAABCECAjQkagAAEIAABCEAAAhCAAAQOJ8DG5HAXRAb8mL79+ja9vc3/fZ3ea7G/vpZrn6dv/9SLt3/++PNzafdt+vrX7e2dpQV3XHdiuIx5af9t+vznj+UyB48g8D59TTHzNr39+m2C/iOYf4w+3r+UfHulbtxc8zHQ7DSKE8fmP9+mzyVvfKT5byfHrTQTrFNWarRbJ9ZDM/KJj4RvviwryIvGc2tOvKgzUZiNiYBxrkMhKrExWYTytu+i96NOqt647sVw0Q8bkwXF4w+Y7B7P/CP0KHTzdt1DHy/XfAQy+41BML5y87efLbol6bu3KxdxusVXOfPXKWOjP68exuw/eSmx2VYPt4fNFv65MicOd2UKsjExQM5zGgT8sui9bvKMxicT80d6YuSO604MF7ZL+/tuHpf2n/2gJMz7vE0SyfRki59nd9tHt395YHGlbtxcswqtaPVlFsLniM3sJzN/ikXcR5r/VuW3y81gnTLU9jn0MGTqUxYSvrkyx9yaE6/FxsbkWnJ3rydEJd6Y3KvbyyfVe1myb7uHjIuNSezEu7Nhsovhc+eeBC7KNWIh/DpP6I+PzWWh9eAnwPfU3bFt37JOOV4Px7Kj94gAG5OIzOHXbwn4y42/aFK9vPnDahwyrrsvvg/DeXvHd2fDZHe7k2jhGgIX5Ro2Jof8/ouNyTXKXqtzyzqFXL1G9pXvPXhjYkUshDn/8Ky8bpIJ/s0+2TALG13W++G27LP8kNy0cR8BmLHN4/v12/T/xI/M9VdZpJ3zj93tebZSjre+crbXWvKdx2teWadmjG2/fpvehV213cpFt9f8VCzSP9Jf2LYf7Hf13zw/1d5u+Rwbl+VVe5TX8x8dEF/FWsaVr9myipkpW9v3OETf/bTtz/aoPiYz1rX781dT5EJI/D5J29R8Vm2eP3WZDf9bu5avxUg9lx8Zlx+b6jiQPV9zLLisjFu1bNgk3y9215K63SVelnLifhlX59uuHxObRjdWA9r/xa6uTfujf8F9sXWaJllPvOZvvpZa6MembRH3ZS6R/VWMV35u2iX6atw039ZG0Z8Y9xTk22Su8Musjc9/vuucV8bU+s2xqvtrPPV1EQvKnitBiWrSnprP/PlgriR8WPUrmKZmDYfMQv55ib6NNZ3Iml7/qq7oW/KvucNn2pgrvdfxpc+iEdW+tszjWPtdcJv6to4ay1LpxoPVPqv2jU9cjZkyiYtgJ80Ufa7FQq7St6s5iPtWa0ufIn/ZtUyQwyz77o+gyHpCC9qn2rY+3y8G3u/As7PjtGanvqdUPeRHyb7pQfKd/aljr+ruNiwHbkxEQpbi+LX9daglmUpnGKBLGdFGE79wjLgv62gx3gZzqR3ZOI9Dik2OS1zPNo2JYu5TCkWObTkO+lnuGzZD/JY2pZ3Sp7OQo3t2kb2Qu/5A8Nsal+RVx6qDq41j0UfkU8GutjWJskv9FRZ6ATvATLRvx9r629L+5+nz8lff2njrw4HsiJU2Nv3f2uz13O7N9jebr3d/q7lic/HV4qfN2JFJNmh35hBqz0/m1meLPSt+rXWWshfY3rTdxiNjoOlPaK8uYFZsan5bYdMcc9ORtHdhoGxrY1vGu2g0sG/Ww1JGjF18dVb2W32gP8d8nOqUvhb7RO5I9yvzm0i1ymE/doGnOIrYXNjYxUcrs2ggakPFt/CDaFvmS81W5Iag/a3csmg7jNGiG9H+MqbVnC21M01rY8hjajppHrrxSNhsuaXzXz8vf2lM3l/iZ+5+ow1Z9pJYWGu38Q30YLDIfltdue6psS9juGm0478y5ta+sE3GqdStsXPPUzlm6bt8XMc797hmp7gn7F5ve+ZWtSp51muSu2VczkVf1zI5dGNSRaBBVegSSr1mAym4XsCodpekL9sVie9agraeSoDCvllCf+Y/X9omjHa/2VqvSTt9UdSk0erKZClEKSai1rccuyzbNg2tbOtfPnnK/Us7zdN0yWLhn31Ybbf4rj1vtm6PS/LKdojxy6D659v0tf65X5XMqo+MHmtdUbZq3B2XKFd5yHGoTcI/36Zv6c84C1sF0zam6itRTrxNUe0vCUiWrfXlYqRd2/L/Ml4xtrb407yWsi6cay/KsTQtNz5Co1KfCwvzNqH61EwA0nbZdvXjbP37l8JN9CPrLb6ofUhmImbVJF/LijbbRBLYLtqt9i19p0m36rmx6+LiAq3JMV7rxa6eGG9tX3KfJ+xsc8tHtVwb66iOa7nGQ71pEDwle2VP9ZPSTeVs/CTYduPe84LDUMazGqOYr/xxzYa9T99SfhScxFhaPYenx2etrmIuOEZ8RPmq+WRx/ZPQMr7mG6J81U2zX+QM80CglpX1myaaFps+I4OvuC5sbn0KX8yxXZnKsvVapE113fGdZCfbXXKosGHpSy5onTYXPXgcRHtLOcG2XGv+kvpodRdfdV30bdkFf1y3a+z2CyJOm19Nzlg4tPHNGtN2intuecHJ9aPgsvhW+nF7vXktjAM3JlWcBrgrZB+gdoKFaM8FIuEE3YYoc+VhCw4rEtFg17+wdRm/uBaIoiZc2We9NvfWX/eEmu1aLSufGIjjzE7aKfyUmhX9qQWQYLHLoehnCcBoXB4XOYa865ccU0udz6rhsm7RdFh2riPLtycOmaUYh/B57cnakZ+etDbyefWBaEsyCWzrF2+ivvC57LP3v4hpNU5xPehfjfGmE2G3HLdM9iXGes23jhsPh6f1jRhT4iP7NXEo+bXjLd1IzeSy19qudPbr1+lreWuWri+MenuarVJvA2wa0huPBIPkv3r+dfpaF5vpevW/Z5u0vR2HOhZ+zWXqEGrfcxtN25FPei3Fc17tYc/P1n8bc12wSpv1GKsFcqyVab1XPgWnYZ3UGBmtK8stc6SxQ+WcNlY5rsbCjEW0H+ph6a5qTCzMuvo9G2nH0tQtB0Gf/hiFzZVfUH82SeoizYVhWamPG/JG1UPAoxvTkqv6BxK+BsUmrfYhxtTq1HgWvESM16r3/OzYi846Du4mslYQY6h8xZi1Hh0/qniqXBxtlO7W7K4WjX4+ycakis9/spEHa8Hac4EkdI4oc+XhmHOEbbNguiCbOxdlRGB47XvXUgvd70YcoZZx9m2IssHCNE9uvp0LPsG6Bb+ZFJbC1x4IW2sAhuMKAkv4oNl5je4ijQobHZ45SYgyZhwLGZdnm4Rn2/OmKmhL1JeJaT3h6fYXPmqBOJdpySvSr3yyKPtfxnfzQTBu6d8yMfeab52v8nB808oLVqWc7GdhpzRQ4iHwjcdStmk30c2WGmciRmebKosv7+37wTOT2n8dXz1XtorxbWmt4dzlqI1r1lnxs/1NSx3bokWhh2gckY7F+LVWBc+lnyCvpDdnlVn1xyM2JtLG2r/4HIiB7DTZjoxv4VLBydf3Sk4arSvKaV/Mdqz7WJZvGhK+mJvo2l8bt+jPiRXZX9+u4HbrYWdzbtAf4wU2331jsqKHiMkS1/mBb8t/VZPSX0LnMuaH8nFtz+EV2bbz9Ta2yql10Pt2zU7nXqAZb47xr8V5bs3uNoKxow+0MbFOkEKtYitQQueMQVsrNeqcVu7r9L7YI+307W/1mmi9a7ON/XXLqI3kkrKtVurF/SGoLmMm4jlZ1ITeFbzmwiXj8rjIPkVbKakVnyw+sm/CRPk6Jqes5LtMXCbZqgm2tiVNm4+dtm2RfO7YtVL/soQne/R1GiW1cftlH5ccB+MWrL2nxduL+6BdY5r087xIm30tr9l+VPXQt33fa232vpSa/zp9Kw8ski21z1+/Td/Km4dFn/Ve9xUBZbVeGEa6tVWuOV/s+Tx9+/PrVPm2ryO1sVUfD8VUssXR8dKfjXmnrJtv8yA9fzSbnSe517CxdYTtLos7bUwW7Vh70nmv4+F8IMZj+5CxsNwT8b5cizaJs21d+76P87AuGEfXrgvmuotB267e5OatxmhQfzZGMlV5ossFDqeVdvVAHY66gDgT/dgHKqmUuC8eFogGyqHoU5RrzOoaTJSrvPrG7nKlYy96aXbWjfWanc690DceP++ao41i35rdYghDh0+9MZFPaCWUmoibE+XEIpzVBdkQs/VCIiHq7+z+mL59yb8xyQ1oO5ZJdml9XBRy7HLh01+XbbaNjZokl6eg8jcGkt9soByLbLMGdRnEzKJMgPnKStll3NccyHa3x9VzeZ++muTTtFMSgAjoLd31k5xk2RhJO+rk2fo1C5a/vvZvQuR3fWds8jcx3kQ0lxHjqH3Ol1u/NeHJa9f4X/qkjVn2X+P0Go/HdURcSZ/KuKyalNeissv1oN0yicu4U/E09yX7EZNhGsPiV+2bTY3JNhcbzQMA93r9owfFJ0s79Xrzv1rUX6O12ElX3mk++Jz+SEq1tV6vYxA5QGn7Qh0vbOYnsE3DMm6j61IPXmwpTUg/XUnGVms2VkZGX14MKB+3HN/aMg+UlnxT+c+cRH+zUUuZ+USUW8Ysrq3VDfJWarV+lS/wkZ/ntEZkXqrl5bjrtbk/93pkX3R9bujW/wVtu3rbZN/0rfxUmV4UC4M+dW1agSLGm9/Maa1Jv9i5Zf33ftLeykFcW7S6YtuetyRr2bd7fc1O555so/rWaLrlNH8Ol5xlnouuX4PmyTcm3iu7KiwzSctXeuJYJpxrAHp1pINyABU7pcjMhNkl9Lt8lctMToKDtHMRmxKxYb2MxRdv4rJWv06MHsBrrnVJy9grNlzSP3msIoAtkzrOzfaF7kTZqi/Zp2Rdj2s5PSnoMVS/rLXltlPHMHN1bJsvu5PZmv+WNiP/B9edNpvN1zje1hG+XGw0uUBob42ljsmg3S6p+z5rfPX92f/Vr9I3VRf6U2hso19te/Lw9FVqe2Ej/WQWnht9NL/FbKx3bjs3toqJVfPVnNQmQDKYj10Orb5ut/ddm8T1gnXxaRRbclFWbRK6vI2TjnOtoTIG0VcYAy4bzaBqIGxDPfzzdTJUN8hbM6e1+vPYq41+2bK4ddu3etNjb9rRvGV/MqbV9ZsdHPfZNCsX7j57aZ+nE1/HhkPVr4jHNZ80DoFNIRtRXsVurWDuL3bN9taYXisTlFvioPZz/881fjq3i/F0dvr3mj62/Cj1X/npeJP6kDbL69fQeuqNifx75jmoGrwFhl0Izc5zk9BSY58D2+8cJGIySJ3IMp2oxkURCSK63k3UX95VcteiknY0Ibcy8r7hL8cnkkSruw/qpRXbXzCunosIYGFnS6B2EpD/joFMZsWSQF8qIcz+FvaqvtRipjKXk4xZaC82S/5iTFJbm7aZftQGudoiFtPqvux/RRfCBrtwWHx59UEwbsF6NQ4rS8ks2RK0Gy6MJIteF8siQPYjuAzltrlZOa7Q9ty/1J/Um4yHjk3UxzLRzwViNrnn/f4/tFWwUwvGpWupx0t0LDftud7Xv2Rbzc/SNpnjGncTW9Z3dn5YbL/uQNqTF2bCT7Yva8usJVNGt1dZCNu8NkZ1slVX+Fdqt/beGJfNpmjPlldl61ualfa9cds25QJf3Vtpt9p+9WfQdhuf1Jvwvcw5qXNxr+YQ5bdmoWURxUKqIXyw5DvVrui3s6n1KY9k/4qzKNTG3+JclTV2zbHa6tR4vtw2YcI+h8bOxLDjtGZnfK+Nt8axl9O8ax9yY7KDv4JgvKRlKW45gVzSxi5lxVgOtWOXwXzwRoSvVJL74MNmeA8kgMYeCPuWruIJ/5ZWqQsBCKwTaAvquoFYL8/dUQLnymkPfmMyCmml3EWTd//bAflko73eW+nvbrf83ejduqPh2whcpLvbuqL2ixJAY6dz/PwQSz80knlbf03odMZjEAQ+EgH5BsG8zftIw7z3WJ4hp338jcnyarK91suvFeVrzntLQbQvg6vYpic+UZbD8xBg0XgeX3xUS9DY6Twr3663r6OUuYTF0en8hUEfj0Afg7wtucXLPU+xNj5JTnvNjcmR8M3GhE3JLSH2wLosGh8I+0W7QmOnc7w/iR/0UOt0dDAIAvcnoGOQTcmtxDXPuik5V057vo3JrV6hPgQgAAEIQAACEIAABCBwOgJsTE7nEgyCAAQgAAEIQAACEIDA6xFgY/J6PmfEEIAABCAAAQhAAAIQOB0BNiancwkGQQACEIAABCAAAQhA4PUIsDF5PZ8zYghAAAIQgAAEIAABCJyOABuT07kEgyAAAQhAAAIQgAAEIPB6BNiYvJ7PGTEEIAABCEAAAhCAAAROR4CNyelcgkEQgAAEIAABCEAAAhB4PQJsTF7P54wYAhCAAAQgAAEIQAACpyPAxuR0LsEgCEAAAhCAAAQgAAEIvB6Bf/3f//3fxH8wQANoAA2gATSABtAAGkADaOBIDfDG5PU2o4wYAhCAAAQgAAEIQAACpyPAxuR0LsEgCEAAAhCAAAQgAAEIvB4BNiav53NGDAEIQAACEIAABCAAgdMRYGNyOpdgEAQgAAEIQAACEIAABF6PABuT1/M5I4YABCAAAQhAAAIQgMDpCLAxOZ1LMAgCEIAABCAAAQhAAAKvR4CNyev5nBFDAAIQgAAEIAABCEDgdATYmJzOJRgEAQhAAAIQgAAEIACB1yPAxuT1fM6IIQABCEAAAhCAAAQgcDoCbExO5xIMggAEIAABCEAAAhCAwOsRYGPyej5nxBCAAAQgAAEIQAACEDgdATYmp3MJBkEAAhCAAAQgAAEIQOD1CLAxeT2fM2IIQAACEIAABCAAAQicjgAbk9O5BIMgAAEIQAACEIAABCDwegTYmLyezxkxBCAAAQhAAAIQgAAETkcg2Ji8T1/f3qa35b/P07d/pO0/pm+/yvv22JaXdadp+ufb9Hlp+216+/JuCuTTH39+Fja8TV//cotN719k/1HfZky/fpt++M1x9S4Eqma+Tr6379LpqRuddRtpWhpe48ArW+/VWPXKyLby8WAsHBKnvbVcOYaA1laUV4uiVA5+mz7/+QTZ1er7zeSm7r6cZ96mNzuH/PVVzVcRg7H56hifH9rrzM9dC5h8tawdjL8i4zs/9vXGfGLssP6v/dv+3DHVwnw+lIDxjRujpsybzQsPNfjazrJW3fGlJvP9fr1gNJ5iLc79NW76dq61O9dzNia9wbnz2DhpQiq7FojF6W0gBYSpkydFkUBK0m/1cq+pP5Egcj1ra+6jOakskkU9OQaO70BgmbSFT+/QzXM02YLf6rm3Py47GiO6zcFYOCROtaWcHUegy6NB/p2mJ82lSd9ynrjkwUmOIRm7Ha/Jxln25dh8dZzfj+o5rzGih5Q972E7Q922FsZ8Yv0Z6H4wb7beOXoYgeKbtg7MPlWb4ZvywsNGMtCR1aut4sRUECvvX2SelO3MbXyePs8vKcz6XZa65tjdmLx3bya2Blm6TgOLBpHLpCRgB9HVc6BNU34zIjcTnYjmPkrCEH2kSUPWm4t1CaSMgY87EKiT/vzE8ZU3JpJDfvoqFzce+Lzg8coOxohpdDQWjohTYyqnhxHw871dwM3medcOM/uSjv95n97VtwDG54R+zH4sTmleE/lucL66ZBjPXlbmt/TWV8zbbWwB31bAPxqZ4wd9sm/e9M3l6n0J9HE7TTlGxZr1hrxwX+svbd3P4a0VG1P9urmVDY7m/Davq22eC4pfctnZmHjVx4xOjncTS23TwtDXl51sNNB0vYnITRbz1iR9BaxOCNn2pe3apbOBWW5xsC+BIuB35Zd9u3iO1qT+5XFk/Vzm8/Ttr/zVR7WJGYwR3fJoLES25etLLA3aMBan2lLODiQQLOh6P0Y6OdD2m7o2+nbbcsZs5qVWTZft+eWSer5qtV/hSK4Z5LEau7t5UCXck4i3LByV0T7ZOW9KAzh+EIFgDTukrZG88KBhDHezZbPOTVPwhjfuTsaEbSuuNXpnv41JMJkpQ8IErkXj7mznhlQfuk7Yj6qjSj3v0z49jJOfNdHqZH9ys+9uXuMSdbVM1I6Gx2LEtOy0U0uo9o6I02oInycgkLW5bECLRYseq4XRxrTef7pPf9xyGG4OC+NFtjc4X8nOXuy401cdf8pb7YFkvbz+KRdOUclBn+ycNyNruH5fAmqOq10N5TAZx7Xi2T+3bM735cPOxGf0Gy0mJl22NyAa25isBGbte8iwFRGk+uVtizyu7edPCXMl8Uho8lg3lt+s2K94mTKc3kZA+tKd1G9r/olrSy07w5Cx4sSf5Kprr7Q7Gguyb9143szfI05NP5weSyDHqlgMJk2I8/pmes6fRZ/1DzDs/X3jh5Fwxqj7zrFlN2z6gZmoUbjk8oPzlaj+aodhTkt+MX94YPWbGTO5lgdTu8sP5qWGB32yc958Nb+eZrwqHptGuni2Bm/mBVvhDOdBrlpMa/GxXCoxM+fxLSZpfpBr550ZDWxM8gDWJxtvkG24y1Eyvn7FarmaDlLyKAMNE5R63bSVVMpfPNpKKqM7RG0uZyMEjL/ZmEhoazFj7pWE2j3dcCfnXNdNLKOxYPymrJ7/+tI94lR2wvEpCOR4rQtCuaDL5i0LPjlBFa2uzxenGJ42otjtxk0tuRUX89cul9+tzPNT/mFobnNwvqp9veBnPO8bGFVjUnemSN0szousLm8ufhr0yc5505rK+QMJVO2UjepqvM9mjeSFB5o/3tXKOiA1YtYYouElr4cbFC9utvoTHQwcrm9MUiJuC5GwvZWEreqslJNJSR6r+uIpSP2RuyssmUjksW6MNyaGx66nJaDlpMDGRBKOEkMOerWwc1iOxYjsryZZuXhq99UTkCPitJnC0eEEHA3Wp2liM5wnsF5POc7764cPKzBg2YCJsXlF45jLpTMPuZGTE7g8Nq2vzFGm5Ic+3eKrBu/kRO++yqOpQM67+fqgT1b8c03eVHZy8jACOc71g/Ecs/paNWg0L9Ty5/rc2ihE6482iiWf2byY1gd9fk/l1x4WtKY3j8KNSXWKu/BXzXqTmCrQToIB1U1GTSLhAFUyWulX9qPqNFPmo7AfXYyziwn4vvESw8VNf5gKfmJwGTkaDrXrlF2QrdxT7cn4WSrPB9qvqo4sp/rRdWSx7i+iqJucHEXA1eBsjNHFmP+PGsVYv2kM5qm6W1Np2i3hXJQxThw4gNSl5Au7CFIl5MnGwmvFX023gz4ZaquPj2btSj+tEEf3JBD60NfRcF64p803te2PqzUpc1O72h2lnO+9dawPYPpP+TC6a2/wgrsxucwpgwOcDRoUx60To64fOYhkMaiRy4sVMS/fOV++3ytEPDwBXd79c9Tw4iZfW+VWvnqoNS5GbBaP4s7yvev+YYOJhUPiVFvK2XEE2sLN2qA1G2ow6ad/omZbO/a8aH75Ws+GNSmu/CerYU1TJ+Iacgwb/pg3Ep/heSGa1yub+L7sZ8wnUVvX5c1qIZ8PJLAyL0o9LA/fRvPCA4dwWVdGm7bycI627USxMHeQ79UXDLbLS877jUm4KAmaNck3KFUu20GWy1Y0gQ1dErH1UnN9H129uVzQR7GIjzsQYAKWUHMQDz1d8LTqXRt4CzgWC30MJcttvI3aYOulxoI+JCKODyEQxqn1Y+D/sP4howk6tWMJitXLevFSr659Ovp2+3TKrTX7ge9dxNhlqeG4uU79TjV6y9H7xG2r039fL1k0YKu2nLPdCXS+qj2YhfYH8tVaHk73hr52lTW9PMzc4LPWZyU+8tltTMYNzs27Abv0XAJVAkgDk6+GjDBK3dSu/GG6C6Rv3wVTRLnANV9JWczl4K4EXN/ctcczN37jxqRuQjZiJDMXT69HY+GIOD2zu17KtqxN/eSrXJO5vP5lLqnBTl/nBJfml92ezs9fC9ZvU7r5K2EYnK/OiezuVkU++fHnV/FHBdpDRVefyqf92qL3y6BPOl2Xeqq/utHZXt/cHSYddAR635ev84u3I5EGu8ae4oKfs/NXcqVG58HMZXUOS1fnP3azXO9jpcNQ4mTogWtXuV3wNybeV2/SNbHASW0Ewbm0HwykLHrqV1bahmGpmA6ykOrXf2zftWzpY7G5h5tKFmC1T53Ualt83pMAGxNJNyeNoQBeCfatGOk2JrMJo7FwRJxKRBwfSMDm1fhPSGaN1TxtJ7wDh7DStY6bZnueH8wcshJ/tYuuPbtgrQXrQ7Gt+Wop/zoHiaHDzepr9lGfN8sirKtfrlfeZmOd6VqtG/9XF+ycN2uzfD6OQKclo4cujqtu0megi8eZf0VPVttyoyGbM3FSxy35FP1H6/XcWulP1pPdDB53G5PBehSDAAQgAAEIQAACEIAABCCwGwE2JruhpCEIQAACEIAABCAAAQhA4FoCbEyuJUc9CEAAAhCAAAQgAAEIQGA3AmxMdkNJQxCAAAQgAAEIQAACEIDAtQTYmFxLjnoQgAAEIAABCEAAAhCAwG4E2JjshpKGIAABCEAAAhCAAAQgAIFrCbAxuZYc9SAAAQhAAAIQgAAEIACB3QiwMdkNJQ1BAAIQgAAEIAABCEAAAtcSYGNyLTnqQQACEIAABCAAAQhAAAK7EWBjshtKGoIABCAAAQhAAAIQgAAEriXAxuRactSDAAQgAAEIQAACEIAABHYjwMZkN5Q0BAEIQAACEIAABCAAAQhcS4CNybXkqAcBCEAAAhCAAAQgAAEI7EaAjcluKGkIAhCAAAQgAAEIQAACELiWwL9+/vw58R8M0AAaQANoAA2gATSABtAAGjhSA2xM2JixMS/vgPUAACAASURBVEUDaAANoAE0gAbQABpAA4drgI0JIjxchEfuzOmbJ0NoAA2gATSABtAAGjiHBtiYsDFhY4IG0AAaQANoAA2gATSABg7XABsTRHi4CHlKcY6nFPgBP6ABNIAG0AAaQANHaoCNCRsTNiZoAA2gATSABtAAGkADaOBwDbAxQYSHi/DInTl982QIDaABNIAG0AAaQAPn0AAbEzYmbEzQABpAA2gADaABNIAG0MDhGmBjgggPFyFPKc7xlAI/4Ac0gAbQABpAA2jgSA2wMWFjwsYEDaABNIAG0AAaQANoAA0crgE2JojwcBEeuTOnb54MoQE0gAbQABpAA2jgHBpgY8LGhI0JGkADaAANoAE0gAbQABo4XANsTBDh4SLkKcU5nlLgB/yABtAAGkADaAANHKkBNiZsTNiYoAE0gAbQABpAA2gADaCBwzXAxgQRHi7CI3fm9M2TITSABtAAGkADaAANnEMDAxuTv6c//v1p+vTp9+n76iL++/T7p0/Tp3//Mf29Wu7n9PN/f0y/zGXrf799dxfHf//nl1bm06fp9//60L7/Jtr69Mv0x/+8csW+2ueInVvj4L7rNz+4R3Xk+e4Fr/33d6X9X/7zt2KtNS/1n4+jWMm+GYyFQ+L0BX19wjxic2/N1VaHXS7fnCdO5F+r7wHb57hzY8vE68zLLffz56RjN5qvTsTpnvq8wgc/C+tOi5GdA32M+WTfvOnPky/i98hX975utOBqyJTZXvve4DMnb+Rc+9p5YXtjsoBb35gsE9nWgr84vSXtEuxmc5LbE30WO1q9LIaUUESfuZ51au6jibAskkU9ksQNwTWSTAZ1hB9+Tr2GrX5jX6W6q7q2bQWxcEicxuNCF49ls62j+oBJ5toneviQ9H2J7WWeCjYc338Tc9XPGsP95mRsvnqsrw+LrYt9MHOpGvs0tfl8hVewbpBjHvPJvnlT9s/xiv9G1hajZcqc1nRTYlquPa/S5A32J33KPHRDW6McnqDcxsakJYH1XWNL2ltvTFISkEKYIXXOye1tbULy0zrr1GKz6MOdZItIbR8kiXsExqiO7tH3s7Xpaz/HiF78dFod0PRoLBwRp914niCBflSbXZ1Yf/zv+/Tdvp0e0OApmA3bLnPXyNvImm/6eWh0vjoFH+vre5wP+6AyrWuF7Ie2wBT3pZ0jWkxl9ltDjOXNwF5pO8fqGwJ7xITdgKY27drzGk3e4ivb/y1tfaC66xuTGdq//5i+p69UxYuiNIn99j2/oh54WttvBvJibEk0yVlOf8aJ0eSZri+v5fMEsbS9OM+ZOJZ7JI49EsHSxqCOlvKv7Aej8cYk2LAIVlE8tDZGYyHq655xSsw1Px3Pwl1gCa3FthqNDNU5frx5PJ7tMhbk8bbNlmEUn3q+2m43Zv8R6no+qOPK+ev3/66VqWXLW6vV9UhcRvtk57z5VDHReD637oL1nrsxtWMe09tVfML53trwWucrG5OWhHWQGkDCse6OVAZh6AQtmrAd9QRE11GikP2oOtr2sB9pM8c3PrkY1BGcM2epXcVkKzlu3a9fvem/XjLHjoqF0AYdc6qOtFXFnK4Txqmsz/GNMafznGI+yDb5Vrx1Hm9jQIeDNoz3eft4c19btuf7/YM1r/+s+/ZAjDgY82fsg7axi8u0Piz/2EefPJ3LHKjymW5H5UBZR2l8xfeqnG67jYXre7BQvqrck8+ch+D1fvoc0duVPgo109oL19+2btLp/Pav6O2T+bpjKi9/j2rfFNY1Qr6eeNXfZAdfYe1+Y7jxIGDUj+HGRE5MIZjyfc+afF3HSweviED2J4/1QOTEsJJ4Fgdp0Lqt+GmJLcd5C5JLWUhfxjq6vv1L7Tl9+WgSLNdrrNlxDLGVcSHjsn4nviaVI+LU2GPHx/kjY6RNbPVH75/CPypi7LKT5TP5ddN2Of+YcZtx9nPh4Hxl2nk53Uc+ULlrZKHYfJV8sSyw5GJs0Ceqb+33lHcvzJsv59OzaLqbQ0d0VL8+KHWjNXCTPyO9C2bh3G7rFp3+8u/e1hwD+npu1zyoXNrQ192yqX9ZrswbNR7EGC5l5G9MUodtFxmBSdeFEX0yNg407UpjZd107D3F+CmFtJVUCrCtpLJ85cvYegNUOa6XPjb+jnT00owcnfVJZNb6L9Mv/zZPQJa6K7GwlBnYpNdYMH6T/rlbnEo7OT78jYn0+XycNSknISdfdhO/U+asvh2yvS12LR/5o+x5M9c/QFiJ0dL32JuYJ2J6qa9DH1h2ch0Q8Cht2b+OpnOrbVe0JX2SjvWirvpfzWmDebPW5VPwvlQr15YXuvDj1NhUyvfxbMpda0/SjHyLUY7FulppTPaT6gpdRrau6FfO50mPURt1DljsyrHTvW0s9W/NZf3GxGnYBWOhdIY7jtsK3LIZSbBWNiZ50FtJpThsxSlpXAtox14pAo4vWyyN6giuLte6EMxPrGctD+p9jedoLBwRp2t2c8/VyKMXNt0kJvyS54hPUzdRiTKPtne0v3Hb1zYmev6obbYFzQ7x+wQsR5nbcpWXp59edxdsTLp1RK6b+xn0yc55046dcx079+KRNdYeuM/95HlWX6v9r2mylrn501lH2zY9u1MZW9dZc83lUv1oneu2ITY7IucoO8KYGIhN0aYdaz03G5McqDY5KINSo37nfQIxgrMQFgN1v2E7CryuUweUPmU/qo62J+xnsUuXV31QZmWx5Pum1xF8xzWVY857EjGs49FYkPGjdK79Gvar+tF11HjDftCF4qR8cBybKH6TDqLvIJ/E9ojnZbbHMei1r3kRBx6j+dqqD9wc4a8/VPsqB+mYaXlr0CdDba195Weln5PHh2L6zLaGPvS1tKrJPTm4+tZ61XlE3LN10xj7TUXTu6hbxzDYxqwDZUeq57zpKV+ZbA9knD5r3yufemOy0Vl6evvb92JgbFT4imxQHAqANN5AjIDr+r7wllfv3ROV60B+mACWvK89HtQRzC7QWmLqPdnJk95YIhiMhUPi9AIW1+qSeisPE7b567w6ly8LrtHfn5yK/zW25/jxHg64ueyq+WrbD25fp2I7OoYtH9T7a2uNfiGW+US5rmyE5LcznKfJWutRW8W+uoYYzJsfx3+jfj5BOROL0gdpHVl9+OictmLXYmM099u6wcYkadnReGp/sI25rGon6Gux+cZ8pDcmQWM6SGORRRuFZqwJ5NqfC6f/PnPXvq2X2uv76OrN5cIkEo+vjYMy17AY1dE1bX/sOr2ml/FemCDGYiHoz8ZbEENdH7ZeEKfLmGpe4POmjcS+PB1NuH59ktx4le2XbUy6fOf26XB9Fd27PEb0E20UdN0uDyWupq5rQ+8Tt60u//X1Ugy6fWhb941V2u54dr6qjEb0UMve4XNEG0GZpEn5UChaCwT1Z0adrgun/kGn1bbhtnPOuvPGpAxG7tYSJLnp8AeYoYsnxC7cvv1uMpiBdbAt5DsIbmdHdYH2hO27vnnCcdzbF/Zfke5iQTDbYprvi6eKo7FwRJyKcd2bMe2v5bzv0+/LE8RcrpsE66Rmyj0L1zSei23Pc1X3xmSOKdtWFz8zx8H56kXi4DofzBy9NUO+pr+G3pfrc+mgT3bOm88SJx/Jzt739WuEbX68XpNr+XTlnruuteWLtp11tPpriUmjbSzSd3ns+l63NpjzTtG5arfmerkJqm9Quq/w/j398dsf09835rDHb0xmg0vSzj/s9f6CSXZMhllf42qoDXpJLMufAxSbGQlnAV7asxOJLMvxXZ7Ubi2im09tYL7Wudb9+g+KU1mZsIx215PPRiwcEafGfjRxhPbLRLjk1E/pH9q1k02nU1m+/oW3k/rzOtszl25jUjccavw3zlcn5bZnPF7ngzke+g1HvaY3Jq1sXWvM/2C01fGyYVz8d+MaYjBv7smStsbyZJ4P65qyz2vXa3Ks/85PRiuLTu2C31u/proiz6xsTOZ+u7F7OXppw84BQUw49vf58XI2QxuTDuYLJE3GfLmYYAYzNIAG0AAaQANoAA08oQaWjcmxtrMxYZN1l7cjJKVjAxv+8EcDaAANoAE0gAaGNcDGBLEMi4XNE5snNIAG0AAaQANoAA2ggXtpgI0JGxM2JmgADaABNIAG0AAaQANo4HANsDFBhIeL8F67btrliQ4aQANoAA2gATSABtDAhRrgNyYXAmMzwYYSDaABNIAG0AAaQANoAA3srwE2JmxM2M2jATSABtAAGkADaAANoIHDNcDGBBEeLkKeOOz/xAGmMEUDaAANoAE0gAaeTQNsTNiYsDFBA2gADaABNIAG0AAaQAOHa4CNCSI8XITPtpvHXp5AoQE0gAbQABpAA2hgfw2wMWFjwsYEDaABNIAG0AAaQANoAA0crgE2JojwcBHyxGH/Jw4whSkaQANoAA2gATTwbBpgY8LGhI0JGkADaAANoAE0gAbQABo4XANsTBDh4SJ8tt089vIECg2gATSABtAAGkAD+2vgXxP/gwAEIAABCEAAAhCAAAQgcDABNiYHO4DuIQABCEAAAhCAAAQgAIFpYmOCCiAAAQhAAAIQgAAEIACBwwmwMTncBRgAAQhAAAIQgAAEIAABCLAxQQMQgAAEIAABCEAAAhCAwOEE2Jgc7gIMgAAEIAABCEAAAhCAAATYmKABCEAAAhCAAAQgAAEIQOBwAmxMDncBBkAAAhCAAAQgAAEIQAACbEzQAAQgAAEIQAACEIAABCBwOAE2Joe7AAMgAAEIQAACEIAABCAAATYmaAACEIAABCAAAQhAAAIQOJwAG5PDXYABEIAABCAAAQhAAAIQgAAbEzQAAQhAAAIQgAAEIAABCBxOgI3J4S7AAAhAAAIQgAAEIAABCECAjQkagAAEIAABCEAAAhCAAAQOJ+BuTN6/vE1vb/K/r9O7Z+o/36bPI+VsXVvvi9v69OPPz8qOr3/ZhvK5tvfz9O0fr9z79FXa+uu36YdXjGt3IvBj+vbrrKlAS3fq9czNzrp1Nf3XV6X7ORa9cjY+asx+/nNL2YOxcEicntljr2Wb1leUVyWToqtnya1W30Fu0hzeprdgvppM3HpxqOeqNsd68S3JvsTxzC9iKwCEeVOUUYcDftZ+ibS+b95UNnLyGAJGC16MTqbMc65Zslbd8SXS+X6fd4zG05o5iodpqnHTt3ObO52Nyfv0VSWHYEGZnCcNDspZ+4rT20AKCNXnVDYlYhFbkn6rlxtOYMREmCcRaddczjqp2CrqWTM535nAMmkLn+7cxfM014Lf6nkew/sXzagujGzZdP1iDQ/GwiFx+jwe/OiWdnk0yL+SQ9Xp28WalK086Hhw/upirMSFXUB3vLo5J48rzVdmrnvQiE/dTV3gWK7a6PW8qcuWswHd7rqGGMybrq1cvC+B4pu2WC96kvE4mBfua+gerdt53raZ76s1RRAr71/serq2Nbfxefo8P3CWDOvtGz6djYnTWhds0zT98z692zcTXjnTnJuYExA5eAdaWrC9TWrS60Q0d1Y2HQJUN7nMxQZsNaZzejWBuml99TcmkkN+WqoSQ8i31/Rc1NV12Ea+4dZxYuGION0wndsPI+BPanYBp83JddJbu6fYmIzNXz/+eu/erOdNiHx44M9X+Q2KLFeeMIq5STN8vbPMsr058hc4V+ZNJ691hHdeQ4zlzc4KLjyAgJu/7NrzynXtA8y/sAs/h7dGbM7y1xitvHM0s5tzfWKo85xT+qJLYxuT8vRnexF1KYxqq6kXDdSIyF1k1QXb8lo+A2+75NrnFY6oVfm8jEAR8Hv6at6+Ar7MkKNLy2Qgj7ft8iY879p6S6OxENl2zzhdt5y7DyQQLOiifDtblu59ec+v9p9hY+LiNPp2y0xT3nCIB2lmXmrVbBxF8ddqvNqRzGHyWHOQHOWxLmXP1vRay0Zl0vWL1xCRbfl6vwapVvB5fwLBes/dmFprntF/WzZbrW6Vt0xkLrNt2bKXn49tTIacN3e+MbgwgWvRpATlTW5qwtR11NBlP6qOKvXkk6gey3nPmmh1sj+vxY+xrHHZ7k8mgVY6nshbGXU0GgsyflQDOuZ2jVPVDyfHEvDzeKg3MT+Emjh2QIO9++PuKtv4sOdLBdueH8dL8Rc/CPWluIzmzRHWOp+pbqRPd86bqh9OHkbAzU3Jz1sPS20cP8zkGzrasrmPo8Rn2YxvdC1y/lzSZbvRxNrtgY3J1gBF8zKYxeXlcEUEMinJ46VuOpAwVxKPhCaPdWNXfRXGNMHpBgHpSzYmEpbUsrzeH/tBXyZV+Qcd3sRT3L6Z8vVFv4x6cnhEnHr2cu0wAjlWhVbC3K7zsK/Vw4ZxWcfhGHUz3RijhWu53p6U55ivf6Qif24tinTfH/lMzhXxOEfzZiuX2l3ypNB0+dp384/oVa4b5LEoMh9ekzdNE5w+ikAQj67/pU2DeUFWOf446z8eW4uPZmu+NueluF4urXQ/X9qZkb8xKQ7MiVMGchtCd9Q5vStRjPcTsUz2cYKSsPWEqHortqSvnqVjfwx58vXtUe1xch2BJNbGF94So5cY6n296dhKErVWnYDDr1yOxoLxW21//rxbnMpOOD4FgRyv9fv/KzlUvN2W+jjFIEaNGJm/6kLUeQCQY08ymmM4/zA0jt8a57LeqMEfr1xiuPn7m7W8KZgUf85rGJkPtZ92XkMM5k1hJYePJiB0MbIAr79FjmP40QMY7U+ulb06cRzlGMl53x+3Fzdb/Xk2xNf8jYkqv508lwlsK6lsBW6pHycoCdODUwyXCzB5rMZlnnaYe5zeSKAkADkpsDGRTKWW5fX+uMaXnyR0+RQ7YqGo7o7GwhFxqgzl5FgCJeerfJ71qn6cnHSiF9Wr+jt2UGHvNb7U2LrSdR7UC11ZTE7ob2nzsjJHLRU91svNlzqI532JYTBvlvmn96nU8Yp/ZK6Ux9KUulGt+XYwb5omOH0QAW/9kWO2PTyVpozlBVnjTMdZ5/GaYTuOlnym5oH47UgqX2PhRhQDG5O5hzh5VuPlAjS0yZnIclndfjjAkmxyX7qO6lP2o+qoUurpr77D2W0EfN94ieG2fp659nZikKMbZbdabjQWZPxII0we2DVOVT+cHEkg1JDShT/xhZo4ckArfY/NX3msl/97BmMx/mzMVnDedCtxsIugrsUxpvVJt7cuabz9eSp1KbW+c97shsSF+xMIfbiSx8zbtvsbuWcP/rhaD4NxlOJAP4ypOTN/o6q+UW+fXsy1fseOBjcm+iscuekS1M5r7bDrQXGMTYyeTcUy9defIgetJKVwANwYIlDEHAk3Xd+cgIZ6euJCg4mhjlBOlPWa8xnGTio7GAuHxKkzGC4dQqAt3Gz3TbNZZ20y8mI9flpn2z3ifHD+KrGg/kz9qLkpZv2nsbKJmLcs9fGPE4fNeaFpcJ1IlOvKuqH0E7HXeTRqy6whBvPmut3cvQuBlflT624wL9zFyD0bNdq0TSet6rfdtkg+t+1EsTCXzvf6t5R+y2tXBzcm1rj4dc5aZ+GbFyuaIMC7JGLrpc57W7t6c7mgj3X7uXsLAZ3sb2npI9TNQTz6dGGMXa99S2osFoJ2bLwFMdT1Yeslo4I+rMGcP5xAqDXXj9q8zvf69nnOBsYyG3v9eEb1vTbRnwfXIyxJrHfbmES+M7xdHfS+c3XQ5b++XuLm9vEIovSxEOh8Ve+M6KGWfa7PMI/bryCuDitrennItKHltT5XuzE3u43J3LBdLKWgNH9GbCyJlECV3ztLA5OvhowwioFdny6Qvn0XTBHlAtd8JcUw4fROBFzf3Kmv8zebdW9jLW2Y7eTcxcw8uvfpqymXY0Y/BcnMxbXRWOj6fECcnt9pL2Jh9rV+8lWuyVzu0Ega3CjjVHv4pbH5K4hRx9r3L/rNSDd/zXX++TZ9/fOHqF3mLzO3igIvdXibT2LNtnm/bFYU753XEIN586Uce5LBejGZr7X5cUyDJxnQphlBzu40Ojc0l9U5LF39Mr8Vr9f7WOlMCDeAXcnVC93GpL5JUK/mnYkmOzR6lb8xkAKm9iETh7RW99HEI8ssb2GWPwdY+9alunGZRZ0pzekdCLAxkVCjRU9drMjY8rRfks6i+7f8r7DKLuqTEft1y5I8avzpBaho4Ig4Fd1zeCSBXodRnpZWppztzBeyzBmO9dwiY01OxE6MyXgTc0jXnri3jNfG3dyWV26p8FoHieEmjyhvFl919Y0PXW1ard+4hhjMm6/l3XOMNq9BRLwbPXRxLON9WaCfYyxjVlhty/wmWzBxUsct+XQPNWX9elz6k/XqrQs++43JBZUpCgEIQAACEIAABCAAAQhAYA8CbEz2oEgbEIAABCAAAQhAAAIQgMBNBNiY3ISPyhCAAAQgAAEIQAACEIDAHgTYmOxBkTYgAAEIQAACEIAABCAAgZsIsDG5CR+VIQABCEAAAhCAAAQgAIE9CLAx2YMibUAAAhCAAAQgAAEIQAACNxFgY3ITPipDAAIQgAAEIAABCEAAAnsQYGOyB0XagAAEIAABCEAAAhCAAARuIsDG5CZ8VIYABCAAAQhAAAIQgAAE9iDAxmQPirQBAQhAAAIQgAAEIAABCNxEgI3JTfioDAEIQAACEIAABCAAAQjsQYCNyR4UaQMCEIAABCAAAQhAAAIQuIkAG5Ob8FEZAhCAAAQgAAEIQAACENiDABuTPSjSBgQgAAEIQAACEIAABCBwE4F//fz5c+I/GKABNIAG0AAaQANoAA2gATRwpAbYmLAxY2OKBtAAGkADaAANoAE0gAYO1wAbE0R4uAiP3JnTN0+G0AAaQANoAA2gATRwDg2wMWFjwsYEDaABNIAG0AAaQANoAA0crgE2JojwcBHylOIcTynwA35AA2gADaABNIAGjtQAGxM2JmxM0AAaQANoAA2gATSABtDA4RpgY4IIDxfhkTtz+ubJEBpAA2gADaABNIAGzqEBNiZsTNiYoAE0gAbQABpAA2gADaCBwzXAxgQRHi5CnlKc4ykFfsAPaAANoAE0gAbQwJEaYGPCxoSNCRpAA2gADaABNIAG0AAaOFwDbEwQ4eEiPHJnTt88GUIDaAANoAE0gAbQwDk0wMaEjQkbEzSABtAAGkADaAANoAE0cLgG2JggwsNFyFOKczylwA/4AQ2gATSABtAAGjhSA2xM2JiwMUEDaAANoAE0gAbQABpAA4drgI0JIjxchEfuzOmbJ0NoAA2gATSABtAAGjiHBoKNyffp90+fpk/Lf79Mf/zPN/j7b7Lc79P3kYX+//6Yflna/jR9+u27uzj++z+/CBs+Tb//d8SGyFYzpn//Mf09YitlXN9cHsB/T3/8e9bKoEZegPscO2Oa/jT98p+/XT+Mxoj212AsHBKnfoxr+ylzTx46p8v8no+1Zmtc13JPFN9W36u5ycTMp36esdy8mLVl6hyrmb6ovv/7e7gW+PnT8A/WDG5cDPhZ+6X3bW7X2BCtIWx/l9j6AvOe66NHjdv4xovRn6bMc65Zslbd8SXW+X6fd4zG0zo9ioefU42bvp3bcpizMekNzp33xuXrbSLKi6S+nBJicXobSAFhgje31dr+OSetT/1CLtkgEoRvQ+6jOalMpqKesvFRQfJK/RT/PWeQ3xZkvbZa8Lc4aH0kTct4KOyafnPZ0RjR/Q/GwiFx2hhom7l+Bh5Jbypn9rm70+RZc1zSt5yr6gZLzDnV9hILNv6kT0ZjtitX+3jxz8RlXgTJvLcwsTq7YP4O1g2d74Sub1pDDOZN2T/HD8rvXRxbXf2c8qZkMC8s+nyQ/Rf1Z+d5a2O+r9YfQax8/03ykO3Mbfwy/TI/cHbjVpa97NjdmHzv3kw4g+wCcO64JIwVI93EnIDIwTvQfpbdmUggvYh8G/oJtQqw3+iQJC4T0BivOum/+hsTycF7+pzZf/9v/wYxxY3UfnmCqBKLFyMmmY3GwhFxOqale+iTNjfZO/ne1VKZA9YW8Zt9Gc3epfz/vk/f7bcAnDHWJ/Vb4xmL2TKHrcyPdxnrI3he2UfeBNS3bf4CJ5cxG0bXVyaOh8vItcfcRr+OcbXutD+WN42dV7J7Na3cOt5+Dv055Qfewv/DeeHsPnTW7Epndo3da36T97xun9ckaf1u4lP1dTkrZ2PiNeIY3W0mcj03MBcjLYzal4EYDdT06SaLnz8nnciy7f3E4oxpsbPaxeemOEeYzX779x/T9/TVvH0FvIt9I2PYpYzUvzze1pnWdE2oDksTI5rPaCxEtt0zTrcZ6LFQ/pE8+lwb58++7LP4yuh7jvloLhrIB13MPsumbWBse2lPrhfksWzfXVAGD2ZkvREdRmW073bOmw/kK3m89nGQr9LmUmxMXN84ecEtd6Y8t2Vzvt8ebG6Vt2OTMWHbsmUvP79+Y+I8LahPGvpNQDEsXDRp0fiJyL7l0HVU0Ml+XDuzPWE/pxfd5Y5WfB46viZaneyfaQz3sLVxGfGNZRdqd0Xv9buzLRm1can2ZPworeiYU3VkOWWDrqPGGvbT7FLlZR8cu785ug8vb9KK/Wq1eh+b7qGRfpxJ41e+4eg5ZGbh/Pjimo5Y9xzrWmBtQTnCOtawepKu8pnWncqBYT5b6efFff7I3KB8VbknnzkP+Or99NnnhUfafV1fWzbn+3ItkPis/s5OaD/FRIs/l61iKOoOXB/bmASBaQfiJhBpxIoIUltlApDH2ikS5krikdDksbSlvllRX4+5DJ62jboeD+nLTX0Y/3jtfZxrUstb2uknNslVM1lpdzQWjojTl/L9lr/PdT+K26RBJ3+m66MT3Jn83i0s2xyTGbSvHMkJXcdf9V0fs/VrYfUH7/lza1FU2/v4n1s5rX2P3WNr+bQ8mPVYfdcWU6sPUmWulMdGr0kXNQYG86avF2s/57tzSn6Uf0gma2TzQUGXF57BN1tja/HROOdrc17aYqJ0P8fEzowGBaFkiQAAE65JREFUNibF2OCpkQ76jSS7FbglwLcSVIbWJo0GtgimCDBNHltJ5RknUJMcu/Gf5b7xd7TAOa39d+XoJQY/4eUY07E1FiOmvdFYMH6T/kn93iNO78racKCvC962bOfZtmDME9Qv/57/mqLWq9TQKY+7RcusGX+irpuUtc2JF7P9uMsC2/kLX33Zj6/hOKdpX6QNXbAeWbgVf85lpZ+yX+rmZFvbF60hBvPmYiN56II8tJP+hS5GFuD1WwZbC/Xz+TTnrtjueP2RYyRv5P36Xtxs9XeZ/9Y3JinQPuUfuHRB5BjiJndh0Fbg8sbk8YHa+VX465Z7RQtyUmBjItnGiaEluVzmk7NwiSfxlXaTT+qkLG0pv8u68MnfmA1eEit9r9jTGGg7uf5gHls+KnGeFov1ryqt5Pkz+q9uNNQGK+W+En81LpZ8WDYU3fXZN3HM+mMvbW0ttJe+H+z/B/Yb5pOkJ523ss/0NcW36rLjWvyTrg/mppUYSHZUHazoPhzbA/kqPi/Yr7f+SH4JHqLEeeEZYjDr3N9YtDwl12dWH5mN8wcpnHic66byNRZu1Fe4MalOiQYWGeE5fxlwMKD6SrVODFHbdfeaYa4kdNlPSVCeA8J+boS6jPdl2/F9s6qNl2OVE4eny6SfOrEGgR5qd0XvOn50clXtyfhRftF+VXVkOWWDrqNiI+xH26bqyH44vvuDjNDHK+xTnAe6PZsv0/jMU/VmYzy5u7lsI2Zbu1rf1zCO2nrm64lDsJHo1yEreWXWpspBEe+VNmRuGmpr7essK/2sxNEz+/J0toc+9GN8PS9oPZ1urElT/riarRvrj6rLFAfeW8f61cj+M1zT1DYHPt2NybZTVgItCSB4kjEoDjfpz4ORyWJlh6brRw5aGcMAuObgZxDpg20sYl6eosp/TLMedxPQg2083McriaHyW2GkNS7YmRjROh2MhUPiVIzhcN9gS9ZNzpH9onCNzzV11tq7172S/523kS1m4jkixZ/cfA3EbGtXj4mNSebhbkzCXGTe8nY5I8p1+k82R+x1fo3aMvoIbY3qax1E+uD6DpxW5kWtu5G8sIM9nV73btNo0/aXtBqs01VZ286alvO9+oLhFt32G5MwuDS4sYDWdeybkcVwK5rAhq5PWy8BtSCDV0xBH4tNyjl2HJxfw0kn+1dnmIO4f7rQ69dlHei3ixGjY/d+11Zgg423rl72adeHrRfEqTtOYz9lHhg3yb8jk5ewyfW1uH8Wfw7a6ecsGx/2/JLxrk30l7Tz/GVT3ugexkR8tpl3eShpz7Tn6qBv222ry399vZSv3D6e319PlYs7X1X+I3qoZZ/r089deQzpnnywEublrOnl4dSGltf6vEQv3cZk2ODi6MXgeWDlWtsxlUCVANLA5KshI4wCKCUC+d0/F0jfvgumszVIIKFznkuQlwjgkWVd37ws86z7bmOStDq2GByJkcxctDcaC0fE6ctq4Zz5ZTNe//fH9Pt//m5fJ+u0dc5xzTkvxU63CPbs7ecKP6ZEjEU6trzqP+Qn57mo7gtcj3zS8a5/UVN9BS/n07b2mH3Zry26nFl9INYoru47bfe6SHPpYN585LxLXzmue9+XPCDemkYafE6GJSaEtn2N1ljp/2CJZtavtzsuJU66dc2F+cvfmNSv23SfNvmWgYty2qBgICV461d91OZGDCBDqd9hs33XSaT0sdjQw03wCrDap05gtS0+O6EJf9x6z034O7Z/q32PrZ9jR8eL2Nwveq76z582VrZixJvUlwcItY9ogXZEnL6sHs6Xe5K27KQm/WNzqpjgHxtLl7PTcaNjrP+LYhtzTMdBt7fErFcuij3J+UWOk08iHiYX9T4qa5GuvlmjuHre8G/lb/3X9VV0aGxd/F/b4bM9zHgwizwfivg0ergsL1yedx6fF62257F7a2QTJ3VtIPkU/a/rufQn613h425j8nhwz+BcbEQXaAANoAE0gAbQABpAA2jgnhpgY3LFbu6eDqFtAh4NoAE0gAbQABpAA2jgFTXAxoSNyWGvVV8x4BgzEw0aQANoAA2gATSABnwNsDFhY8LGBA2gATSABtAAGkADaAANHK4BNiaI8HAR8tTAf2oAF7igATSABtAAGkADr6QBNiZsTNiYoAE0gAbQABpAA2gADaCBwzXAxgQRHi7CV3oSwFh58oUG0AAaQANoAA2gAV8DbEzYmLAxQQNoAA2gATSABtAAGkADh2uAjQkiPFyEPDXwnxrABS5oAA2gATSABtDAK2mAjQkbEzYmaAANoAE0gAbQABpAA2jgcA2wMUGEh4vwlZ4EMFaefKEBNIAG0AAaQANowNcAGxM2JmxM0AAaQANoAA2gATSABtDA4RpgY4IIDxchTw38pwZwgQsaQANoAA2gATTwShpgY8LGhI0JGkADaAANoAE0gAbQABo4XAP/mvgfBCAAAQhAAAIQgAAEIACBgwmwMTnYAXQPAQhAAAIQgAAEIAABCEwTGxNUAAEIQAACEIAABCAAAQgcToCNyeEuwAAIQAACEIAABCAAAQhAgI0JGoAABCAAAQhAAAIQgAAEDifAxuRwF2AABCAAAQhAAAIQgAAEIMDGBA1AAAIQgAAEIAABCEAAAocTYGNyuAswAAIQgAAEIAABCEAAAhBgY4IGIAABCEAAAhCAAAQgAIHDCbAxOdwFGAABCEAAAhCAAAQgAAEIsDFBAxCAAAQgAAEIQAACEIDA4QTYmBzuAgyAAAQgAAEIQAACEIAABNiYoAEIQAACEIAABCAAAQhA4HACbEwOdwEGQAACEIAABCAAAQhAAAJsTNAABCAAAQhAAAIQgAAEIHA4AXdj8v7lbXp7k/99nd63TP3r6/T2ZbNUbuWfb9Nn2X5Q78efn5UdX//yjdD2fp6+/eOVe5++yj5//Tb98Ipx7U4Efkzffp01NaClO1lwtmZn3UaabrbO3CJNT9OY9ltr+WgwFg6JU2sr50cR0Pk30KDVyDPF95bt3X05J75Nb2YO0bH4Nn3+059hdLmA61FOP7LftTWE9UWwZlgzv+rZy7ljPtk3b67Zyr07ETA6cmPUlHnONUvWqju+hDbf72PBaDytmeMcVeOmb+c2/zkbk/fpqwr67QVlNW5oY1Kc3gZSQKg+pyknEbGInZPWW7+QS32LCSLXsyCtk8qYRL3bMFJ7k0Dx33MG+eboLizQgr/FgdPEkiCtnueyjoYTY6+sbHswFg6JU2knx0cS6PKol3+TRqTetueKI8ek+r7J9hxDMnbTPCTnsMLLLgzG5itl6UucrK4hOu0VnUnem5TinDvmk33z5qa5FNifQJnTWkwWTUgd3ZQX9jf5+hatXm1L+b7MYVMXZ7nO+xeZ42U7cxufp8/zA2fJUBa58tjZmDgtFYeqQcxLI/NGY8S4LoHP3SUgcvAOtKk8HZabiU5Ec2N90kp2ynpzsWBMzui5dDOBumB59TcmkkN++mpjKqPO+m9vLWVsFGekmBEb93LZjS/hv9FYcNu5c5wKMzk8lEDWX5vAszF2ATf98z6927fTz5JXb7C94zDPTX/13xboyg3OV4e6/sGdb68hcs60Wszzt5MXA/tlPyrnDvpk37wZGMnluxLo4nHuzc5pN+SFuxp/ceN+Dm/N2DV2v25uZYOjmd28rg7WIkGtoctjG5PJDiK3nRxddkryOO7Zb2cq7S/JJxqoEZGbLJYNU120BYnN2cDEdnPnJgJFwO9pI1v9clOLT1pZ6l8em+HIyVIei2Jukp3vR7GT6o7GQmRbvn6fOBWD4/BYAklz/dvpKN9qY41G9M2Tn43YHsVGP7S8GG75LuJny/Utfdwrct0gj5cRB1qsDyCXXLRU8A5mn32evv2Vv0IuNyZjPtk5b3omcu3OBIKFdzC/amNG8oKucfzZls02j22VtyOSMWHbsmUvPx/bmAw4z00q1h6zsWi3tWjCRZdKUrpOa6suzsrTFFVHlcrfz7dvUnQRzm4m0ET7yhNwj7Fx6e+JK0HshTESxtj6W0LVXtiGjjlVR5is30bqOrJY97RK3eTkOAL+JJX8vfnK3q973Fgu6Xnb9ktymC5LHGx5wtVXOH+v8DQdLe12ba20IXNgV691oHKgrNOKuN/iULc5eQgB5avaY/JZe3hQL+vP7bygy5/hbMvmfF9u0hOf0d8ImnWJy/YGDAMbk60B5t6TYVuT1ooIZH15rMcmYeak4j4xkdDksW4sfxWNjYmhsu+p9KWeqPft5/lak1pesT7Qb8QyXw++4hC0Nfee6tVYOCJOVxBw6/EEOh2Fiy5j22g5U+0Up5u2j82FeSx20Ts4X50CxDFGyLmiWRAxz9c3vz4uc1nKf/JN4KBPds6bbWwcPZRA8X9bM0baMlZt5gVT/hSnW2PL9+XGpH5zaf4KeWPkD0atF+YiOzPyNybFgfk77sEix9jrJxVTSCYJcyvVLwujuC0JeyuplAS0lVRGd4jGXk4HCBh/58XO1tOJgXY/RBEvMTgDC/Wb66u/DDSX/fXz9Hn+2oL97v/cdNhW/b1Y8Y3xm7TqbnEqO+H4FARyvNa/RBVoSlqa9LU9qckqpzkesX0lLuw4UpyouWVwvrINvdB5NO9XHcpF1PyD3O0f3ZocW3zc2hn0yc5584Vcer6hFg3U329uLcDr2//NcqcbqVwre8aZ2BBFcu7Ked8ftxc3W/2JDgYO/Y2JqpiNeIsWO6VslFRUUyuJXdaXx6q++q2LB6eUlolEHuvG9FNic4/TGwmUBNAmAbP4vbH5568eJwY1thX9yiccKdHOG/u18iv31BOQI+JUDZqTYwmUnK/egGe9Rk+o6+Ixun/seNZ7H7U9npdk+4VTN18OzleyqRc7XuO7+Kj8yf95XlkrX3+DovTYzUmDPtk5b76YW08z3Kwh/WA0aUg9QGjmLppTebDdP/fR1kZhe/2R2Th/cSutD/oHVal8/dbFjXAGNiZzD95EpXteTxKlbDAg2344QJVYVmyS/ag6js07gdQtv/qZ7xsvMbwuqe3EkNisTIouu5VNRX36IzeLtQ0VczJ+aoH0qf2q6shyKuZ0HVls79e/qm1OriYQxmmgi6QD50+5X23AAysO2640HRhYyqi3mEtR4mBBERwkXwwvAjNP/4lu8BCs8+GgT7p6bQAqBwbxYdc3rTZHDyMQ+tBfwA/nhYcN4NKO/HG1VgbXH0nT8uuP9t9Oq2/U26e3vmj9jh0NbkycP9Vr2h9KKoPiGJ0YVVIQ9uj6kYNWkpJoi8MrCBQx19el7ufwBHRF/09RZTAxpJjpn05EQ1yPw8FYOCROoxFx/dEEorxa39C1iafk0O7twKMtvqa/C21POU0/bVW91py3ktcirnq+Uq2+1Ml67jIoVvNiznPuvLP8I8vZl2M+2TdvmpFw+ggCKT79eVTr7sK88Ajbr+pjY327Gj+yQ9tOFAtznRJ3KzlQtrx2PLgxscb1TWrn9vfzlaAdK5pgYdQlEVsvddL30dWbywV9RJZz/XYCTMCSYQ7itsiT98TxcAIZ0/RYLPQxlCyy8RbEUNeHrZcaC/oQQ+fwGAJhnFo/2vNjzL2u1wttT5oOJ9xBLbt9Dta9bpRPVWudsR5Kl2P0bf/My1eDPnH769oLfOn24ZvI1TsR6HxV+zEL7Q/kqzCP2z92U1G4n1nTy5vJDT5rfbrNBxe7jcncsF0spaAMvodX2/WTSglU+XWpNDD5asgIozTY9ekC6dt3wRRRLnAHvppWx8XnfgRc3+zX/JO1dOvG5H36qhZKuT31neqagOQT7dFYOCJOn8yDH9dcT0vlmsjlfs5/DiqX2Z7H3uYPM8YUU/7TWF1ycL7SlV7mLPLJjz+/qj/mkecRy9vTrEHnLk4HfbJz3jSWcfoAAt2asv6j3WJ+jDT4APPu0EWfs1Mn3dw+X53L9m+ENbM+Vjqj3RjrSm1e6DYm9U2Ceg0qJqOoRd+hwUAKmNpHlPAzlPrdNZuIqiWlD/OKtt5dPguw2qddwC3lOLgbATYmEm1OGvYhgCyRjpNuPe2XpLPoXm72WyvuJD4aC0fEaTOdo0MJ2Lza/7UtnZ9rnq6f/SR36HBM5xfZvjXZ2ngSMTnPN3p+s1zPzclgu+upv4aovxepunrL/9p0Z0nJh+phjSkU+nHQJ9bPUV+DedNYx+kDCOT5MNbSRXnhAfbe3oXV9jx2L+f064m0VpZr/6J/nc+shaU/Wc8WGTjvNyYDlSgCAQhAAAIQgAAEIAABCEBgTwJsTPakSVsQgAAEIAABCEAAAhCAwFUE2JhchY1KEIAABCAAAQhAAAIQgMCeBNiY7EmTtiAAAQhAAAIQgAAEIACBqwiwMbkKG5UgAAEIQAACEIAABCAAgT0JsDHZkyZtQQACEIAABCAAAQhAAAJXEWBjchU2KkEAAhCAAAQgAAEIQAACexJgY7InTdqCAAQgAAEIQAACEIAABK4iwMbkKmxUggAEIAABCEAAAhCAAAT2JMDGZE+atAUBCEAAAhCAAAQgAAEIXEWAjclV2KgEAQhAAAIQgAAEIAABCOxJgI3JnjRpCwIQgAAEIAABCEAAAhC4igAbk6uwUQkCEIAABCAAAQhAAAIQ2JMAG5M9adIWBCAAAQhAAAIQgAAEIHAVATYmV2GjEgQgAAEIQAACEIAABCCwJwE2JnvSpC0IQAACEIAABCAAAQhA4CoCbEyuwkYlCEAAAhCAAAQgAAEIQGBPAv8foBE95uBt9fsAAAAASUVORK5CYII=;" parent="JxcuIvw0Jv6S8uEPPxHX-11" vertex="1">
          <mxGeometry width="677.81" height="209.4" as="geometry" />
        </mxCell>
        <mxCell id="JxcuIvw0Jv6S8uEPPxHX-9" value="" style="rounded=0;whiteSpace=wrap;html=1;fillColor=none;strokeColor=#FF3333;strokeWidth=4;" parent="JxcuIvw0Jv6S8uEPPxHX-11" vertex="1">
          <mxGeometry x="612.81" width="65" height="30" as="geometry" />
        </mxCell>
        <mxCell id="JxcuIvw0Jv6S8uEPPxHX-17" value="" style="group" parent="1" vertex="1" connectable="0">
          <mxGeometry x="590.23" y="520" width="699.77" height="220" as="geometry" />
        </mxCell>
        <mxCell id="JxcuIvw0Jv6S8uEPPxHX-12" value="" style="shape=image;verticalLabelPosition=bottom;labelBackgroundColor=default;verticalAlign=top;aspect=fixed;imageAspect=0;image=data:image/png,iVBORw0KGgoAAAANSUhEUgAAAzsAAAEECAYAAAAPnCp+AAAgAElEQVR4Ae2dTY7kNtKG5yhddzPgBvoqAy+MOoVnVd5/y55d+QgDeGWg973WB/E3SEZQlFKZKSmfATypZPIn+MTLIEOpyv7XxP8gAAEIQAACEIAABCAAAQhckMC/LjgnpgQBCEAAAhCAAAQgAAEIQGAi2UEEEIAABCAAAQhAAAIQgMAlCZDsXNKtTAoCEIAABCAAAQhAAAIQINlBAxCAAAQgAAEIQAACEIDAJQmQ7FzSrUwKAhCAAAQgAAEIQAACECDZQQMQgAAEIAABCEAAAhCAwCUJkOxc0q1MCgIQgAAEIAABCEAAAhB4YLLzY/r49ja9vc3/vU+fgf3n76Hs28f0Yzd/6GPt1v3TOjLm9dd74Pp1+vjnDsal/t+mr3/u56U7WHrBLj+nd7dm3qa3XdfIBVExJUFAxIrfY7QVHy9eivYiXi82e6kKB16bKWbfaU+4rJ9v8ektba8B9D7nuWuwKWbB+ixwPOLNk5MdERze9gzKV92o9XmlAPN2p2QkLcw79f8IpZ92DLFGSHZO68WHG/7Px/Q1JsmbkhU91jx8Hoce8Lhr8+57wqH9cotxt/j0lra32HyUtmL+e53nZBxTbtpknbfnxx9/fg03geNNdv+q37CVtt//xmK2e78zlezTf6mQ563P+Si6eYwdT052pik5aNeD3FU3amNeKRlpF/wuMkr977cwd7HrKJ2EgHyfgCKC8K5r5CjwsOM+BESsUA4Jy2OK9sPJUtDqpvGWLTpejWOsTb+H5qclHKcUs++0JxzPGTtZdItPb2m7k/lP7mb389ymZEfGrnzgjwmAuk+n9RLr33ndpPH2GyexTze54lw4t83L4unJzn3WphR7tQncZ8AH9fqkeaWFyaJpHH13NmygDXMKHkBgZaxZOJQ8wOAnDPHstbnSR08gdL4hb/HpLW3PR+ohFi/ElXzAz0lD8Y1OfYPwr3f1Ufzcz3kThDyHzOIhPjrJICQ7J3GUN/NJm9vdD/SnckJp7N3ZsIGWwHn3GAIrY83CoeQxNj96lGevzZU+ejSeU453i09vaXtKWPc3eiGuaAf8XPY2vf81YmL229c/P077N7J53iQ7mtfHkx1xqJNfB8osuvx6sA7E9fvZnJGyLEQ3bp2pz91Utn3981P9MYQIIIsiZPHFYxeVTanv/A1R0/5tdFFFCwZf09jeTmte0gdycffsrNuUdavFIuzIPq78Er86LVjmecrxon6krZMMaq6vvg1lf7FuZZNqS1Wn8Z34fNZabVfqU+ok3w2a55YZ5flvv+rbo41VsonaqX5YovBpXi+pv3res0/qtdfUiX4Isy3G+DHVdhX+j4CaPutxBXdpj2yXfCQeky0exRJMg25LW8Tn3z6mz/jstxwv2rvp9fFzKLwv/OL1mv2ffzxG2OjYCSYzM5VxuQ5knU2Yqka1fnwcqTQX21Rz1Nal1p+pgwGdFIylHl3byk5hn4zrcf2V8ThyzXtQved5FnM9X0fOrZzT1KxDjY3sf7ZJ9jfXr/uM2G95lWPM/ZcMwtwrrpFXMW5Vx7Ex1q4c089L6LxpIz5bq4dkoOxD+HP+vNBEVlPJoVx7c7N6Dm6+zd/MiHHvEtOcJca5S4wduEWdJizWhfSliDmxemaT11cuq/eO2Kp6FdxL3eU+qxY3v5U+k2upsF3VmD10bmvbbdXRyksbsw/X2lv2U69r3VbZprd+bRrtJ0PJTgYRg65/dYFGilEGB1HuA1K9ec7GLJWV4/lFXB4mGyhpMcW2MqBkh8W+0muyXdoU+5hf536sz/YP/mvmJet6IS7bKdskBgU7IUIRDNLmIvzbtC+C0m22pIUlbGjGm+3+9lX8QXb2W2o/y63TR5rX1NFIEXzseeW+2gW3vmTUnno9ZQaJV9K4zcLZbnES7Xv6ScytfoTOUl1z047zyHrM8SiXlfbENS98FDXZsSn7zWAu5r/ej2WLh85B2F1yimzlq8JO+CtpSST1eS6yn/ZQVhJY/84cpzrYWfWyf4UuqrklPa7VySDjpf69jbZ96ZBo2uf9J/2cxuzsX86vYg69WOk1EHWy3o9WC2mz1Fm6VmN8jgFzv/0+yrqWTvJ44hdiTd7yPCLihmRZTViOm30jD4GRreiv0qm88ST7S7a7+nK+Rl8dOyuzB95K3YY5mOeEOMeFbmX7GMNFkzx3MVfZJnLrzDP3EWwSvs4xQwy6w6XUqdeAZFfGUamR3tB5HmX7WROxj1xH8Jqk9nK5tFHqyvdl6CnyFr6y+sl95jHLnKCex6BmDEiLyU5haCGYz+kj/AyxBjC3ixORzoxGL5WJQCIEmBe6BB7HqQ9ycSzp0Fwmv1FQRSecJusWdy3/ek9iMjivLF43r8w6iFoudmm/sFO2SRtovVnEtoJ9b/FnHWS+uaw6/PzzMX3MXzELW2XfqV3UnLAh2ys5if5l3TgHmcSkMrk5RpvLPmOQKHiJ9vJQIO1f6fBO9XF7LBtlebJRMjIPi2JNzQel38Pmv8lnoi85dvSv6DP7t9RHWveiffRP0kuxyWd2TYAWPsx8dA0kZh0vrf7okXOIjOUakD4XtmT2MjYvxeHKT4Ltai5rGgjNRB9lX9Z3dbX9SsSMedwYkyQnMZfct6KTyFixae466TPWK5iLtWHNX9SPmi8PBtEm30G2NR90ZJncv2R55CjjmqWJbIdl9LpyaUda64LnfDiK9sm6sUzuJdnmSpuRf9FvZif7TTbcogcNgRw76SvHquibpBn5rbRoa/IXdRIbOQfBUTNve5mMGZ6p5Cnt/fw9M++OJ+YSucj6mVG1hsR6yYfqar27jlruk2QV9SIH3eG64WLNU5zZlobNLOokIceAXKfkpZVLG4v1JONZpaXcTx7T6qcoD+sgl0n7so+ynpdotJ8vJDtSvHLwqiMhLG+MaJcWsyhLi3e0bB5PqduMG+1S6koBx+yzem1slwcC13WG7hdQh0k0ZcvrqnnJA3sU2LKdWVSxTTRUtI0L3bSn2kgSz8hF9JV8Hsfxr9KOIiilvkJQNGzIiyuOOfcrxo36E+31cWJ70TbO35lqlIt+b1mIJRX5zhi3CY6a5mM/Sh/C7noTaXwSGYbums+Tr2KQ7ftMW8uyT7kpzkO2Ps7z8czD+2/v03v4t7xceWLU2jOsAUO3kez21wfOIepY+LzUqqYdrcx5Q3+mPbHWDhTbKWktsx6i3uKY0ua4nuseMvd6A081BadhnQTGUsd6W0WL1fpKdhR7Xp5r9p2cb+g3NJZ2+PVk1y3i5ZJWBJtsR7b4lqvW5rk3w26ht2iH3t5blDXjdWHXFfpQWOg+jVpT2qpAlDklrkpfTXz1WojzjkPkOWat5NgubLtbTOvNK9gUmUajl16Fn/NccqM858gtfzZfST9H30lu8nO57yz1W46y/l07rvTPzEqfT2+kEZutOlq5tFEyU+NFNEzxl+xHMm77kfoRGpb6N2NlNMB+XZHslMG07FIYOYtZTDhPTtRJi220bB5NqZsCRL7j4+1S6soDsIQnrx1Ira2YrRgzLp4twhQ9tpdijFJkum2qmEQfmp1qG2eJWHQxMIm+kj2iLPcfBRoXqtJXNVtpR9uPWPRivGSDehCeB1DGFe31cWLSp7S1uMzlol9pVzXNG94a9og15jcBXRt+YKWPrt2yr+jTeKDUN5CSafC/OYbs38cVqYMcM4L18R8eThuAaC/jze+fOTGa13IcX9FxaW+eox9b4XWDB/WmT5hD5FHdjVNjqxZv3UQMNo0e9VlvLxW8ZMyO1yOxu2e/NExwWqsTqWO97dLamA0RjOP8xGuOM5JJuT9LO7ym7brFeMpayePdN961Ns8sDLsVventvWPrw5xdV7BXWOg+Xdo7pLjCtdDY7J9kXxxzQQPOjkbzOY4lO12deUxlXopZtxXpvkpzExrO35otjKj4WbbIfcczh/w0X0t/55sc0l6FXbC30H/u8qYraU/a74Qmkv/Snrc83AgLq45WrtrozOhoSfHXeD8D/kjrY5lHXWOnZEcegN6nz+Q0GYDlRGL5aNlstlI3jbMy2ekCU8apqc3vpVPnRdHtU+ugU7ZqXpJ9DLqib8NOU4CyfgyUjT2SUQ4yuc9Y1lkUwcTcRrFdTCMdXKuDmrZI1cDezEF2Lq8tm43y4X7lGGuujXEbP0mfxPUVx1H6GLQ78/WbwRyYb/WZ5p9en9mGqCtpw/v0EX5AwG0acV7fPqaPkCSlzSp+VmkoUsqvCq/84W5Xec4PmoM5f007Wtk8dYNNo8fdMPmOhO35Dq+wpTn41Wsg2iPaWDFbjJW0E5sXr21f2afb4tncvewjjS/4pjJtTwz2yT78Ycry59ygnYcVb83ygsu2N63Ncz+G3YJH1IPe3ttSxxC77goWzTSVtk2dWJDraj9QofokNpWvQquRQ9E27uGaj2U/u1wbvgp9S+bzYT7ruDd45tSesfrjlb2KfuLNdqkhmYjV11acKAdY9U6ySMlO7KG2a3D8WuOxO/mq15EctT22jmWCZW2btD1oz5xrU1faYcVvOZt11wvJThl4C7H98zG9h7/Z8UMKAGpGrE1ktGweQakrYUUBV5tFzuLF3ZNmoYm/R9DGiUzn8VLwMGyKdW95XTmvRkwDdso20q95MYhgJAKqD1DC14mH9E9eMLK/HIz9HUK3yI25OnzyedXGBg8495/HLIJ9WozC5vpuSaFlUS+1nccyyoVdxfxu8X/R1hhXclOCitxIpK9TubA7lYVxP3+XLJW7uXJsse5cc8Nnch1KexIz2afkvlj+dfrqHl0LwTHVj+VyLoLlJg0Ujrn9TWPrneeQxpsT17yZFP5I5XI957rmOpB9S//dTsn1kG0U/hQajjrK9aobUGKN55iRv610gyTt3qATySGxDBBS/8qaEpyyfZm7nFder9JHgku1B8bDlN5HucenvgXbVDbbaJUL+7deSvuizeq+Pw8gOcc9SJZJDWrlYh7W/pfLb9BDB4acr7+Tn/09N8s6EHux6y+fV3Ifwv9ybpGNtX917Fv/kdSjn8tsX/al4beFgSwOee4ln7l+MWa1HqJfrfbeHDkXwXbB1tGP5djO1lmjyVdzL3L8UhfWGJmTba8cN61ruT7Evijr1jzzWCVrrVz2E9nPc5B1oy1F3YLHXH+Mg8VnMdkpoZdf9UUDY+fS+PbRLs15o2XzCFrdElj+6k/aKQAVTpV15Maoj+Pm2GtfOSYy2fpasqxsdclknpcUSFo49d2J+D7YKduo3ORmIYKn97lkpNkmF5vcKMq6cQH15hrrWJtsbmuMKebRm3PWsrBXtB065KlJ/lYFxHaGPVKLSXsLfpHzaXwax+utqcw4cy99OmtJ85mqseow2PNPG08El5l7mlvFIJX7+fXGWNZAZrTP1ePn0POb91GMK5JjLJtnLWwu2IryKtbswkroVdXSwBpQ/RttDa9Ru7fopMc49m/Fs5lVb+x57nke2lr1vpJ9pDGLPbRdt3kNdZIa4Qdpxx4+XrZZ6FCNf0vscvwqzxMKiyKm9PvNHMQaKNaGQUfOYR4vaTjUrz+XWo39C3/018VK2wyT+8VtzJA+re3Luuz3WsQcySBdC11Uh+h6zPm9H1faKnWRbZG2Zx/nz2+5kn07e3q+rnVhDNyLO2lt98ZxPDOLxsZiXKGn5AexjoTNsh/NH8k213+v39LPhTkDbwaSHd+LZnAjVgkyLsZkhBRXNHq0bO5Eq6vb9v6XXbfsJzsnz6XTVs5PODi3TZPd5aJmbs1L1ustHGln2aYSWO07EVDzoi/bzOW5z7xgIoh2IVZ1xBhpQUg7xOfZBrnZy/6EbbKP2RjVh1GPcwWrrVVeHgxm26V9cf7bX41x5TxEYJnHyX7I+m5sMng6AulvZHL7MiCF2Yg+ln0m/y2XuV/JXNCR84prrPZhqC41JedXzL9i45pqYxT2GMyFmXtdPmMOcszZb3pcseJgh03NVWN/A7jCr85fwpZqrLKu17GMf7MZNYcmoa7n4/QodSvGrzW6am3kf1Ml4ilsm/sWtkitt/uZt0/Ov563/Cyu27LPMqYVn4l5FeXR8BtepV3ZZkOHgsdQklD7J9hZcHZ3tTs+lWPG2HRj3JDj5zlLiHL+OR7LupKbj6tiDmldiDKDhRx127W0tdVh1JoZ+xcGlaxiX6oGhUZjPfcq5y19KculDSN1ZP0V19JnzpdyrKStmJiNdazxSfOXc6z4zOPntvkc1diomJHb6dqcm5T9CB3O85R2if61flVfizZLl8PJzlJH7nMBUS7GobZUeiiBUoAPHZrBXoWAiAe3BqpXQfaceYoNyNh8nmMXo0LgygREcsC6u7KjX3puRzlr7pjsiIVb3O14aT8fdvJHEeBhAWHY7QRIdm5nuHMP87ovb0TJuL33t5I7G093ELgSAeLjlbzJXAwCRzlr3p7sKF+/lZupQYDipxI4igCfCoHB70uAzfy+fDf0Ltd9esQhPjaRHnnZ0DFNIACBIQLNIzov+62O+EY5xiDxytMAWU6NZgQn61Gw3Pq5V3LPeWZusHuy88zJPNel5xr9KAI8FzWsXUWAZGcVrkdUlus+Jzv5Oe1H2MAYEHhlAsXB9WUTnVdWwGvNXe45z8wPbk92XstvzBYCEIAABCAAAQhAAAIQOAkBkp2TOAozIQABCEAAAhCAAAQgAIF1BEh21vGiNgQgAAEIQAACEIAABCBwEgIkOydxFGZCAAIQgAAEIAABCEAAAusIkOys40VtCEAAAhCAAAQgAAEIQOAkBEh2TuIozIQABCAAAQhAAAIQgAAE1hEg2VnHi9oQgAAEIAABCEAAAhCAwEkIkOycxFGYCQEIQAACEIAABCAAAQisI0Cys44XtSEAAQhAAAIQgAAEIACBkxAg2TmJozATAhCAAAQgAAEIQAACEFhH4F//93//N/EfDNAAGkADaAANoAE0gAbQABo4swa0NIhvdjQqlEEAAhCAAAQgAAEIQAACpydAsnN6FzIBCEAAAhCAAAQgAAEIQEAjQLKjUaEMAhCAAAQgAAEIQAACEDg9AZKd07uQCUAAAhCAAAQgAAEIQAACGgGSHY0KZRCAAAQgAAEIQAACEIDA6QmQ7JzehUwAAhCAAAQgAAEIQAACENAIkOxoVCiDAAQgAAEIQAACEIAABE5PgGTn9C5kAhCAAAQgAAEIQAACEICARoBkR6NCGQQgAAEIQAACEIAABCBwegIkO6d3IROAAAQgAAEIQAACEIAABDQCJDsaFcogAAEIQAACEIAABCAAgdMTINk5vQuZAAQgAAEIQAACEIAABCCgESDZ0ahQBgEIQAACEIAABCAAAQicngDJzuldyAQgAAEIQAACEIAABCAAAY0AyY5GhTIIQAACEIAABCAAAQhA4PQESHY2u/DH9PHtbXp7e58+N/dxrYafv79N738tzanPbe7j7S3+93X6+Gepv/nzz+k9tXmb3r59TD+UZj/+/Cr6tm0ds2FsTMUMip5EoPR/X1ulBt6mr39qinrSRKxh//mYvsp1UMemv94L/ed1Ftbb72UkKxnYvEbrWWZftnzmXTH1c61iR/LZ2F5S6vhNHWPMJ5UdRtycal2pc7qsFw89sVILxhqt/VfHhUPP8EnGzcys9fAkk15p2FLX9lltDROSnTW0ZN10cBjboGTT613nTXMx2elwcxu0CDBe8EYATxD92PkwGpIp0c9c1fclfBXsqO0ds2FszGQiF08n0GjJ8P806fp5+gSWDHAHGrlW+jcViu6stnINOV6yf9/D2HopRnuJNynZUBMDHz/q2DMCxvcr4pjSaMwngzEsHJSzrb6dnsQpxlB0NwJDMc1a2yQ8pl88V/umqdmQD3YhMHpWWzsYyc5aYq5+PEi8+jc7koO/O5w3RQ2srF9t2E1QntuH+uqBwffvFoY8lM3FxgZd21YfCny7+kDX2jA2pjZ/yp5DoD7YeSsa/8/fEc7fLNZ6eo7R60b953P6rL8FbdaB1mWr78klNtX6jGzkWty4ZjUrrlKWDkrx2xrJK01yW7LTHAJSf+Ji0CejMcyth3oORuIrrODy7gQGY9rmuHD3CRxvgHADLH3jfcZ94HhUV1qkx8Y99mWSnZWucNXnRfHtY/p0j0W1h4ItXZ6zjRSmvDZm0+Gmbr7aNzJF1/6glr/ViR9WBzgXxBQ/ufKc3IzZMDhmNIXX5xMwDv2tvwc0/PzZrLDAz6ddH6IL5XBsbizVOmr5+X5d+YveOZbJgbwWxMPNmBx3is/MN1bcKRuM+cTqq4qb4fHg+iZRfGy4q6vSLN7tTWA4pmkDD8QFrdnFy+TakdcXn/axplftMcm46qyWyldckOysgOWr5gPRK2/qLbbMpf1sLsmft9zqTVb00BO5EfDdaOIOvXl4K9oP2lC0EXbGO9/cDSqhHOKdvrk3h1Er0B5iDluM0Octe9LWhlbm2hRrcXC9yMFe7LrRV5y/iyErk52hNoM+GY1hhb+j8fNrZxxZjes7EtDXtqm5whK9bVHlxd+Q7DxHAObe04lZo5aS7IySCvVkMGkP7Ss7u1R1H0Dbu4B+kn1ufvNU7xT2NvnOZzJYybFL5NLmQRsGxyzH4d2zCfi1Kg6YykEuaSYE1vQ4Q/0Yz7MnMzq+MseiaZhnvWatuFYyHFwvxYCv9caMO84v8UdY9B+HaEi5NvO30z5mJW0WN1cGfTIaw9KYjTX+cc+zrot2OqcsKdfjNPnHT0WMs2a1FBesdi9UnvaCF5rzEaZqxkxxs3yrnSQ7a8hVwd86FKzp8jp1ZeJQzWqR29Imbfwax9KmHR6lWVpAPskatGFwzIoAbw9AwK/XeMhsDwVOJ/PfWsgDZEgITvcH2cFu9QZC8IW9oYcDdc3h29fp61vkNrheDuD3Z5lgx53KoqgxybuqkrUrH8et/TTok9EYVsVtaZKbW8deWZfr+xHIupjjWlybnfEG4kKn9ct8ZMfGl0HwlInaMdPHut5+tmQwyc4Sofh5CBLyLqgPNHLziZVf8dVIdoa4LW3SRhBf2rTDZry0gLxPB20YHPMVFXDcOXvflglLOCiKu9NOJ8qBwa9zQ4MHnHQ6AIm5tWZ29O4qBz7xD+3ntVRov9O+qNeO/ColdtxRCDhmxk2d9LeLyucuIYnlgz7p+Kc45C0lO119KXOkaEcCYzFNDjgWF2SL170u1sHrYnj4zO2YaZwvV1hIsjMESwssys8ZD/V11UqaGEe56fUcKbfhGgfNzgHBLRqZ7Gh3IYv2gzYUbUpfyjHLT3j3TAJ+k1duSlTaMv3X8fkz56WN7ebwFg+/Wo1QVs29UzN/VBx+B9dLbv1yV84XwwmBj5/WnUtTw+HxDvntdJnUB+zS3x09F2tAtim81/F9UY839yJg6sHw2XBcuJfBJ+uXZOc5DivijzShE7Nktd41yU6PTvzMBZD4+IvxOrypxU6v9qokOyu4WSI3g7rDZx0Qys3Y7KPaGMZsGBvzat4983wsv8ofzZjnZ+rEBVoj4T4MmKB55ZspzcQtm7njKOKcxdXkqBly4bKaV3+qVlwJrapYlfsq4+6YT6yxyrjZ/oR/HNVqHz/n9d4ELD/XMS39mMRgXLi33Wfpf0t8PMvcjmynuXeY8W98NiQ746yamqZjmpqvUFBuur0Zq9xUMVebr9KpGvTruwD1+9BP03bQhqbd3J8xhmIyRQ8moOpttqH2t+FDs/2D59Edrp5Lt7JfV9a3CGpTjY065vKaVfu/YKGLEyI57E5RZSlbGAlG3a5+77pofTIWw9p2rjt1DGkr1/cmYMak2jf1+3sbdpH+HV/taZCLzO+w09D2mZ1+6ZZk5wavmwHnhj7P2/TGZCf+nKkIMC3fsPmKOjHJyAc3fYN2m7v8tz/UTaDtv7UhJzZLY57Xl1ez3GuzfLwnlEktad/uhOCbfX1MNqsO1saGkmf2Ob0Xh3SN31x7cL3kjl/qyvLJjz/fpw/5D8AGf6j6lH5oYpbml0GfNLrW46a/ISAfi/RjHn09XF9omu9DmYhplgavz+e2GZLs3MbvltZjZ7X1I5DsrGeWWqgH4fTpq134QCt/wMEiYHMLG278o2iZnLjO2o3cFcfDQmwnDwjCCL+I4mOI1mNJSzaEDgfHFMNz+VQCtV/fJuvA5vUZdSIPek+dQHfwUtvZdv8TxdXfKzWH5rrrcGiK66n7N0A112qsuusXem8dNGt9zT5q46Z2mI3fRmb/6hoe9MloDHN6WRrzhRx7mKnWfm5j2qq4cJh5Pd8Qt0ZF0vh8i17LglK31lltHROSnXW8qA0BCEAAAhCAAAQgAAEInIQAyc5JHIWZEIAABCAAAQhAAAIQgMA6AiQ763hRGwIQgAAEIAABCEAAAhA4CQGSnZM4CjMhAAEIQAACEIAABCAAgXUESHbW8aI2BCAAAQhAAAIQgAAEIHASAiQ7J3EUZkIAAhCAAAQgAAEIQAAC6wiQ7KzjRW0IQAACEIAABCAAAQhA4CQESHZO4ijMhAAEIAABCEAAAhCAAATWESDZWceL2hCAAAQgAAEIQAACEIDASQiQ7JzEUZgJAQhAAAIQgAAEIAABCKwjQLKzjhe1IQABCEAAAhCAAAQgAIGTECDZOYmjMBMCEIAABCAAAQhAAAIQWEeAZGcdL2pDAAIQgAAEIAABCEAAAichQLJzEkdhJgQgAAEIQAACEIAABCCwjsC/fv78OfEfDNAAGkADaAANoAE0gAbQABo4swa0NIhkh2SPZBcNoAE0gAbQABpAA2gADZxeAyQ7iPj0Ij7z3QZs524ZGkADaAANoAE0gAbupwGSHZIdkh00gAbQABpAA2gADaABNHBJDZDsIOxLCps7JPe7QwJb2KIBNIAG0AAaQANn0QDJDskOyQ4aQANoAA2gATSABtAAGrikBkh2EPYlhX2Wuw3YyZ0xNIAG0AAaQANoAA3cTwMkOyQ7JDtoAA2gAeB4apAAACAASURBVDSABtAAGkADaOCSGiDZQdiXFDZ3SO53hwS2sEUDaAANoAE0gAbOogGSHZIdkh00gAbQABpAA2gADaABNHBJDZDsIOxLCvssdxuwkztjaAANoAE0gAbQABq4nwZIdkh2SHbQABpAA2gADaABNIAG0MAlNUCyg7AvKWzukNzvDglsYYsG0AAaQANoAA2cRQMkOyQ7JDtoAA2gATSABtAAGkADaOCSGiDZQdiXFPZZ7jZgJ3fG0AAaQANoAA2gATRwPw2Q7Oya7Pw9/fHrl+nLl9+m77v2ez8BPHNxff/3zCr+98v0x//kPCPL+Hn9WteXbefr79Nvqe8v05df/5j+Vnzy939+ETZ8mX77b92Pf9+3NbYZG/OZzBk7+urnVPs+avGX//xd3gD43x/TL1JLZ1rfq22f152+tso1MK9HO86VdfX+XkaLq33wc/r5399cXGq0qMSwmWOj5X9/LzX88+c05pPBGFbPSRnvZfxr+ORZ8y+1YKy92n+dtfyseRxl3JKnfUY4ir2Xt2PWrnGe682dZGfPQBU2qN4hoOeM1/ksJDJSsI6dEZgrH7lNu7u5+g07HxSU8dIBQRzYgv/qhMeNJ2z1wa+2dWzM1/FxTiqOOmfnR+FX1U53KJC+jkm40E2lT7WfZ9RZa3s6AMn5Rj9+n34r1pzNYWy9xH4v/rrWB04nke2XKccwm5NPYvp6HPPJYAwLOslxMiRIhT5sew+zPp6xJu88ZrM3aXvaJk2+pj89T7G2NJ539inrJWvP+8O+ed1jRbKzm1DzBkWyk8Wpis8FDBFAgg/chry0Ybq22mEsj6keYo0NOm/Yvn19KPjZbAxzveBrYevYmNlGlctuWmScEb6qz2of/O/79L34xvHn5DVxgjt8w7aHw2r69qq/vhLbZk1FNnX7dr2kPmreV3s/7AOxZsOBav6mcSnZ8Zt/G0sLvjvHMDVOD8Tlwqar+fkQ86mTVa+pdk87cUx7KGfPc/GM8FCbRJx4pXFFTHRPYCzdpFTYkOwoUDYF5dkZv/4xfXePRS1sPnuNedJ+muAb5+EE3WenbrSxvXv1B6v2kFAduKyxXHk+rFkH4vKQMThmYeeLBq0DMVjWkuUj/VCxKW48nIdiuzwMy+tF29rDwNh6sbi+Srnig8Tax5Lf/turEzlZcSd+7l/HfGL15cu/pBs7rc+97kfsLe06x3o5kc3azYf4BMPi4RD/NXocPCM07dJaPpF2Dm6zjGHyeg17kp1dnJw3AOcInn9tnheXouwnOznRkG3ctRHMi3qdOnJceW23rzd6EbxkUjQ4ZjHOLroT9tBfV3Mae5IdRT9Oy501KHXW1B1cL7KPl7y2D5Z5I7frJC03/BV/Kt9Cp/ZbYphsU/iu4/uinmYjZcknN7HSNTMW5/S2+9h1Tv+OnRHOObcz+zXHyHXsSXZuCi4etgwmJDvLArQY+XL7oGUGH+nDzgFALhLps3Lh+6Dvv7r2G3j7LVH1uM7gmOU4y5yof09G4XCWHt2a/+De1l7hC/PAd097d+p7yfaOlgsG4QdAyrUxuF7ken3Fa8sHBfuBw6frZ/4m3NeNP7BR/hjLoE+KsUutybjpfzhB//bdjqllf6WO+GxPHs0eammtXnej9ep2F35v61meEdDvnvod6auIRyv0R7KzApbqiLTheNH7YKNvBmr7W8c/ZfuwOcuv1ufN9tdfpl/MA+dggFnatMO3bkuBzB/ilg4K4e82BsfE/8feGJwmviz8LY7z9fLfUhzS1yO2d7Qc/1bJH6q1xHBwvZwyZu2kXdMHNTsf78pksrTB7zX1r+LVsbXuV/QRbHE3djp+L/a0ar+TOnfrR8b0V/bzE+eedTF4A8fUpNDKE+cjNfbI67EzwmszeqQ/4lhO3xviDMnOLYtYbhahn2JjuKXvy7cNm3K8sz6Lt7Ph9u4oxkXgXjt9yEWyFMj4Zuc1g3jvwJYOEenvF87DaNj2zvop1ll8PKq4ObF0sNYSpPMwLOe/3u6eD1rdjSc79R9Qx5+tvksMW0p2Trg2bvXrcdr79Zf/vmrWaNhnDb/0NHmcea1fa3vYPnZGeI5te8zvrH04zZLsPFJ4WmCJ/94B3+xsWkjmRqqzVsdQEtBYTx4o5HX83L0W7TvjOlvD4a1oU2rQHOfyyWzJoWB84Ln7zb9dv86PS9/6HHReq2wfTnZm/9bro34vNCDXy0E53VOjXR+obEaTnVar8YArv50uD8DBL3Lc0Rgm2xR+7Pi+qCc0QfnqvzPsadSKXT75bW80dDWJb/y/S6UdqjtrpecfPttn7ZPsPHpxuqA/f03c+c+4m4LoddG74Ksy8xt/cwdT9bl1SCg349GNwdmkBLyy/diY+F33+5G4lH6d7Q26Kb7BOP48PNMNtq9KdsI/VCnWx9h6OQu/Pexc8kH8vLOPWNozE48yXo75ZDCGmQc9q/0eDOljJEZafo7Jb94/o+baBGhknFep0+4FQYfmukOnj9CG84vYc0bH5DE29cC8XbTmAtl5nFEHn6aeuYnGf01cu4Op+0kN+nX/9fvgn6atGtjCZiESs6bd3J8xxml88nKabf1q3RU9hQ9V7eprJs3HaXb0EDTKS6n3Ktra4gPHZiR5MOrUY9bvXf+tT8ZiWNvOaUcdY0Frr6KBB83TPHvUvqnfP8i+FGPOMp6xf6vr5CxzuoCdJDsHcaIZcA5i3zECTv2vsftNW33U4md797icQ9h8ZaYfglT+4159g3ZBS/5MuLoJtP2rPh4cs7Sdw8DzeNQaDDqr7qI7jYik9nn2rtfKJtuNZGfWfL4z7G1p1o+LcYPr5UXi4SYfODZaIqPEySZmKXXit5MiRt4Uw9yY8oc8NFvX6/VMa+uYtmq+D2XC99s1+Xo+bWJcs95ej8mzte9il9DzqD18s7PzpqtuIjuPMerc49YLAVg8AlgfpLLteqLSfF6LPyQf6TFD48Dqg1l8hMS6ox1sSPYa3zINjpltJ1A+j0WrwfIne71vSn1EncRXQwcHWe+bbDeSnfgtZVpP81qo11ya9+B6SfWvuw42+cBx8frMN2xmRkGzdSwLyUf0Tdkmsh30yWgMGxozjs3r4+Jc7ef2lyO3a/I1/Vjyss4Ir8nmcbrOfEl2XmDjfIawGDMvMljAAg2gATSABtAAGkAD59IA3+yQJO36izAEgHMFAPyFv9AAGkADaAANoIEra4Bkh2SHZAcNoAE0gAbQABpAA2gADVxSAyQ7CPuSwr7yHQrmxh04NIAG0AAaQANoAA2MaYBkh2SHZAcNoAE0gAbQABpAA2gADVxSAyQ7CPuSwuZux9jdDjjBCQ2gATSABtAAGriyBkh2SHZIdtAAGkADaAANoAE0gAbQwCU1QLKDsC8p7CvfoWBu3IFDA2gADaABNIAG0MCYBkh2SHZIdtAAGkADaAANoAE0gAbQwCU1QLKDsC8pbO52jN3tgBOc0AAaQANoAA2ggStrgGSHZIdkBw2gATSABtAAGkADaAANXFIDJDsI+5LCvvIdCubGHTg0gAbQABpAA2gADYxpgGSHZIdkBw2gATSABtAAGkADaAANXFIDJDsI+5LC5m7H2N0OOMEJDaABNIAG0AAauLIG1GRHK6QMAhCAAAQgAAEIQAACEIDA2Qn86+wTwH4IQAACEIAABCAAAQhAAAIaAZIdjQplEIAABCAAAQhAAAIQgMDpCZDsnN6FTAACEIAABCAAAQhAAAIQ0AiQ7GhUKIMABCAAAQhAAAIQgAAETk+AZOf0LmQCEIAABCAAAQhAAAIQgIBGgGRHo0IZBCAAAQhAAAIQgAAEIHB6AiQ7p3chE4AABCAAAQhAAAIQgAAENAIkOxoVyiAAAQhAAAIQgAAEIACB0xMg2Tm9C5kABCAAAQhAAAIQgAAEIKARINnRqFAGAQhAAAIQgAAEIAABCJyeAMnO6V3IBCAAAQhAAAIQgAAEIAABjQDJjkaFMghAAAIQgAAEIAABCEDg9ARIdk7vQiYAAQhAAAIQgAAEIAABCGgESHY0KpRBAAIQgAAEIAABCEAAAqcnQLKz2YU/po9vb9Pb2/v0ubmPazX8/P1tev+rndNc/vYm/9OZtfV8G63PcpTP6V32/+1j+lFWcO9+/Pm1sMPqt7Tj6/Txj9LZNDam1pKy5xAo/W/5VdoWfGzoSdY8xPU/H9NXuQ6M2FTq+236+qe2WqaprKfzKuvkNW6trUNwepQRf71Pb78v7w4zwzW8Sh2/qWOUftF9N43GsFpXA3N6FOJXH6fUguHn2n9GXHh1lsX8Z2ZnifuF4dd4U+p6XXy0CJDsWGSWyueNzB0s9IP7UvNrfZ4P/u2m/Tm9F5ujnSS6DbqoO0LJj50PbKH/KlD5xSN8FfxX2+tsEG19u3oTGRtzxHrqPIZA40fD/9KaFHCFHuTnh7p2BxqpU32dNWsscMjrZ56VsoZcPdm/n33T36GgPM8Yx2XeH7rxrBc3ddt9vyKOKdVcHaHZRvuuzWAMCwflHCeDzd15KUZRtDuBxq9aTBuMC7sbd+IOTxX3T8zZMt3zFzFO07XVuFNOstOBY38UDxLznUzhFLvBRT+RHEa/hZmmqdlAPZ4tBye3MMTG7npq+vcbdN6wxXiybbMxzPXCHMXmPjamH4P/PwKB+mDnbaoPhaWl4VA3H1ilRspKx3n3z+f0WX8D2ayDafr8q/2moeHgNpc2rmnrUys7DpTHW5IOSvEbNhE3sjXb4mZzCMgd5qudY5jqXyPxzUZwdX8CgzFtMC7c394TjBAO1ekplDPE/RNgXWfi4FltXaeuNsnOBmjTvCi+fUyf7rGo9lCwpctztpHClNdLs9Hq+gNAeYd5qR+rTZWgGIc358e3fLdaTWLmdKfw8+CYS6bz+eMIKIf+eXDL3+mz3z/9o1yn3fT8OltaU6W+w+Nr2pybdWSthce59mgjyeRAXpd2yvgnr8ta5bsx1pamSx9bffny/G2UZduYrkr7ebcrgQ0xLY+P/zKLfCXXjrzONbi6O4FmjwkjuvJ8VttiB8nOamp5Ayg3kNUdXaxB5rI4sc7dx6WDWdG3EfDnOu6gEQ5s8tpuX2/0oqZcaINjitZcPp2Avrmbh1GhT1M7T5/TiAH6vOuWdRwz5yzXgevEOjTXI7zme1NfBY7BuCk0WTQv3uwcwxp/x8E648QqvN6ZgL6212hu1V5759kcrXuSned4xNx7OueuUUtJdkZJhXoymNSHhJVdXaz64KYd/ii2DbS+ffoKeeTvoToHABmspM9K6NLmzsFNjiOvy8663xRUVXn7YAJ+rYo7QwsHuahPM/g+2P5Nw5lzlL21B1crrjUM6z9wH1mzcuiLX9txR05cxiBZXl07X85PEVRxsvgGbucYlsasbIk3k9RH9Nq6lNyHQLMeh9b7NNVPNNzHunP36tgWa+vc8zmL9XbMHIyTnYmS7HTgNB9Vwd86FDTtXqKgI8aQlftERhw4u1zCIUw8ZtZUX0o8wt9TLS0gf7BdOiiEXwQZHLOxlYKnE/DrNf5imK7DepM7bbIT1lxM2iz4bn7N3x2GA7Xc7Of+vn2dvvbWY/z7tm4dy5LrldtxR861EzdFtaxd+dh07aedY1i13wlzim/OZTnXjyWQdTHHNT2mFRYNxoWizQu+qfeBF0TwlCnbMdPHuqX9rGc0yU6PjvwsBAn5R+4+0MjNRzZ4teuxTTv9wf9IYI6HJ+sOovOJHuBlsFpaQN6nSweFMM7gmK/m/WPPNyTOhY7CQVGWKXdGnXbkof/YE3XWpQOQnFtjd5i/uQ7j5yE5nBl0tJ+711jnT1/pyo47ksJY3Iw+lfuP68VpNv40684xbCnZ6epLzpHr/Qlo60yJaWLgqKH8N1niQy4LAvL8UHzAm7sSsGPmWJzsGUey06OTPtMCS/2H66nyi16sEaPOUwPXPWwqCWjsQ7aT1/Fz91q079gkD8FFm6I37naWOA7zzm/yyk0J6Vfj8UpTO4eZXWmIs/ctHn7Lz9K7oOHVvzLXOfymvuMjTidLEKX9e107XywmBGNx09RwodudY1ixPiSVzjiyGtd3I2DqwfDZUFy4m7Xn65hk5zk+M/fbzrlr1FKSnRFSLoDEx1+M18VNbWSgM9cZ27TjDE1RxwrhtV/Pj9l+tVluxqMbgzVW2X5szGoavH0iAcuv8R9VnO+Wex8bazv8jHCrsydOqhk6aN78piY0iLFsQ7xyHAfa2bwboy9dMMZrMG4ah1ip4RmmxX5TDDMPGFYMvLQ7DzU5y8+1HtY9SXGoKT7VGLdeuGHzcB+UcUoMb8Y/UWfhkmRnAVDvY9MxvUaX/Wxw03bzL5MRG8nypqoG/XqTrt+HAZu26oJqbW3azf0ZY9hz45NHETDXqerv0irV12WVY7wbmEs6+AwkLM2khvW9vGabvi9a4LSzyHo0bhpca7/X7x3brTGsbee6U8e4qBMPOq3hmIavNnnQ8SXZ2cTupkbGPrPHPkyyc4NnzIBzQ5/nbapv2jOj+jlzJ9z6j6L/+Zje//whph822qJeKJNBKCyOfNdd36CbMdVNoO1f9fHgmGIyXD6VgNdm+ax6KJNaUmzcI8gq3e5e5OxcOlg73ep/41Ya9Dm9F31p/HyCv7xmy55f6d2QT8JjaHWMjHfoC802MUvzy84xzI0pH4v0Y+Z4+0oePdJcNd+HMhHTxjR4pHkdwxaSnef5wWlWnvuauLfNNpKdbdxcK/UgfEN/527qA22zaYfEoPhJaRGM05y1esWBa67ZbuSufd22aedH8YsoPqpkHfrCGPFfQJeLLhmbv8lJ8zLGlE24fiaB2q9v08iBzWlG0+szp6KMXWo7ajy+hr9XqtdJ0rivl3mEQ5P4vFnXsw1af6yD5B3nk0UeRtyMPzFdtw/JR4w72Wdp2Bwnk/+Uv1fT/FePFbscGjNW5vVxBJZj2lBceJzBpxmJZOe5rip1a53V1tlIsrOOF7UhAAEIQAACEIAABCAAgZMQINk5iaMwEwIQgAAEIAABCEAAAhBYR4BkZx0vakMAAhCAAAQgAAEIQAACJyFAsnMSR2EmBCAAAQhAAAIQgAAEILCOAMnOOl7UhgAEIAABCEAAAhCAAAROQoBk5ySOwkwIQAACEIAABCAAAQhAYB0Bkp11vKgNAQhAAAIQgAAEIAABCJyEAMnOSRyFmRCAAAQgAAEIQAACEIDAOgIkO+t4URsCEIAABCAAAQhAAAIQOAkBkp2TOAozIQABCEAAAhCAAAQgAIF1BEh21vGiNgQgAAEIQAACEIAABCBwEgIkOydxFGZCAAIQgAAEIAABCEAAAusIkOys40VtCEAAAhCAAAQgAAEIQOAkBEh2TuIozIQABCAAAQhAAAIQgAAE1hH418+fPyf+gwEaQANoAA2gATSABtAAGkADZ9aAlgaR7JDskeyiATSABtAAGkADaAANoIHTa4BkBxGfXsRnvtuA7dwtQwNoAA2gATSABtDA/TRAskOyQ7KDBtAAGkADaAANoAE0gAYuqQGSHYR9SWFzh+R+d0hgC1s0gAbQABpAA2jgLBog2SHZIdlBA2gADaABNIAG0AAaQAOX1ADJDsK+pLDPcrcBO7kzhgbQABpAA2gADaCB+2mAZIdkh2QHDaABNIAG0AAaQANoAA1cUgMkOwj7ksLmDsn97pDAFrZoAA2gATSABtDAWTRAskOyQ7KDBtAAGkADaAANoAE0gAYuqQGSHYR9SWGf5W4DdnJnDA2gATSABtAAGkAD99MAyQ7JDskOGkADaAANoAE0gAbQABq4pAZIdhD2JYXNHZL73SGBLWzRABpAA2gADaCBs2iAZIdkh2QHDaABNIAG0AAaQANoAA1cUgMkOwj7ksI+y90G7OTOGBpAA2gADaABNIAG7qcBkp1dk52/pz9+/TJ9+fLb9H3Xfu8ngHsvru///jL99l/N/u/Tb19mVvG/X6Y//qfV+znNfYzUK+dS9f/rH9Pfik/+/s8vom/L1lEbxsYs7dTnTJ37cik1JfXlr0vNxnUd651off/vj+mXtMZm+zu2L9at9P1FX7MW25Lpff172PXz39+mL//+btxgqvia9Vp2dRzTxij9ovvu58/KBiNu/qy1ssLWw/pG2R/OaGupBcPPtf96ceEiXG725czMWg8wMmJaG6u2+qHUtX1Ws/on2dlTpPNG5g4WnQPFnuMduq+8abaHHP+ZLPcbcRuYXbkIMF7wbb1S4L7/X/7zd1iA4bAq+pnr+76Er4L/pF1zvTEbxsYs7dwvENDvPiydJgqdBB2Lw1yjm6OuQ3egkWslJm1C89F2Q/tZVyvXrOCV+9jHR2ftLyUbKptaZ3rM0ubu+1V8Gn27dwwLB+UcJ2vbX9vPmo8eVdbsj9q6XhMXhIYeNYcjjuO5fpm+FHsDOn+Ur5o9V9P1glZJdhYAjTszHiQW7p7uNt5RF5rkoN0ln+3+Pn1vvu3xG2ZOUH5O/u6hPKzNbUP/6oHBM3ELow5KxgadN2zftk5sRm0YG9OPMa4p6j+UVaORkBDXWgoaLLR6xHX9v+/T9/rbUmWO8S59vRZK9oNrNh6sO+uz7Pf6Gk8HpfgNm8Km2cxnPWm+qnSmtqvq7B3DXIys5+AOH3Wsvr5vj6VlZQ+N61HGsNG4UOvoFd+HQ3V6skRyfEUeT5mz13W9PzVntQXbSHYWAA0Hs3lR/PrH9N09FtW/yzbc5162PbQfKUx5vbTxtUmMmkBo38gU8/P9tAfRqn8XxBQ/VZv2mA2DYxZ2LvHg80evk9bXlWaE/9q6Z/FXeyDaPheNj7UWzsJnfztlciCvpb71jXspfo6xtvzrytPjS1ZftY8tm1pdyflxvb+uGqZGcmz5v2yP/0oe3l+SnbzW6lJ2J40PntWW+JPsiAPMEiz787wBlBvInZy/i82PsC1zsdlFO+pNtX4f6/2cflYJSdG3EfDnOvJAIa/t9oM2DI5ZjHMaHwrul7ZZ2+xt/593ndfz9HNsbw6M+F3jc0t/I2Oeu46V7Kh6cnGl823J0uduvWo+CgxlHB2NYbJNEQ864xT1zu2/Y8fwem171pbmyrnobcs6r+07kp3n+H/srLZsG8nODoFYBhN109phjHMGHR9A668f1bk0m23n0NTb5DufyWAlfVbaI20etGFwzHKc5cVJ/ccxstatFWhdebor/jg7b9ZEc1jNevdzij/C0Dlkx3jWrNmZg+8vPfbB3zAWf7i7FHfyDwsMJA/Ol/O30xXz4lGbnWNYGrPVvD23tu7NOo4a5LXQl49jYu02693wxWi9F+Ytzw/o19DRHfRhx5W8d434g2TnVudUwd86NI0443p1RsUYNuviOfClTdr4NY6lxCMcUJcWkL/TPWjD4JjX8+/jAt592S37OR9C/TeLv/w6/4qf8hjkrfHknu1DclJ8ixPK5uRE3pRw68P4tTXvC23NanrwbL90+9LaXbPMjjvzfAPTzt/2yHXg95r6b0RDHynhWda28/toDKv2O2mPm1sa95r+k/M96nXWxawNkfhYsUWLC1bdFy4n2XnOmrZjpo91xX7W0SfJTgfOYjALQUIeEkh25ILwYpR8GqZu89R+5WRpkzaC+NKmHTbjpQXkbR60YXDMZu63aI+2xR3Nm9h2/Of6Des8fVsxJ+WdQ99NttzJr+kAVNxQyH8EXyRzzoZwaK7rz5+Za1aufXkdEh6trzvN94g+mG0y445jWsY077OyTM4r+rSJr8E/d4lhHd2bc3sxH0sfPfZaW2eddZz+/vVL5+fQ5Tp+7Wu33kjm99t3B+OCHVcGzpdiDJIdAWNdYNICi/Jzxpv7v0Jg6YsxbtZ6Zq7zdT5SDgbJd+Fg2hwA4kFDJjta4CraD9pQtCn95haqNs5L66JklHz3JCZbfHSmjc/Nr/rmJjFfqd3+mrX9uoVxsvFJurjH+I5Dk/T5ONnGwU78SQdV7dtF2V+nDxlHR3Ug2xR+6YxT1LM1cg/er9SnX5uKHgyfdeMCPmsO9WeK+VfSvbl3dGKWNn+Sna2L2gWQ+Hy78dpsaq8W6O1kZyTQWiI3g7rzpdzoJe9yMzb7qDaGMRvGxtQWIGXSR8+49rpoD5o9W7a06fV3r8+C5ruPsljabb+FGFmzlp6tdWTVv2q541DvC51Nu3vAqmJVZlbGXYt9GQMtHZRx0/45bKv9vbRNv9nfnoXl5/h4ZL4BOBIX4Fvz7a7FredI2jVJpcpde2TcjH+6dkl2dhZbuYHo0GtnXvd9uemmeXY291Rn9osq5mrzVfynBv16zPp96KdpO2hD027uzxijmKNiP58/cN04H9mPCqm+UDXxQJtHNTNop6rd8PcjKQm8ScschKOOHOs62alZJ/8uxTqDa+33+r3rv+1b1UHj97adm5s6xgHXRGJ7PdvMs0ftm/r9hZnEdbfHK8nOk9ZME4O8HWq86miZZKcDZ8sCMQPOzuNsse3xbfRkZzxohI1VPAbW8m3rxCQjHdSMf4jULRZ5x0DdBNr+WxtyYrM05uN98KQAdRK9q76Utv/vj+m3//yd7z6FwJv9fFy++sFas7c9NNdrY3jN1rzi2pPrTPJ9sWvLJ16HZdLty+QPR3g/FX9f1cQspU70QTeOrohhbszWrjOsiWvHX833oUz43tLgtdlocW9d2XAMfLGY9gjd1PuRfiO870+SnZ2F6Tco5bnZncd5hMBuH8MH2vz1uRdj3MTTH3zHXx9yr+WG/zNu1KlOzbZNRpzd4VCaxmjupnpb/CKKjyHWY8fFE8YwbQj1Bse8nWu0i9dbWTr/i4NA01/t0+4jYcfyR6ntqPH4Wq+jcCiKGq+YDK/Zhhd//Cw15XxixKL0ww/RB02CqB1m4zfg0a9fJj3p2DmGhYQnxld9zGOtB+mH617Xfm71sC4u4MOoFZKd52qh1K11VrNtJNl5ySTEFkRc2LzCCA2gATSABtAAGkADaODsGiDZQY77gwAADTtJREFUIdnJj+jAAhZoAA2gATSABtAAGkADF9IAyc6FnHn2zBv7uXuEBtAAGkADaAANoAE0sKcGSHZIdrh7gQbQABpAA2gADaABNIAGLqkBkh2EfUlh73lHgL64w4QG0AAaQANoAA2ggXNqgGSHZIdkBw2gATSABtAAGkADaAANXFIDJDsI+5LC5u7LOe++4Df8hgbQABpAA2gADeypAZIdkh2SHTSABtAAGkADaAANoAE0cEkNkOwg7EsKe887AvTFHSY0gAbQABpAA2gADZxTAyQ7JDskO2gADaABNIAG0AAaQANo4JIaINlB2JcUNndfznn3Bb/hNzSABtAAGkADaGBPDZDskOyQ7KABNIAG0AAaQANoAA2ggUtqgGQHYV9S2HveEaAv7jChATSABtAAGkADaOCcGiDZIdkh2UEDaAANoAE0gAbQABpAA5fUgJrsaIWUQQACEIAABCAAAQhAAAIQODuBf519AtgPAQhAAAIQgAAEIAABCEBAI0Cyo1GhDAIQgAAEIAABCEAAAhA4PQGSndO7kAlAAAIQgAAEIAABCEAAAhoBkh2NCmUQgAAEIAABCEAAAhCAwOkJkOyc3oVMAAIQgAAEIAABCEAAAhDQCJDsaFQogwAEIAABCEAAAhCAAAROT4Bk5/QuZAIQgAAEIAABCEAAAhCAgEaAZEejQhkEIAABCEAAAhCAAAQgcHoCJDundyETgAAEIAABCEAAAhCAAAQ0AiQ7GhXKIAABCEAAAhCAAAQgAIHTEyDZOb0LmQAEIAABCEAAAhCAAAQgoBEg2dGoUAYBCEAAAhCAAAQgAAEInJ4Ayc7pXcgEIAABCEAAAhCAAAQgAAGNAMmORoUyCEAAAhCAAAQgAAEIQOD0BEh2Nrvwx/Tx7W16e3ufPjf3ca2Gn7+/Te9/Lczpn4/p67eP6YdaLTKdua5h+zm9u/qhndH/jz+/hn59PcvWeR5+/Pn16/Txj2bs2JhaS8qeQ6D0v+HXWZ9SS2da30u2//UudC01Hq5/l5Gs0re5DqZpbL08x+dPHXXmXTAV1tS+suqJJuVljJX6/jPmk8rHRtycbra1tJx3+xG4fEzbD9W6nmbNW+thXU/U3kCg1PXAuXJgDJKdAUhqlXRw0Dcbtc1lC/OmaSUQ89STgNUgEvoQm76vv8TXt/v6Z0yfwiGgGqPpK/ivttcdEkRb364+GI+NeVl3n3BijR81/7tDnfR1/0B5KAy32N609fqWa8MfniUbP/ux9XIoUg8xJiUbIp6lgRvtBZ1pdVOj6qKz/4z5ZDCGOW3Iw4ZvZyZxlZm8vR+By8e0+6Hr9uy5vk1v4hzQbcCHuxLw/MW5r4mX24Yj2dnELR6C5juiwimb+jpzI8nB3x2WB6Q0s7QxhzvIShBxAm/Kff85kUk9pgu1nbFB17bVhwJ/B7M+0LUHkbExk4lcPJ1AfbDzBrX+/5w+62/xGi09fTK6Af9stb3V9zR9Tp/NN7QKwyZJmk3T+tNNvmKp36hDnJu/IWwSGCOmqSwtQoGx9u232k/rk9EY5tZIPQcXz+s4adlK+X0IKOtxCt+yyn10c1y4j9WH7nXgnHJo+y9hnNf14lltw1xJdjZAm+ZF8e1j+nSPRb1ysiOFKa9LqHJjlde5VrsZx8/0+ulT9yhhmwxV/bkgpvip2rStsVx5Smp934tjRhN5fT4BI2Gx/F0arB8qyjpHfTdgu3o41uZTran4Ta08WIVm5XrR+rpumUwO5HWasaHFmCS2cSW1zBed/cfSdOmT0RhmxfQBXWVruboHAUNHlv9LE/BfycO/k+zktVaXsjsRGDyrbRmdZGc1tbwBlBvI6o4u1iBz6U1MDyLtQSr20WVsBPy5rbxrL69jv+61aG/b4JLb+DcLRZuit2LM8hPePZeAvrmrh9HGUL1tU+2QBcu2m2ujmU+9Pur3okF1E0F88lKXqr7M+NHhWVDLcbaNjZ0+pE9MG8q4WcS9wobOOEU93tyPgL62Vc01Ruhtm2ovXKCfU14YyIOmbu5HnZg1ahrJziipUE8Gk3azWdnZparnTbg3LSuIWCJ35elblapntwD0xynkONJnZQ/SZr+Bq3dW5TjyuuzM/02Scqe7qsbbJxDwa1VoRR7+evaM1uv18azPlmxfs4E0dQfXy7PmfoBx9bhjHTR9efvYWzkR2We7/wz6ZDSGOf0o34jHm0n1422lqby7M4GXjGl3Zhq7l+eHWMbr/QnI+FaOJs9q5Sej70h2RknN9arg3242azq7Wt0xMZpBJBymis3+r/fp67f5F9T0DVf/GxvPVfpmaQH5BGfpoBD+SHfpoGDZejV3n3A+XhPx7ylE4mPNJWhSTYCtNkcpH7DdXIvNHLSD+OB6afp6nQIr7kQdyufSP3//On2df92zl0As7j+DPhmNYdV40nNubtzYkUiech215H899OIx7YGEx2PjA416gaGsmDn/Hen8i7u37MUkO6MCCocHuUH5QGMcxEf7vUy9G5OdmUNgnH72ed74OxvuYrITNuOlBeR9unRQCBvJ0kGBA8ABFe19Wx4ktQN8Nj0dInqHz1z9UFdjtnf0Lmfj1p/2y0Sd9p01Iru++rUdd8QvU4afOZ9jUK9+jI39/WfQJx3/FIe8Tuzt2np1xx5ifq8V0x6NvFgHjx78hcez48rY+bKHjmSnRyd9pgWWuGGR7HhMY2JcG0S69UNyJA8A0WVu0chkR0tCiva6j11/btOXyY78KdY4YvW8ey7m6skEnIa0b9ykX4WNTjtvuo9FtUNeDttuzF1OynOz7qYNrhfZ4Ytd2xu3BsLz1O9c6qxbXev13GjS30XcK22RcZO/2SnZHOld6/tgnfSzMHg4Log2r3zp+GpnhleG8oC5F/FHjteJWbJa75pkp0cnfuYCSHz8xXg94R3gOL19Xu+R7PQOALPVfsz2gFBu+qMbg7XQyvZjY+7DlF72IGD5NeonJ8tBN/HHKPYY/GF9rLN9aTMfORxZXMv18jAAhxvI8RndF9xmbjyGtGL/GfPJYAwzDxhW+8O54LIGWX6+Vkx7nvuW4uPzLLv2yObeYSTxa2iQ7KyhVdU1HVPVe423fgPMB0d91quCyIDA1aBfb9L1+2Ba01Ydr0yc5qZNu7nQGEOnQOkjCZjrtPZ3/f6RRt461irbvabbmwTBiFEtq2O26+XWqZ21vYsTg8mOGlMWJq7qetAn6niN3w1fqmMsGMvHuxJQfT+PUPumfr+rFdftbNU55boYHj+zJgZ5E9R4tdI6kp2VwGR1M+DISi9zfWOy88/H9P7nj0wriL48kIXNV3693NTTN2i3WOSjTOom0Pav+nhwzDwZrp5LwGtT/ZsdoSWnkcHD6XPn046+ynZjQ4m9jm/0g+sldvxir5ZPfvz5Pn2If7zWx5j6Wx1NsyVANTbFf9RV6FqtNxrDXJyUj3R6u8q4XNrFu0cQ0PQRyoTvLQ0+wsIzjzEeA888y2Pa7jS7eFZbbzvJznpmqYW6iaRPX+3CB9rN3+yEzTf9OIH6KFF7uHKU67bGgdUvovgYYn24iP4KY4Q/HO7/Elzsa+FXlGLXvD6RQO3X9m9RSn0I32r/Uv0TZ6INvcp2NdHPvfq4Vs8/vq/XTc2Vv2GMJJ1PlFjU8BWH09g2Po5UJuj50/nK3n8GfTIYN/23BdH/7bopreLd4wjUfm59syouPM7ww4/k1pa6Lg9v+iUMLHVb7znbpkiys40brSAAAQhAAAIQgAAEIACBgxMg2Tm4gzAPAhCAAAQgAAEIQAACENhGgGRnGzdaQQACEIAABCAAAQhAAAIHJ0Cyc3AHYR4EIAABCEAAAhCAAAQgsI0Ayc42brSCAAQgAAEIQAACEIAABA5OgGTn4A7CPAhAAAIQgAAEIAABCEBgGwGSnW3caAUBCEAAAhCAAAQgAAEIHJwAyc7BHYR5EIAABCAAAQhAAAIQgMA2AiQ727jRCgIQgAAEIAABCEAAAhA4OAGSnYM7CPMgAAEIQAACEIAABCAAgW0ESHa2caMVBCAAAQhAAAIQgAAEIHBwAiQ7B3cQ5kEAAhCAAAQgAAEIQAAC2wiQ7GzjRisIQAACEIAABCAAAQhA4OAESHYO7iDMgwAEIAABCEAAAhCAAAS2ESDZ2caNVhCAAAQgAAEIQAACEIDAwQmQ7BzcQZgHAQhAAAIQgAAEIAABCGwjQLKzjRutIAABCEAAAhCAAAQgAIGDEyDZObiDMA8CEIAABCAAAQhAAAIQ2EaAZGcbN1pBAAIQgAAEIAABCEAAAgcnQLJzcAdhHgQgAAEIQAACEIAABCCwjQDJzjZutIIABCAAAQhAAAIQgAAEDk6AZOfgDsI8CEAAAhCAAAQgAAEIQGAbAZKdbdxoBQEIQAACEIAABCAAAQgcnADJzsEdhHkQgAAEIAABCEAAAhCAwDYCJDvbuNEKAhCAAAQgAAEIQAACEDg4AZKdgzsI8yAAAQhAAAIQgAAEIACBbQRIdrZxoxUEIAABCEAAAhCAAAQgcHAC/w9tl6ERNvWemQAAAABJRU5ErkJggg==;" parent="JxcuIvw0Jv6S8uEPPxHX-17" vertex="1">
          <mxGeometry width="699.77" height="220" as="geometry" />
        </mxCell>
        <mxCell id="JxcuIvw0Jv6S8uEPPxHX-14" value="" style="rounded=0;whiteSpace=wrap;html=1;fillColor=none;strokeColor=#FF3333;strokeWidth=4;" parent="JxcuIvw0Jv6S8uEPPxHX-17" vertex="1">
          <mxGeometry x="549.77" width="150" height="30" as="geometry" />
        </mxCell>
        <mxCell id="JxcuIvw0Jv6S8uEPPxHX-18" value="" style="shape=image;verticalLabelPosition=bottom;labelBackgroundColor=default;verticalAlign=top;aspect=fixed;imageAspect=0;image=data:image/png,iVBORw0KGgoAAAANSUhEUgAAA0EAAAD6CAYAAABnGEzyAAAgAElEQVR4Ae2dT47kNtK35yhddzMwDfgqhhdGncKzau/fZc+u/N1gAK8MeN9rfRApksFgBMlUqqoypceAkUqKf4JP/CJIKrOy/7XwHwQgAAEIQAACEIAABCAAgQsR+NeF5spUIQABCEAAAhCAAAQgAAEILByCEAEEIAABCEAAAhCAAAQgcCkCHIIu5W4mCwEIQAACEIAABCAAAQhwCEIDEIAABCAAAQhAAAIQgMClCHAIupS7mSwEIAABCEAAAhCAAAQgwCEIDUAAAhCAAAQgAAEIQAAClyLAIehS7mayEIAABCAAAQhAAAIQgACHIDQAAQhAAAIQgAAEIAABCFyKwAMcgv5Zvv38sry8rP+/Lm8b/rfftrKfvy3/HOYSe6zDuv+0jpx5/fm6cf26fPv7HYzL/b8sX/84zkvvYOkJu3xbXkPMvCwvh8bICVExJUFA5IrfUrYVt4eXor3I18Nml6rwwLGZc/Y7rQmn9fM9Pr2n7TmAvs9+7hxsqlkQnxWOj3jzoIcgkTRejkzWZ13A7XnlxPPyToeUHLDv1P9HRMDTjiFihEPQ03rxww3/+9vyNR2edx1i7Fzz4fN46AEfNzbffU14aL/cY9w9Pr2n7T02P0pbMf+j9nMyjxkPc4rO2/3jP3983R4Op4fv8dV+kCttf/8HjsXu4/ZUss/4YUOZtz3nR9HNx9jxoIegZcmOO3SDd9YF3JlXPqS0ieAQeeX+jwvYQ+x6lE62RP0+iUYk50Nj5FHgYcf7EBC5wtg8jMcU7acPUZtWd403tujxajxGbMY1tHy7InDKOfud1oTHc8ZBFt3j03vaHmT+J3dz+H5u1yFI5q5yEEgHA3OdzvGS6r9z3OTxjhsns88Pv9Jc2LetYfGwh6D3iVkZBGpxeJ8BP6jXT5pXDliCqXH0u7NhYW2YU/ABBG7MNYPNygcY/AlDfHZs3uijTyD0fEPe49N72j4fqQ+xeJBXysa/HCaqT4D0g8M/X82v9Jd+nvfgUOZQWHyIj55kEA5BT+KovpmftOi9+0a/P+uHvvvubFhYH9r/pzXuxlwz2KycE9Nnx+aNPjqnEw6e1T0+vaftwdM4S3eDvGJt/EvZy/L65wyI4revf3x72r/BLfPmEGR5/f5DkNjsyY8V5am7/phRJ2j9fjVzpqwINIyrT/ZrN8q2r3+8mT/CkMAUsWyn/urrG8qm3Hf5RKlp/zIbbMmCydc8drTTm5f0gQz6np26TV1XBZGwo/hY+SV9BFuxLPOU4yX9SFsXmexCX30b6v5SXWWTaYuq0/hO3F+1pu3KfUqdlKdH69wKozL//Vd9e6yxajZJO+oHLSqflnjJ/el5rz7RsdfUSX7YZluN8c+i7ar8nwA1fepxBXdpj2yXfSS+blt9pUsw3XRb2yLu//xteUvfLZfjJXt3vX78HCrvC79EvRb/lx+tETYGdoLJysxkXMeBrLMLk2qk9RPziNJcaqPmaMWl1Z+rgwmdVIylHkNbZaewT+b1FH91Pk5cyxqk17zIYq0X68i51XNamji02Mj+V5tkf2t93WfCfs+rHGPtv2awzV1xTbyqcVWdwMaJXTlmnJfQedNG3LtVD9lA2Yfw53q/0kRRU82hjr21mZ5DmG/zNzli3HfJacESZ98lxt64JZ1mLN6F9KXIOal6YVPiq5TptSO1Uq+Ce6270qdqcfdb6TMZS5Xtpsb8oUtb326vjlVe21h8eKu9dT86rm1bZZte/Po02jt3HYIKoJSM42tIQFKkMmmI8pio9KK6Gjkqq8eLwV1vMhtYOchSW5loiiNTX/k12y5tSn2sr2s/3r3jF4Vb5iXrRoGO7ZRtMoOKnRCnSBJ50RH+bdpXyeo+W3LACRua8Va7f/4q/hC8+C23X+XW6SPPa+lopEpK/rxKX20g3l4ya4+Op8Ig88oa91kE2z1Oon1PP5m514/QWa7rLuZpHkWPJR+VstqeFPPCR0mTHZuK3xzmYv63+7Fu8aFzEHbXnBJb+WqwE/7KWhKH/TIX2U+7WasJ3P7OHUdt+Lx6xb9CF2puWY+36mSS8aj/aKNvX948uvZF/0k/5zE761fwq5hDL1dGDSSd3O5Hr4W0WeosX5s5vuSAtd9+H3VdTydlPPGLtS5vuR8ReUOyVBOW4xbfyM1hYiv6UzqVD6Rkf9n2UF/O1+mrY6cye+Kt1O02B3efkOY46Fa2TzlcNClzF3OVbRK3zjxLH5tNwtclZ4hBD7iUOo0akOzqPCo10hu6zKNuv2oi9VHqCF6L1F4plzZKXcW+HD0l3sJXXj+lzzJmfSbQ85jUjANp9yGomkAlpLfl2/ZzyRbY0i5NUDo5TWZUJhKMEGZJANIRaRy9wUtjSUeXMvkJhClG4UxZt3rK+edrFpnD/8bi2+ZVWG9il0lA2i/slG3ywqoXkdRWsO8lhaKDwreUqU3R39+Wb+tH1cJW2XdulzQnbCj2Sk6if1k3zUEebnKZXDSTzXWfKXlUvER7uVmQ9t/o8E71eXs8G2V5tlEycjeRIqbWDdRv26Zgl89EX3Ls5F/RZ/FvrY8c96J98k/WS7X4F3ZN4hY+LHxsDWRmHS/dfOsj55AYyxiQPhe2FPYyN4/ysPKTYHszl1saCM0kHxVf6qfA1nolcsY6bspJkpOYS+nb0ElibNi0dp31mepVzEVsePMX9ZPm6w1Dsil2UGwtGyBZJtcvWZ44yrzmaaLY4Rl9W7m0I8e64LlumpJ9sm4qk2tJsVlpM/Gv+i3sZL/Zhnv0YCGQY2d9lVyVfJM1Iz/FFm1d/qJOZiPnIDha5u0vkzkjMpU8pb1vvxXm3fHEXBIXWb8wUjEk4qVstlW8h45a7otklfQiBz3guuHizVPs2UbDFhb68FByQKlT87LKpY1VPMl8prRU+iljev1U5VsclDJpX/FR0fOIRnt/5yFIiloapQYQgotGinY5yEVZDurZsnU8o24zbrLLqCuFnU6r6rWxXW4UQtfFGTGwOkySKXteb5qX3Mgn4Y3tLGJLbZKhom1KAK49aoHJPBMX0Vf2eRonvko7qmSV+9qSpWNDCbo05tqvGDfpT7S3x0ntRds0/2CqUy76vSdAayrynTNukzQtzad+jD6E3XpxaXySGG7dNfezr1Ly7fvMimXZp1ws1yFbH5f5RObb+59fl9ft3yIL5ZlRa8+0BhzdJrL7Xz9wDknHwue1Vi3tWGXBG/Z35jNra6Oxn5LVsugh6S2NKW1O8ax7KNz1wp5rCk7TOtkYSx3bbQ0tqvjKdlRrXplr8Z2c79bv1ljaEePJr1vly5FWBJtiR7H4nqvW5rU3x26ht2SH3T5aVDQTdeHXFfowWNg+TVoz2ppAjDllrkZfTX6NWkjzTkOUORatlNwubHu3nNab12ZTYpqMHr0KP5e5lEZlzolbubdeST8n30lu8r5cd0b91qPc/q4dV/pnZWXPpzfSjM1eHatc2iiZmfkiGWb4S/YjGbf9SP0IDUv9u7kyGeC/HnAIqpNsPZQwfhW5AFEmLerkIJwtW0cz6ubEUZ4QRbuMunJjLKHK6wDYaitmK8ZMQbVHsKLH9lKMUYvPts0UmejDstNsEywRwZgSlugr2yPKSv9JuCmAjb7UbKUdbT8iGYjxsg3mBnkdwBhXtLfHSYdBo63HZS0X/Uq71DTveOvYI2IsLg62NuLARh9du2Vfyadpo2kvLDXTzf/uGLL/mFekDkrO2KxP/6ByXhhEe5lvfnsrB6Y1ltP4ho5re8sc49gGrzs8aDf9hDkkHurpnZlbrXwbJuKwafRoz3p/qeAlc3a6nsndPfulYYLTrTqROrbbjmJjNUQwTvMTryXPSCb1+iztiJr261bjGbFSxnvffNfavLJw7Db0ZrePjtWbPL+uYG+wsH06WjukuLZrobHVP9m+NOZAA8GORvMlj2U7Q511TGNehln3Fdm+ynMTGi6fsg1GNPwsW5S+055D3i3X0t/l4Ye012C32Vvpv3R515W0J693QhPZf3nNGw83w8KrY5WbNgYzOloy/DXfz4Q/cnyMeega73wIkhuj1+UtO1MmZjnBVD5btk7HqJvHufEQ1AVpjKNpru+ls9dg6fZpddApu2lekn1KxqJvx05XmLJ+SqCNPZJRST6lz1TWCZbNxNLGsF1MI29o1QbOCl4z4TdzkJ3La89mp3y6XznGLdfOuI2fpE9SfKVxjD4m7S584yKxJux7fWb5p9dnsSHpStrwunzbfrggLCZpXj9/W75th6e8iKV7SkOJUnk1eJWbh12VOX/QHNz5W9qxytapO2waPR6GKXYkbC9PhIUtzYZQx0CyR7TxcrYYK2snNa9e276KT/fls7V72UceX/DNZdaauNkn+4ibLM+fa4N2Hl6+dcsrLvvetDav/Th2Cx5JD3b7aIvOIX7dG1g00zTaNnVSQalr/TCG6ZPUVL4KrSYOVdu0hls+lv0ccu34autbMl83+UXHvcELp3aP1R+v7lX0kx7CSw3JA5q+9vJEPcBN7ySLfAhKPWi7JsfXGk/dyVe7juRorbE6lwmW2jZp+6Y9d65NXWmHl7/lbG673nkIqhNyJcK/vy2v298ERVMEGPMEbU1wtmwdwagrISZhq0WknPrF05YmAMXfO1jjJNbreDmpODaluve83jivRmQTdso20q8lSESSEok2Ji7h68xD+qcEkuyvJOn4RDEEvzPXgE9+H7axIQIu/Zcxq0UgB6mwWT9dqbQs6uW261hOubCrmt89/q/aOuNKbkaykQuM9HUuF3bnsm3ct98kS+PprxxbxF1o7vhMxqG0JzOTfUruw/Kvy9fwFbgtaeb6qVzORbDcpYHKMfe/aWx95znk8dYDbVlkKn/kchnPpa4bB7Jv6b/7KYUeio3Cn0LDSUelnnowJWK85Izy6WYYJGv3Dp1IDpnlBiH3b8SU4FTsK9zlvEq8Sh8JLmoNTJssu496jc99C7a5bLXRKxf2772U9iWbzXV/HUByTmuQLJMatMrFPLz1r5TfoYcODDnf+OS/+HttVnQg1uLQX9mvlD6E/+XcEhtv/erYd/stqcc4l9W+4kvHb4OBPA5l7jWftX41poqH5FevfTRHzkWwHdg6e1uOHWxdNZp9tfYix6914Y1ROPn2ynFzXMv4EOuirKt5lrFq1la57CexX+cg6yZbqroVj7X+HAePz+5DUO2M+iPDZHgaVE6q/YqY5dTZsnUEq24NsnyEKO0U4CpnyzpywbTHCXPstVcOS0z2vtYsla3hkFnmJYWTA0o/zUjvNztlG5ObXEREUo0+l4ws22QQygWkrpsCqzfXVMdbfEtbZ0wxj96ci5aFvaLt1ObPPPzvVUBq59gjtZi1N/CLnE/j0zReL6YK48K99umqJctnpsbUJrHnnzafCC4r9zw3xSCXx/n1xhhroDA65urj59DzW/RRyiuSYypbZy1srtiKcpVrDmEl9GpqaSIGTP8mW7fXpN17dNJjnPr38tnKqjf2OvcyDytWo69kH3nMag1t47bEUOewI/wg7TjCx2ObhQ7N/DdiV/JXvZ8wWFQ5pd9v4SBioIoNh46cwzpe1vBWX9+XWk39C3/04+JG2xyT+8VtzpA+1fYVXfZ7rXKOZJCvhS7U5lqPub6P40pbpS6KLdL24uNy/54r2Xewp+drrQtn4F7eybHdGyfwLCwaG6txhZ6yH0QcCZtlP5Y/sm2h/16/tZ8rcybe3HEIir1bE2lELAGnIM3GSdGlycyWrZ1YdW3bXv/069b9FKeVuXTayvkJx5e2ebKHXGjm3rxkvV5ASTvrNkp42nci0ZZkULdZy0ufJZASiDZAVR0xRg4UaYe4X2yQmwDZn7BN9rEaY/ow6XGt4LX1yusNw2q7tC/Nf/+rM66ch0g46zjFD0XfjU0Oz0Ag/w1OaV8nqm02oo+xz+S/RbP2K5kLOnJeKca0D7fqUlNyftX8FZvQ1BqjssdhLsw86vIz5iDHXP1m5xUvD3bYaK4W+zvAVX4N/hK2qLHqulHHMv+tZmgOzUFbzyfoUepWjK81elNslH8TJuGpbFv7FrZIrbfrWbRPzl/PW95LcVv3Wee06p6YV1WeDL/jVdpVbHZ0KHhMHR60fzY7K87hKXjHp3LMlJvuzBty/DJnCVHOv+RjWVdyi3lVzCHHhShzWMhR911LW1sdJq25uX8wqGSV+jI1KDSa6oVXOW/pS1kubZipI+vfcC19Fnwpx8raSge2uY4tPnn+co6Kzzp+aVv2UY2Nhhmlna3NtUndj9DhOk9pl+jf6tf0tWgzurz7EDQaINwXcGWQTrWl0ocSqIX5oUMz2FUIiHxwbwK7CrLPmadYmJxF6XPsYlQInJmAODQQd2d29KXn9ih7zQ84BImArp6OXNr/Dzv5RxHmwwLCsPsJcAi6n+HBPaxxXz+gknn76E8xDzae7iBwJgLkxzN5k7k4BB5lr/l+hyDjY7x6kXXIUPypBB5FmJ8KgcHflwCL/Pvy3dG7jPv8VYn09Yv81ZkdHdMEAhCYItB81eeynwKJT6BTDhKvfHugyKnRjODkfaWstP7cK7nmfObZ4MMOQZ85yc919XON/ijCfC5qWHsTAQ5BN+H6iMoy7sshqHwP/CNsYAwIXJlAtaG97AHoygq41tzlmvOZ54P3OwRdy5/MFgIQgAAEIAABCEAAAhB4EgIcgp7EUZgJAQhAAAIQgAAEIAABCBxDgEPQMRzpBQIQgAAEIAABCEAAAhB4EgIcgp7EUZgJAQhAAAIQgAAEIAABCBxDgEPQMRzpBQIQgAAEIAABCEAAAhB4EgIcgp7EUZgJAQhAAAIQgAAEIAABCBxDgEPQMRzpBQIQgAAEIAABCEAAAhB4EgIcgp7EUZgJAQhAAAIQgAAEIAABCBxDgEPQMRzpBQIQgAAEIAABCEAAAhB4EgIcgp7EUZgJAQhAAAIQgAAEIAABCBxD4F//93//t/A/DNAAGkADaAANoAE0gAbQABo4owasYxOfBFlUKIMABCAAAQhAAAIQgAAETkuAQ9BpXcvEIAABCEAAAhCAAAQgAAGLAIcgiwplEIAABCAAAQhAAAIQgMBpCXAIOq1rmRgEIAABCEAAAhCAAAQgYBHgEGRRoQwCEIAABCAAAQhAAAIQOC0BDkGndS0TgwAEIAABCEAAAhCAAAQsAhyCLCqUQQACEIAABCAAAQhAAAKnJcAh6LSuZWIQgAAEIAABCEAAAhCAgEWAQ5BFhTIIQAACEIAABCAAAQhA4LQEOASd1rVMDAIQgAAEIAABCEAAAhCwCHAIsqhQBgEIQAACEIAABCAAAQiclgCHoNO6lolBAAIQgAAEIAABCEAAAhYBDkEWFcogAAEIQAACEIAABCAAgdMS4BB0WtcyMQhAAAIQgAAEIAABCEDAIsAhyKJCGQQgAAEIQAACEIAABCBwWgKPfQj6+9vy9eVleUn///Y2doRu8/K62K3eltfU7/r687flH6t33Z9jw9tvws6Xr8u3v63OKNtL4F6+a/vXP+3R//nja9HYwHe1HS/L1z+0aiZ1ZZtyudKave8jCUa3eXFisrT5Z/n2cxuT2pc5z2x5wdPL8udr0Evr+zLie13pubs2JgN0/nqxNLssaU6SgdV3y0zn15W1zIX6uvVDMpXXlcC9+SPx135ZltZ30Tfaz1pj4/haltRG93Vpn66x5+0rGjCTftfx7OS+5I8Uz55fak0Qm41bdMFNPtWNeX8vgVld3zLO4x6CtmAvwbslCSfow6RDGxnI3oIQ+yqbmK2eTliTNoREItpGR0k7bnEJdTWB+/iWxaVoqYzQ+Grb4LZ1HY2UrvIGZqirqs1130T2YrPmsi+MQhsRa8sWo+5GLd0fHG7LCNuGTo4hby4ppziHiarusW/28XqtH8g4B7i334QfFm9T+7a8Vvk3sajberMOcVy192petXxyXerh2fz7Yjz8m+F/c3wFW/o5tmfuWe/FWO08XK0mPun3yf3IbJ64b12tJnCJN7f59BJIPnSSs7q+1aiHPQSZCTsk+M7h4u+35U1/AtMkDmeTY9SbsiG00zZtmwMW/Fv12NbfzTdt0MqT6PZgoxefOLxeHNZSq0wbG4JUb54NXel213wf2WufjDj/8+db84ltkxwD0LIxi09DdYw61Ef+ypvMjz4E7eNlzXLEOLaZzGEjXsmAUe5O9S78en/+kDmvPZgGvw/WpPn4Ko6K8Wd/qlRqXeRK5IeQd/R6YGCY9bvpvyauJvPE7nXVmMDZi3b49OxIPn5+k7reYdiDHoLsCaevCpQn7TMzjn2VNnGhKO9TH3rRn7PBTGD5SWq7EKXReJ0jsJ+v9J+8FuM6G7h2TKe96GrZPiEY66pqdN03YWEx4qNZ1CcQWW3kIi+vB921vpcNYo54/TPqofW1rHvw9YG8+nMsdpubrnJ7u5qJje0hwmAD3nR9qYLZdakDZdXIz9+Wt/D1Xh1bXv+d/tItK77SvfD1va/Ltz/jV9f1Q41c7SIXMrbktT99zy+xvHzC7cWZykWTecKzLZQbnyL69p//jmQlr88/8wea4aSu91j8mIcgN+nqxDAzZZUknI3v2lP1hHTKho49bvsZm6kTCRzFd3IB2bA3mz8vAKWbZnUl21z4uoo1yaHDUVarrkexNn0IUrmiGkR+gtyvp5od8vZIXo2+TQtj7A0PejNs9/jUtOnEhR1Gru8rHCXH2RvZSX9WfW5vOvGVtdSx3+ryCmVTG+YOt8rvrg/qNbJqIyFX49RtZLX4t4GTn5pXDa/xZsqn10DxobOc0/U+kx74EKSfZMUJ5qQ7O1+dPEIysIO8EnhoN7Khs7B0xpk1nXpH8S0bBM00bhiEHrRe0qd669catoUk/bFpeUq3LPFvU0Q/YqBKV6L8ypd+HPu+8ni5CTI1mIzFqAU75mv/ftIhyPwk5TZe3TkmXvqBkCivL+c4DP1Td3rNdx2NzuQPGU+2j6Ovcu4KP/7haF15wPWfXCO33Hj1T4Ikuhm/1XlFtpYPXdIPl9j+kr6X13VvMk8cta7WI1zh3ZRPrwDig+c4p+t9Rj3nIWjie7YBx5aYq6eZo8UmfRQsE7xiWxaFUTKZ+7Ur1T1vM4Gj+MoFIHeeL+KmIf3tUHuQCf7WvyC4aSsfhGZ1lUe99sUoqVUx20EVfdf6rGrS8U2p19Fa81XHuc1/6fv+q3t4Zf2uGjYPUqt9cf5pk+zyT7oPm+gB9zDtfuzdT+YkPXQ0GjVub4DD7NVaNawfGiV/933ox5fy66YLDkFFj4HdaK8y63fl4zJK/Q2WuTzRyXX4UaJtrqd82rSi4F4Cc7reN8pzHoLchbxAiMnbWPRHSSclrVHSCTaMkkl/gSnWcmUTOIqvWrDzYNtGoNJTrCs3i3ET2fqy2iDM6iqPfe2LUVIbb6Y2371MPGjo+CZ7oVMn2JryQmgQNeIeFHKnx13cz2uzJeQ1Iy8qU1P+7M8x+aCNjdxdJ4/mOlzs/yQ56LaOgei7zqEp87byX7qZfFv3He8a7Qw7Uk9XfQ1+qPKGQaKTd6r2nTiSuUFe16PJNTD6z4ztjj11f9d8V/nkmgg+ZdZzut5n2gMfgqyF1Ui+xrwDMG9z1EnWoV1KWiHpjGzo2OO2NwymyCFwFF+5AJSh3M2C8l2li9J827hsm4RZXcn2F76eYury2Q6q6VNbt952Y2Jhd+1RWog9ftIhKOUmOd+O7mS16tqcU1UjvHHjo6raidH06VL1kKFqzJtEoONHV5sO3zm/xYHtvvvxZfbfsT9N8WqvgZMVsxJEh1vlGzdm6/ir2rjj1G1kNf4mqKLRvJnyadOKgnsJzOl63yiPeQhyE8No87EFd/ffBPH6UIlh0gbPOeZCsc9Hl251DN/oc/3pgtd3+hXCVN/1ZdBIOihP6urS3iyTd5m6i/3WdotL9x83LkOUq8pPpbhcxdhvn4ymfJK+Kmm9Jv+X3t7jajcvyxg3t6nKI19s1WfjSPXO24rAjvwR/GNpUpQNDqCN74bxFe1MX5u0X2c+haomf8o3IWZHh6DtH8d1c0/ynxuztW5m80Tj980DbvtTeuj2Sc359PZ+adEn4Opyco3q9f6YhyDnCdfwKcUkEDMBNElGHYoSRT2Gfh/qOW1TH7zOEziEb1wo0qEmDT4dWI02Yg+6/Zyu0ugXf3WYmgwFqtF9UbVchrE6h5XR/dLTdlVvPJrb71Gwk5dpihlTbU2t77bGWtLJdWEcNsQ2t7bU1Lbj97Z1KZnz21q/1bFpQ+nav9php9/ZOe4EPwwPQfXf9OSZNzydONOx3LSLPTZ+1e1CNWeMbBQXsz6F1MEEZnW9Y9gHPQSlX0OR30duE3ZM9mVzEwI9PTnpwdiAlqcvTvCHRNG3IW8CRLKbX4R6RnIvEth80+Xb1qnp2YegtAmQf/+Ty8R4a1+NTxsNpV+Ik/+IpqOr2rjLvgvxKr/S1izM2q+eHwcIg69KntC1G9/qCs37Nhc1Vd6hYMwr6TTN9W15VTqOv0YlNbrpVufNJvfFvvWDhMYmMe9wT48v7nOpCDQ5xcofUXt1zqr7MfX897fl9Y9/RMWtbxl/26FI+1g08i8323e19Xt96jvBD4b+o39SjN6wbjQxaeehJiabvLpi1bk15Q4eWvRE5/m014Z7xxCY0/XtYz3uIWidyxb06SP3cmiJE9XJJEISXwUIv2CU3qvg3pJ26ttdVAY2bJYs335O46yvaqzb/UKLikBasBNjzbdN6FXz7uKu+1YbRNFR1FuyQR6ORaVZXYkmV76sY1ZsDAIU7ddtA1jFdfGHG8PBJ7rvQj3YYGxWSg19ZW8+dK33eN/nlTYyZa51/ciq3ai2MfBifaVYa3v1g8tt61Mfrt4Dypn61IwbfvsPQV913Hh963rpfVNfgN/sbrUl6lzs0tsw631LwDL0+wZvaj+yfbqU/GbFcuhOx71eVy/msInpej6daFz4nnsAACAASURBVEqVAwjU61lZ5+7p+rEPQffMjLYQgAAEIAABCEAAAhCAAAQMAhyCDCgUQQACEIAABCAAAQhAAALnJcAh6Ly+ZWYQgAAEIAABCEAAAhCAgEGAQ5ABhSIIQAACEIAABCAAAQhA4LwEOASd17fMDAIQgAAEIAABCEAAAhAwCHAIMqBQBAEIQAACEIAABCAAAQiclwCHoPP6lplBAAIQgAAEIAABCEAAAgYBDkEGFIogAAEIQAACEIAABCAAgfMS4BB0Xt8yMwhAAAIQgAAEIAABCEDAIMAhyIBCEQQgAAEIQAACEIAABCBwXgIcgs7rW2YGAQhAAAIQgAAEIAABCBgEOAQZUCiCAAQgAAEIQAACEIAABM5LgEPQeX3LzCAAAQhAAAIQgAAEIAABgwCHIAMKRRCAAAQgAAEIQAACEIDAeQn868ePHwv/wwANoAE0gAbQABpAA2gADaCBM2rAOspxCOIQyCEYDaABNIAG0AAaQANoAA2cVgMcghD3acV9xqcWzImncWgADaABNIAG0AAauF8DHII4BHEIQgNoAA2gATSABtAAGkADl9IAhyAEfynB8+Tk/icnMIQhGkADaAANoAE08Owa4BDEIYhDEBpAA2gADaABNIAG0AAauJQGOAQh+EsJ/tmfWmA/T97QABpAA2gADaABNHC/BjgEcQjiEIQG0AAaQANoAA2gATSABi6lAQ5BCP5SgufJyf1PTmAIQzSABtAAGkADaODZNcAhiEMQhyA0gAbQABpAA2gADaABNHApDXAIQvCXEvyzP7XAfp68oQE0gAbQABpAA2jgfg1wCOIQxCEIDaABNIAG0AAaQANoAA1cSgMcghD8pQTPk5P7n5zAEIZoAA2gATSABtDAs2uAQxCHIA5BaAANoAE0gAbQABpAA2jgUhrgEITgLyX4Z39qgf08eUMDaAANoAE0gAbQwP0aeL5D0P9+X3768mX5kv7/5ft4E6/bfPl1+W4efr4vv6Z+19d//778ZdXT/Tk2fP9F2Pnlp+X3/93vMERfGO7j2/dx3af0X7z+9b9l/NoXW7+WZib1UvfnjXP+8r/+81OJ7y9fFp+5ZNH3a2D731+rftccYvet+urG7i11pb3HXe/jVcZfNW9zKHVWfmkcr266P8rNOsZ++s9f4xxu5eHLlCmNWTnGYFFz9tefut7k2uiseSWH/bX8/m9/zFKv1tjpy9e1YNJ/P35M+n1yfdHx6cVxrQd86GlylqfXnvKDY/+m2CpjP9chaAv2Erxbkugl5NBGBvKanNcNrU72sa+yIG/1dMKatCEkEtE2Boy0oziBYLidxT6+kz42NhTBf8Kf2mc5Ieo628a7aHbTVU+zxvh6vLO+jxxFbDb8LK3M+fX7L6Jfd1Mf+yr++rHETYERu1suKDnDsu19y/bxSjbFufqHwVRvfe3XjYxqvq1GnZx6Yb23jCTzwr1obIahUSfEUath7beoJ11v833OWUb/0odbXHzpPjzQ8zz/e3eNkOzydWQ+9PvkfmQ2T+xbV8/vOx2nszx1O96/j1Zui63ahqc6BIUAzYl4m4iT3LPY/vd9+a4/gWkSx/aUU29gjXpTNoR2eiHZFg5tf056tWOy/dxvnxLv5BsCZcLHDXtDB3WdskGsPz2MPi8L2eZj0378nzba8gCyctYLc81+PnZ1ux8/rJj8vnxvPu3TG5LVV1bZR/sw2nArrzxv8am37kOzyouM8elZsyFwctbIj3pM3u/UdlgT2wNps3aZea2NCdO/ZluRB4O29Br40fHxIONtD3LyJ6R6DTLiZXatany69tXsiSbzhLkutXogLid5Gn6F3cExuSO2tA+e6BBkC2/fZiT2VTanzma12STN2WAmsPzkuV2ctFN43w+UfXxnfdyO7Y2X/BTu//K93aybG4W1f8+Wduw0xiVenc1bu6hLTh7LWP5l8NDB3EQ0i5fRl2dr01baevC1Z0Mo721AZR6T1559a52flt//G7+KXB+YPP66r5lxdJurv/fYGnoUunMPm1ovjk50TNj9Gf6Um2h5LWy7RB5T85Xrh7z2Wcz63fBBGDuW5/2N9nuyT/nfsy2UN9+cuXBsTvL0/Xthdkl7B71KzcrrW9g/zyFIBWyZZH9BKPWk8FSScDer6in0lA0de9z20jaubZ8lLjv5zvq4CU6lFX1fLPbNZsEdszMH3f+F3jf80txdjj+WH517bn+p3+nDaOuv0PfggNXXcdLz/ld3fh0mrU3eRqrYledq9RvKegeurR9v45B9UcZrbbzoPYv3xsv1fe+TU73+mP1HrecNtPfwbuT30f2L+n1qo2b6JcZA5Xftz8y0zldVm1xH5866TRWD7jjXjMs5ntdkU+lGau0Drqdiy7DjyQ5B9qcoQZS3bEh0UHcSdgU2tBvZ0C4iWRidcXIdw0nckwllJ98O+8rHin+45z4Fq21pk6N3gIrlo08pruZ3P447G/Wdfl3Ztv6SOhPXYQz54wHF71Ef5Qc06k9JRB9KV0f4dhevxo4O27WuzHkNB3l/03T6ip36yk+Osa2P/NWgW/J2Y/v78j3CR3f1sVPbXs6K5fWBNWhI5De7rc5XUf/d/NWx/S4mT66BHAe9eXTYVe1lbKr+ZG6Q1zV7Gfslp9V10mGp1k1TR41/5vtzPE+emx7Q31Vs3GDfeQ5BatF1g3BbhOWTrvg02Q7yalEYJZ1gwyiZyM0UgeL6yRXxTr6jhUVsBIpNnbHSE1Khu5Acxfu1n6if2ufff/lp+Wn9cQ42gNXfe40Wlypmkz5u8mv0Z9qAm/2lfvOr3gCuMVs2/LIPy9dFS8fH+i5eeV7JHrkRSmXpVd3bcqc86KU51z80s/ERsRBs1b+4ufVHHCTe6vUmbcu2Lf+wxv37p+Un48cKsm/CAdZ+yCc1H+JnlLs6tr9nTDx63yFeRFyY9nbYxXjbfDS1H9ke9pj+ijqJOayz1m1xKuPetLvJLVKT57k+Ju+eh8ejaGEqtgyNnucQZAZ5LbS8YOu6o6STktYo6YR+R8nEPmw9ipAe346dfGd9LIOk08b6O5WQHJNWRD9Zd9tT8nUx8RNprdnH98dx9vpM1GZcsB0+wDD8kZgmv8iDTLoXXkO8Wz+Vb2wyg03bIaszZtW/nMeO6128mnE8tttcZK40NkOJYbNB2til8mCrsQGP7cmJpi46+Sdw6+ps06j8ZK7pL9ap9L/5uCoLvqx9NPRbM9ZxecJk1ej6Mccb+63/yUvVfmo/0ltrZOzvXFefhPuRmjkm7z6mPo/k9NF9VbFxgy6f7BBUJ+II2VisDQBxEa6fyGcnbYk/Ldi5XH9lxlgMWhs69rjtCQjJvH+9k++sj4V2gmbMjYaxedBaEf208+ksON1259aJy7vju/v+Jih9Utc+/Y6bvC9LtRnMvrH9v/o5tmv7azVwvy938cpzSOPLjVAqc+Zh+MGfb83oGFuLfe/B8+H6NHgnG12ejX8FM7Vp9vqofVr7MY2fftzF/RQv2G6t18Kenq0nvRfYmmuK4DLrd3c/Ua+Rnp/r3Fm3KX5OX3nFl4nJHE/hz5NqOfF4lNep2DJ88TyHIDcxeEk6iXALbuMpZHGe14dKDJM2eEFSLy7JPl6LH+ZY7OM76eMcJNH31iY4+rH8HUj6epV8tdrlebJBqL4Gl7i48eEu9qtebvWr0pjRd9CX8VPQyc7eBnBvIi59K/uyHtvyfbx0P5Ff/QAolkk9t9fyKznWBqnu17WVWDBjIerhTm0r7QRd50/21Nom60qfuGvedlD2NvSyD9n3xa/n8sOk313f1O3d2FO5b9+6qvPJ+d/P8tyT02mzXz9zsdX2/zyHoObnqrfJqEBuRDS6vyVlMwE0ScZZOPQY+n0Yw2l78UWh8dcMj51853y86WrHIm72b8xntt4uNsZ4T9NPE2/RFyNe5n2nL82iWdD2tgvcPzjGHVtNHq4u6sOK5lO9N8erN1y5vo5Rs63ziZNra7uA5fFO2sb0pcOyy8JoY/bdfJrp+Ndbj5MfwnjW4fh6PpR+md2omb5pfOjkm8nYa8bQ7YIvnTGSn6/42vhhbp2SOuD6+DwwG1ua/RMdgtLHsvIrbW2CjpuaknxDoOenXx3wm7DLE3wn+EOi6NuQnxSLp2TNZuuKyeOwOW++6fJt66SP/4c+bjYCHd2IOTWLSujn1+V38Y/1an3qgLz6+8BQ/khFszDv9Osa3zoPNLE8eLotfJ1jXPT5Gb4d80oHjZITa43dewhKeVn2H/vUX5VqcmCTc+firLb/5G0aRta6pHl/X34Vukyflmp/tPkw/T1K/aMtlq5jmVwHlR+C3VIT6n4VS9e5F7iJdStpuWE85fcUe9IP7Z5oHWMmT+ScJuyLdn3M13sTi2d4neN5HV0/gs+82BrZ9lyHoDVxbhuX9PWMsqGNgtPJJIrV++qSCu4t8aS+m0UjJe6BDRH6tlilP0yVG7vUD6+dr4KMEsiIr7FZXnlP+jjoRiwGo0Ba71ttoh6F/m7sc2bcs9WpY1ZvpPb6Vetl9YnuOx0YhL9y/Fr1dZ8qn3xQfPd5pTm1c426OeAQtM5zKicmWwrf+mt4o5i/6P1hzjIOQZVu5SZZM9zaivqmT5R/618D1H2mPOtpzqj/QbHy2bnS26jpfUuwc+j3jaPyjd4TpTmP8kSs9xg5Ldn8yK9zPK+r9Y/2nRdbIzue7xB0kWQ5chz3SS5oAA2gATSABtAAGkADaGCfBjgEcai649OYfaIjWOGGBtAAGkADaAANoAE08Jka4BDEIYhDEBpAA2gADaABNIAG0AAauJQGOAQh+EsJ/jOfODA2T7zQABpAA2gADaABNPAYGuAQxCGIQxAaQANoAA2gATSABtAAGriUBjgEIfhLCZ6nL4/x9AU/4Ac0gAbQABpAA2jgMzXAIYhDEIcgNIAG0AAaQANoAA2gATRwKQ1wCELwlxL8Zz5xYGyeeKEBNIAG0AAaQANo4DE0wCGIQxCHIDSABtAAGkADaAANoAE0cCkNcAhC8JcSPE9fHuPpC37AD2gADaABNIAG0MBnaoBDEIcgDkFoAA2gATSABtAAGkADaOBSGuAQhOAvJfjPfOLA2DzxQgNoAA2gATSABtDAY2iAQxCHIA5BaAANoAE0gAbQABpAA2jgUhrgEITgLyV4nr48xtMX/IAf0AAaQANoAA2ggc/UgHkIsgopgwAEIAABCEAAAhCAAAQgcFYC/zrrxJgXBCAAAQhAAAIQgAAEIAABiwCHIIsKZRCAAAQgAAEIQAACEIDAaQlwCDqta5kYBCAAAQhAAAIQgAAEIGAR4BBkUaEMAhCAAAQgAAEIQAACEDgtAQ5Bp3UtE4MABCAAAQhAAAIQgAAELAIcgiwqlEEAAhCAAAQgAAEIQAACpyXAIei0rmViEIAABCAAAQhAAAIQgIBFgEOQRYUyCEAAAhCAAAQgAAEIQOC0BDgEnda1TAwCEIAABCAAAQhAAAIQsAhwCLKoUAYBCEAAAhCAAAQgAAEInJYAh6DTupaJQQACEIAABCAAAQhAAAIWAQ5BFhXKIAABCEAAAhCAAAQgAIHTEuAQdFrXMjEIQAACEIAABCAAAQhAwCLAIciiQhkEIAABCEAAAhCAAAQgcFoCj30I+vvb8vXlZXlJ///2NnaEbvPyutit3pbX1O/6+vO35R+rd92fY8Pbb8LOl6/Lt7+tzijbS+Bevmv71z/r0es+pf/idan/z/LtZ3Xf04sYwhpT3OZyWZZ//vha4vul9ZEFSbd5cWJymYzddYx+nypX5Lzh5RbL6mPKtJ1Fo3P9dzX552vli69/tBmxjZkZBhu/iZiZm8WZaymtTTFTbWbWn9XXXtxIvJsmGi0oraxr9K1alMOc8nrNP1P+W2evfOi1m8xps3mijmf2LUMd3uTTYW9UuJHArK5v6fZxD0FbsJfEuiWJXuIObWQgp82rXqhjXyWxb/V04pm0ISQS0TY6Stpxi0uoqwncx7csLkVLeoT6ffCf8Oe6mX6tNoRbn7JO1cXtY1bNL/ImxomIzW1j1fOT5ZvwoETnhcnYXVHHjYCwo+Ef/dmzq2nyDgV7eBUz+pqMfcucFeuXHLn29La8Vpy9/FpGXa9i350HTXX1C7/TzJ11qSLUajPqWfqyarDp/WXiEJT8+7LUOlhjpo6X5OPPjpF6pp/3LvFwH65Wpk36fTKnxbGFf5y8et+6Wk3gEm9u8+klkHzoJGd1fatRD3sICgFaLbjLsoRg9pP78vfb8qY/gWkSx7Yo6w2sUW/KhtBO27QtHtr+W71D/SU+zd/Dtyzg6ZPEqQXa0IHpBlOLO8c0Bzh7Ybt5W2esF2ZN4Z8/35pPbJvkmPrR8Wf4zGqrx0xPaaf00zY+qGQfr2WZ0aTdd8y3YjNlzWQYL7HvEIM651r9XbgsaFEzmuD7pj7hTnrVB5eodfGJto4PzX7bPK++033pqllnoz7bhucqEcxmNT/r96n9yPaJks5VTV5l3zKvux0+ne+cmnME7DWq0fVcZ1WtBz0E2RP2kns1o+ZN7Ksk8bgpKO9Tg22zkJP4nA1mAstPPwcbiDQ0ry6B/Xyl/+S1O1S44Y3XtDIXETmOvG5aUxAWFiM+Qrk+9A5wNW089rG8xL6XC9R4pq9Vnfd+u5uXZCGvhcENv3TPqZ9uh9d+nRBPv70ND7dVl5d842lRr0szcOw2chMtr+0eYx+vf0b/lpixa6+l4z79tme5I9cPee3Pb9bvXpwp/0zmCc+2UO7+CYE/izPfkazk9Znn/HBzm9T1Hrsf8xDkLsp2cu9PXCWJzpO16lQ5ZUPHHrd931ruSgJH8fUWEDnWeq20om/L915Q5jqzY+YGl7qoYk3OvBOfslp1rWNNv8+VlZ5mDzez9fI4x18cw8vRpMtrIh56bMQ91/7jUT1nj4GV/Xc1t7NTOjeIhD7zA7+2QtnsTWggNI9jzhyW2tHOWVIYduY363c3Rmtfu1qpxqnbVNa541S1LvtmyqeXpfN+E5/T9b7xH/gQZDwl3vO0SQe1WJg1skrgod3Ihk7i74yjx+W9R+Aovs7mTw0b/D/zFKxaUFQn+e3cmLn6xS78Tdjt3JoEORW76eu1a4zHMdPXJpvv8Yf+xNeI1h9G6Gwg38OVx/By2Hp63sr9jW3sz75fx27jo/eA9Mx9dtaLal2amaPnT9HW19OivoLc83HpEP8WFulqym+zfp/Mab5fZezXsZnsDa8de6p6F30z5dOLsnnPac/pep8Fz3kI0t+b9ua+LQbVIt0J8moTPEo6wYZRMrGf7HnmUq4JHMVXLgB6jPS+M9ZapdoI24fj1FN8nRmzbnGld6OkVsVsB0yMWfX1uanYFX+wXx18o9+ag5C0Ycsr3Tqy/gHXx/DyNRn6r35VbI2Hr8vXn9Xfg6S5h1/IU9zFPPVmIfQ/m7dFP5e5nF2XhkA2/Q4O6b6edB6M/bXxGOulBwft/aGhp6+gY8Cc8KzfJ3Oa71fpR+1jYdkW3/pvikSNS19O+fTShN5n8nO63jf2cx6CBgl+RRE3R8YT21HSSQv1KOkEG0bJxN8k7HPX1Vodxdff/GWiHV3kOvli22hUm+d8c7uYGFM3udD7UVIbL8JlE9bUnYrdkiPs9oMHGB+8Wbif1yquvibDGPnnv9fc1Ym/oNXkA5XnAv+6LPSdcuuFdD491U7+md54Be5zv8Ln6an1U9TM6JCT1ttRvWkeJ6g45bdZv0/mNM+vdex34rpjzwlccvcUpnx69yh0oAnM6Vq3mnv/wIegehGN09kW3cEhKADz/t2CzualWgCMhby1oWOP237OMdRaCRzFt7/5W0eqfD8Ff7Q5GI85NcxJK7m8O/FZUES2L94h1I29Wk9x42Z9qjfy7WrJTJ1i8b1X9/FKo9+qyZn6NVOPi2t/Mu3qrx3dz7C79RAS+tTrqBk38zr34+mazp3aMM/63fTNyrWOP1cr1Th1m8o77jhVrcu+mfLpZem838TndL1v/Mc8BFUBKyc2SshbcFdf65Dt12uvD5UYJm3wnMOCoLnve38M39FmLvr+tqeYSi/N9EZjNg0uVeDGx2gR3uKy+1W0ydj1f3J/xndeHnkfN+7mVZkzMy/RIPjCOiSKOuoBQrRT/f1U/nQplt8WZ/VY533n6WmUZ7YHON5DPwdYyKvVIWgbR/kqfd0tvloPJsUAo9gVVa9wGWJh+OnnpN8nc9psnjhmXb2CF+s5zvm0bsO7+wnM6nrPSI95CFJPN/LERkl2dH/ryEwATZJxFh89hn4fxnDa5olwMU3gEL6DzV/w/WCBbwz2Fq9UcTBmqnbV1ybeIggzNgWj0f1Y1Ym/RkuOD5t6woB0OVMn1T3idSeveuhbNOkwrDtsnkQ3t7eCOb95ra9RbjJy/J6JjO7nivVFGKs6BNX3yzsnRkqFfOVuVHKNa13Mbpjn/O7Eo85Djh6aMXS74BpnjGu5rTvbWZ92O+Hm7QRmdX17z8uDHoLKH6KX7+u3yTgm3bJ5nU7sG9DyRNIJ/pAo5N8GtDbkj6PFEx8Wgx1KdJtsvunybevU3fU3fyN/vf1WNBb7HY231uqPWdt3zXchXuVX2pqFWXO+gelU7KY8I/0bx5C//vbPH6/LN/mPMG/5Q9b5CA+OeaW/c5LzkZb5/N5+qz/xacba/s6y5OPYr1VPjpiuQz0Rw6mcV0Fgal2q9bl3Uxb8sfcQtNqp2zbxJuZ10UvPN3G9ETE65feUq0b7kfTJoIjnJq+uDtG5NeUO0e6ifutN2/Nprw33jiHQrDWmrm8f63EPQetctsSaPpIvh5Y4UZ1MIiTvqxgquNNGJn38r5N6YjmwYbNk+fazHFeNlfridSeBLWEnX8mNc+ixTej1QP7mb6033KApDQQ9enrJA/fHzNUuflHHrNgYBC7ar9sGMOtAxpzxIyjKbzp/ZPSDejHP1GPpw0Du650v+rzSRkZzTEb5mqz7NViuXeicufph8mAzjLFk4tVfNeMmz2wxsJVb2kzr5Uvna+HBH03fFvw4Xh07Oh+vseFpzurzGmXehlnvWwKNod83ZoNclcjW8ez5RvuRfUvi5716PvXqU34sgTld3zbmYx+CbpsLtSEAAQhAAAIQgAAEIAABCAwJcAgaIqICBCAAAQhAAAIQgAAEIHAmAhyCzuRN5gIBCEAAAhCAAAQgAAEIDAlwCBoiogIEIAABCEAAAhCAAAQgcCYCHILO5E3mAgEIQAACEIAABCAAAQgMCXAIGiKiAgQgAAEIQAACEIAABCBwJgIcgs7kTeYCAQhAAAIQgAAEIAABCAwJcAgaIqICBCAAAQhAAAIQgAAEIHAmAhyCzuRN5gIBCEAAAhCAAAQgAAEIDAlwCBoiogIEIAABCEAAAhCAAAQgcCYCHILO5E3mAgEIQAACEIAABCAAAQgMCXAIGiKiAgQgAAEIQAACEIAABCBwJgIcgs7kTeYCAQhAAAIQgAAEIAABCAwJcAgaIqICBCAAAQhAAAIQgAAEIHAmAv/68ePHwv8wQANoAA2gATSABtAAGkADaOCMGrAObxyCOARyCEYDaAANoAE0gAbQABpAA6fVAIcgxH1acZ/xqQVz4mkcGkADaAANoAE0gAbu1wCHIA5BHILQABpAA2gADaABNIAG0MClNMAhCMFfSvA8Obn/yQkMYYgG0AAaQANoAA08uwY4BHEI4hCEBtAAGkADaAANoAE0gAYupQEOQQj+UoJ/9qcW2M+TNzSABtAAGkADaAAN3K8BDkEcgjgEoQE0gAbQABpAA2gADaCBS2mAQxCCv5TgeXJy/5MTGMIQDaABNIAG0AAaeHYNcAjiEMQhCA2gATSABtAAGkADaAANXEoDHIIQ/KUE/+xPLbCfJ29oAA2gATSABtAAGrhfAxyCOARxCEIDaAANoAE0gAbQABpAA5fSAIcgBH8pwfPk5P4nJzCEIRpAA2gADaABNPDsGuAQxCGIQxAaQANoAA2gATSABtAAGriUBjgEIfhLCf7Zn1pgP0/e0AAaQANoAA2gATRwvwae7xD0v9+Xn758Wb6k/3/5Pt7E6zZffl2+m4ef78uvqd/19d+/L39Z9XR/jg3ffxF2fvlp+f1/9zsM0ReG9/Jd2//639JfYlv3u/rQ04tsu2nH00zS0X9/Ddr96T9/jXWb2lzs9a///FTi+4vto+Qr69X068Y95w0Z5+u1iuFaA0bs6hzw5cvyWT7dw0u30fPPXNU8e3Mc9/nX8vu/ZU6ciSsZY1e9nlyXjDzR94n2R2fNE32b8ZXuK724ukr1r/a68hmtEZnJpN8nmWstWGvfGvfD3Jftu2o8qnnf5FPVFpZ374NmdZ3XNMX8uQ5BW7CX4N2ShNrAVJMNbeQmJiV+vQDHvsoiv9XTCWvShpBIRNvoKGkHwVD5SQlzdO8+vmVxKVpK/vi+/FrpydNLqh9fcyAKn7dzSH193oa5tamex2ffjxxFbG6Hl9ZPlt09v1r1fyw/vPwg/RhsqGP3r//8Wj/U+KTD7R5eoY2c35bTmg3rVl5yop9v48ZJ+K2J57ZtY3vTxvHZpepFbsUHzrpkMBn65H+/L79WD2M2H0ltVP1u970HE5Nr42fnmM8aP+p97qD548ek3yeZN7Hm5NX71tXrxettPr0en/eOtVld9+x4qkNQCNBqg/pj+WFsUKoJ/+/78l1/AtMkjh9LgKmTv1FvyobQrt40/fixLV7a/mqRIUgq33lsdvMth5D0icDU5trQQW1n2Ry4nx6uc9kWnnXssqnB54Vl5Kh9ohfmUj+x2+lXKyaDj9rNvBn3Sp9jO5O9R73u4/XXf783n3A3i0l6IqxzopFvrbbaR2Z+3fgTC74eTG7DfLStZ1OfYKuxDf/mtUt8eqpjdPW3GSNmf2pMFUdaO0//PjAQn4DqmDLmP+v3OeaTeWL3unoxf6q1POwlJnz69Do2dPq5c5rUNjJa4QAAFllJREFU9cDuJzoE2RNun5jMBGTsqyy+cRNV3qc+9MFlzgYzgf24Y2EaOPFzhZhYfdzrfr7Sf/J6ZHu/brDnl+9xE+Amw6ilX/8b+2q1NrLhAvfDZqE9gAwfdGxPTePGrO+rKlaMRd89yHi2idj0dFmNKerfXe7ZFMr1Q5iBfpo2Ovdt7RtmXu6U4zl9pZzoxozs44rXHlufZ9SU126CYePftY2MKXkt++uXXznfybwgr/349/yn/T7JfDJPeLaF8j0H6iNz3YP1JVnJa9+nMla4PoTTpK5HYz3PIahZpJOQdGJI5b3XmDxyYg6J3/7bg2pTNGVDxx63fc9W7tUiPoqvt4AYvM2NwVZP3Ku0opJ2SZRKe6pePVfDlhPXd/l14rPlNe9XazyrLIwxEbuh7Qd+0uvaehOvTWPG/Mz+Qz1xUBX6b32R9OvHLBusxMh47fjR9E3KDVM+McZb22v/pj7zqxNfhn6iHnzf+3pxbMs2PO/9sg505jDr90nmrlaqcTp+csfpzOEEvprV55RPL8Rjltu99eZ0Pdbokx2CxOIrRBVg3LL50EHdWTQqgYd2IxtiMskHLGFn+/cHYwfdK5TztT+Kr7OYS3+F696hpbalH5TpyXyvv2vrwY/jWV+t/CbrVhuAwt3blMfy5MNSP8WX1y7df4/XY3jFuZja3RiVXGZoN+fEeC99zVR/LdTsP32FiqfM9h8Hz65LOmdN+qTRpBMTdT0nvvKYbWz4Om3r1mOd7361n9B+S+9n/T7J3OcvfVmvZZUfOvZU9ZL9F3ud8unFmHyELuZ0Pc4h5zkEzX6lYkv0ZWG3/ji6gKs2N6OkE2wYJRP7E6ePEM05xjiKr1wAir8Do00jcUM32PgK3dkbPW1vHLfSHwkybAJHSW2OWcevgrO/cMX21SZ+1cO/f1p+Ur/wGOxNfydxy0MYYcc9MXkMr/Q1XUfnVSy0f8sW86P+BUWHof4Vvv/+GrjO/fqiitGDGN7D/93bBva2X6p1SbGY9snaLqxp6e9V7Ad89Tyd+JpaGy/oQ8s3Ys2o2W58Zv0+yXwuT+h1SvhqywHW34GZ9qs5n72Ov5YIhhdj8hE+n9P12AfnOQRNbELy4qDrjpJOSlqjpBP6HSUTe1H7CNGcY4yj+DqLeZOs4nhf1AbY+juVEJRJK1s/bVkcd25DPw7gc/g0znOU1OYW4Rm/djQU/Bb7qD7V6OSI4IO0mdS5pdHTcT69n1fStv1gxtpohzHFJzcppza+2XhU5dtmKnNdWXVy6pm0vWsuHc31Nl43+aTSZ9J97zDkxFfHj75Oj4uFXXyruX+MLT2/5TnM+n2Suc9f+rKTEzv2ZJs/geWjjD3l0wvzeS8/zel6HNdPdgiyDhDbQj7YfMTF217s49fU7HuhXdrYhqQzsqFjj9t+7Kj3EtLz9XsUX7kAjPjrMWNbfZCptLImPdPfdtvn88OI2e33G35p4dg2z9WGOt1rXif8avplYG9o09scev4e9NvYP1//Pl6Rk/spjMu81m/ccFtc6nqevtlAdPzt+mD7Jba0LikN3eeTkd/i/SYW3ZjSubMzXzUPTzPPXD6l91m/TzKfyxMdP7njXNuXSYdTPr2AthOPj3qd0/VYo89zCHITwyhpb8Gtn+RXovT6UIlh0gbPOf7iNHbURwnrGcY5hq+zmFe6KH6RY0Y/pq+Q2K8//ef/qX8Y0qpnHajLmM/giyNtdOPjpkV47Nc9i1bw/+BBS+9hypGcUl+7eW15rPrKn9Z9h3nFwq039kP66WX9MCHNj9fJdWnad/M+af7NqDyG08fk2nh1n87lnkm/TzKfzRNyjZN+cttnTVx3zVo5zfn02oykno66dnXprkm2D57nEGT9mx5rEI4mPLq/BbKZAJokow5FKQnoMfT7UM9pm/rg1f7jYIvLIXydxdwaz9OeqmtqSNVJf7jPxs9ISE28xTpzXFN/I7/GOLyJv2NXk8xNXSa73uHVsWvEa3Q/zMvpu9Wvs2GbYTFTp4mfd+D4wGOYvnJ9k9jc4ZPmH+lMfaZXL76c9Q0fV+va7IZ5zu+TzB29NGOYvnLGeOCYafLyO9s669OPtuv0483qeuD/JzoEpQOP/Npam+zj6bA8YQ+BPnqCu0LagJbNkRP8IVH0bUhPOOWTVvfUOnDQ6YW8a/6bb8TXQVq+bZ2apb2Yr/3or3oEDYm/g6j7SZuD/ldUSptWs+Ve6euqZQ3rZmHe59fM00mc+f66CazyRfRX/WT8+/Kr0F5o2+SPj/HlmJf+4QNb92X+xe6m7/xrbiW/hnaNjwxm//t9+fU/f5UN4Sfxsub50GUNJ2tdMnhP+OT7L8qP6WGP1naVozv6mVobi74emns15+NsDuuUwTeuX8IfU36f2xOtnJtYbvSxzrHNre26ehyLs/jf8+lZ5vfI85jTdV+zz3UIWhPTlmjTH9eWQ0ucqE4mEZL1VaS1TH2XfUs8qe964yNADmyIotkSSvr1KD3WOyXZRxbssbaN+LYJvR7fWcy1Blb/GYtW3VfURtDasG4cV+vW6u+qZXXMio1BiJmdfk3xZi7+Ira3J+E5B3yRDzxKvdrGmF/04fmj/FfbonnZhyA5v+q6OgCmtiJ/evoe5cQmrlo7P4rX042j2SkfpU/nmvVq5BN1P+ig6btoPnJz8mYVX0Uv5Lman7dh1vuWwHro961v5UeP+ShPRP+O1tV6Pk8XS0mnB756PoXNx2hlTte+Lc93CDpQvIjUFwZsYIMG0AAaQANoAA2gATRwVg1wCOJQVb6iAgtYoAE0gAbQABpAA2gADVxAAxyCLuDks57gmRdPp9AAGkADaAANoAE0gAb2aIBDEIcgnnagATSABtAAGkADaAANoIFLaYBDEIK/lOD3PCmgDU+Y0AAaQANoAA2gATRwLg1wCOIQxCEIDaABNIAG0AAaQANoAA1cSgMcghD8pQTPU5xzPcXBn/gTDaABNIAG0AAa2KMBDkEcgjgEoQE0gAbQABpAA2gADaCBS2mAQxCCv5Tg9zwpoA1PmNAAGkADaAANoAE0cC4NcAjiEMQhCA2gATSABtAAGkADaAANXEoDHIIQ/KUEz1Occz3FwZ/4Ew2gATSABtAAGtijAQ5BHII4BKEBNIAG0AAaQANoAA2ggUtpgEMQgr+U4Pc8KaANT5jQABpAA2gADaABNHAuDXAI4hDEIQgNoAE0gAbQABpAA2gADVxKA+YhyCqkDAIQgAAEIAABCEAAAhCAwFkJ/OusE2NeEIAABCAAAQhAAAIQgAAELAIcgiwqlEEAAhCAAAQgAAEIQAACpyXAIei0rmViEIAABCAAAQhAAAIQgIBFgEOQRYUyCEAAAhCAAAQgAAEIQOC0BDgEnda1TAwCEIAABCAAAQhAAAIQsAhwCLKoUAYBCEAAAhCAAAQgAAEInJYAh6DTupaJQQACEIAABCAAAQhAAAIWAQ5BFhXKIAABCEAAAhCAAAQgAIHTEuAQdFrXMjEIQAACEIAABCAAAQhAwCLAIciiQhkEIAABCEAAAhCAAAQgcFoCHIJO61omBgEIQAACEIAABCAAAQhYBDgEWVQogwAEIAABCEAAAhCAAAROS4BD0Gldy8QgAAEIQAACEIAABCAAAYsAhyCLCmUQgAAEIAABCEAAAhCAwGkJPPYh6O9vy9eXl+Ul/f/b29gRus3L62K3elteU7/r68/fln+s3nV/jg1vvwk7X74u3/62OqNsL4F7+a7tX/9sR6/7XX3o6UW0/fN1eXF0sCxKV2490d+FL//542uJ7xfbRz08nl9Dm9VPIsa//tFGuB4/1c91dfyL/kJdL2/0jL7jnrbX0nTVvWF/nltVUb75Z/n2s53D5uNl7UPmxIm4kiZc9lrljxv0pbVRcpT2hfTLeq19rWzo5bBGX/g5S3dlM+0/xdxrp3k7vtFa8PJEHc9aB3kmXCQCN/k0NeL1KAKzur5lvMc9BG3BXoJ3SxJO0IdJhzYykFPy14k59lU2A1s9nXgmbQiJRLSNjpJ23OIS6moC9/Eti0vRUhrhbXmt9OTpJdVflrxoVO3Sfa1RR1ep+sVfY5yI2NwOLa2fLFA9vy5LG4M65mOfoZ6IXWskuyz2N2er3cOtpXt4/fPHa/1AZmNccp+yYst57cZ4rTcbLzoOkj+Er9WwvN34vrwsxTfz+SPmpdv5hnZVLtO+69hwU7xey8MxVjsPVyscOjc5zCf3I7N54r51tZrAJd7c5tNLIPnQSc7q+lajHvYQ1CbnZVlC0u0cLv5+W970JzBN4tgWZL3xMepN2RDaaZu2JFYtLre6hvqBwG6+mw/Ek/upDauhg9WOnABTf4ZvmyBdGzr94V37EKEX5pbTjF/tvmP+qDeKwWc6F7SDNiVjO5smdxbYc9pjh90m9p8+CbMPQcYUDH3bTKPfygbf6OviRSY3g6/GZOYdXcl6b6ynZl+WDVaZNcbVyraDYY6jidwy6/cQt3rdaXw4mSeC/9i3TMlzh0+n+qXSDQQmdX1Dj6nqgx6C7AmnrxrdtpDGvkobbzHeNlc5yczZYCawvGmuN1wJOq/zBPbzlf6T16Ox7bpyAZLXsrfe5nLqACY7O/t1WFiM+GgWdQ1C+kdei3puH219z5eiN+Oy7ceodGzRbl6tGWZMyU2RvG6bqxLNQufRUt0ct9y++NXsuqQxee10vfa9pf3ZHIYvW55rieQir+3aoUX42mjZn6SaOo50nKV6sTy3n8wTnm2hfOYr4Wn4C7xKVvL6AlN/nClO6nqPwY95CHI3MToxzExZJYnOE6xqAZiyoWOP237GZupEAkfx9RYQg/PEBtDaPKw9mQvIRH+GFacvqmJNzrYTn7JavHb86saeygXrF7zWv+XLDz7aEawS089WxQPLjuEVDRrO+RbNNnX9mP0Mbge64H276uje9f1qUcN/0kxnPNNHzRjRx3njPTnk1aoFlqNPghw/rKwqv7s5rY63qo0EXo1Tt5HVht+2qSpf782UT6+H5d1nPKfrfWY88CHIeEqcEsMtmxadPJqEXsBVAg/tRjZ0FoPOOGVErvoEjuLrbJabwdtNclOlq8HYvmyqO4uN1fGFykJSM+N41lcrLKduteALqFt52bxt/klfcQyv+ision24nNOIbnXv+2N4OQd1bdx07rJZeAtWKOcps6Yd33eYV+uSbp3XqeiL2a9heT5KMdXPYSXuok/TDy2MYkcbf+73Xb+lqc/6Pfs5NSyvwQdbLpXXpcZ6VXy2LEetq/UIV3g35dMrgPjgOc7pep9Rz3kIGj1dSSyaTU//yVkQeFqkR0kn2DBKJrf/2lUyndeVwFF85QKgyG4aiZuHuUXcD8i1b7UZMTf6yoYLvvUZRn7loNKD4/s19F/96tWqpa/L15/lH563fcd2nbjt5IW2t+NK7uGV5hQ0PqPHzsYs/Y1bN15STMmx/nxdvv68/hKg/WDpOFJP2lOHebUuqenFe+shRHLdcpC7TvpxE7vf2qeHA9KPa4XkX/Vrjm3MKWMv9nZqwzzr907eCdw3X8/liaPW1Ys5NH3bw42r6/H4qBnP6XqfNc95CNJJ2Zh7Xhx03VHSSQIfJZ3Q7yiZzG2qDfMpCgSO4jta9BPuON7oj8LdgAyaqX0edViXpdGu/OoyrJ5Yjgj1/RrGSBu5cCDq6EkMFdqlPCDK10vfblXx4Lf+uH0GjRlBo4OvAHZyZN1fJ17ERjkfvjo5te73gu86zHub6bTONX9zuPm5KV/R9vwQ7tX5qslhybd6bU0PgJryC/pzdsM86/eOz2RukNc1dZknOnmwY0/d3zXf9WLxmkQ+ZtZzut5nywMfgupEHKe3LbqDJBuAqadUGc+WwK3FIbRLmx9jMWht6Njjts+WcDEkcBRfuQCMBu2MuTW1AzKO0X6CMe5vZNEZ71exJifYiU9ZLV7f4te1xVz9uOmTT9a3kW+yrbX2npJjeG0WjHLTTRuheX2zgegooKMt1/dpo119CpTG2JOPJtvstDVZdpXXKb3PsnRjto4/VyvVOHWbyh/uOFWty76Z8ull6bzfxOd0vW/8xzwEVQErJ+Yl6VRnC+7qazDpXnr1+lCJYdIGzznuRiqZwesUgWP4Rp9bB1/LCG/MVDfc1wdxVy/1LwalPq7+6sbHTYvwbX7tPgEXDunbZhyORNv3uuzbZD0w6ljS0WpoFe7P9zmKl2hJzK/tQ4KOnZe6NbkuaSZuvHix4ZWXr7lZeTLoLz0g3B4mWL40c6O2+SLva2bepCf97sZs3X42T3gx67b3zL9Y+ZxPLwblA6br6tLNf/NGPeYhaPtbkPLHmduERhMe3d+6MRNAk2TUoSgx1WPo96Ge0zb1wes8gUP4dhb+xpKx7+yFvl6MSrfj/krdC1018Rbnbsami+VYv8ZhfH/ZfneNO/bGIbw2k8yYEuaGsWYPQT4v0eP433irKl/zjal9x++FkJN3PB+Hcu8g7/RlrMemrZ3DUbH3OlezG2aTZeN3J860n5t2kXczhm4XqjljXMdlw5nO+nTYERVuIzCr69t6DbUf9BCUvrcs/0C5TdDxdFgW6xDo+gm9BWUDWp5kOcEfEkXfhvTH+y/5KdnkLzBZdlFmENh80+Xb1qk7sjfLq370U8+gIfPrJaVHT2daj2uLWCY1VPq5+lXDulmY9/l15fr2W73Ra8YK8N+WV5UvYr2SU4qP2vxT7n3MVTOHhlfSW7L/bXkVcROsbHKfYXuok/oo96fj5e9vy+sf/5SGM2OW2te9ajhZ61LUYfWAsNGBUWejGjSkNSGIz+ewNh4afYp+r3gZWBqsG8ZTfp/bE62cGz80+lhrtbk12lXnzSv6rTdnz6e9Ntw7hsCcrm8f63EPQetcQvCmn99sf9VJJ5MIqdSPv2CU3qvg3hJPrqM2QxnlwIZYb0so+Y+w1Vi5My72ERjxbRN6PU5csPWBR/7KUdaBsWjVfQ3+OF7ppf7VJt0T7+uY1RvvnX7NG4EU+94PAWybxRy3L4t8mFF5Z8sXjYaqSu//ps9LH4LShkhw8P5WUpoe5qp9Ub4ulWNl5WbFi86t3a8ny4G5bnJSsy45BxyVd8oDPsl0i6emT1mnXXf9HKbix9KC6vpKb70Ns963BCY6ZjwfTflZx70Ry2HQ0bp6JW/NzdXz6Vxrat1LYLT+7en/sQ9Be2ZEGwhAAAIQgAAEIAABCEAAAh0CHII6cLgFAQhAAAIQgAAEIAABCJyPAIeg8/mUGUEAAhCAAAQgAAEIQAACHQIcgjpwuAUBCEAAAhCAAAQgAAEInI8Ah6Dz+ZQZQQACEIAABCAAAQhAAAIdAhyCOnC4BQEIQAACEIAABCAAAQicjwCHoPP5lBlBAAIQgAAEIAABCEAAAh0CHII6cLgFAQhAAAIQgAAEIAABCJyPAIeg8/mUGUEAAhCAAAQgAAEIQAACHQIcgjpwuAUBCEAAAhCAAAQgAAEInI8Ah6Dz+ZQZQQACEIAABCAAAQhAAAIdAhyCOnC4BQEIQAACEIAABCAAAQicjwCHoPP5lBlBAAIQgAAEIAABCEAAAh0CHII6cLgFAQhAAAIQgAAEIAABCJyPAIeg8/mUGUEAAhCAAAQgAAEIQAACHQIcgjpwuAUBCEAAAhCAAAQgAAEInI/A/wcfXYBy6F3nuwAAAABJRU5ErkJggg==;" parent="1" vertex="1">
          <mxGeometry x="588.1800000000001" y="740" width="703.88" height="211.25" as="geometry" />
        </mxCell>
        <mxCell id="JxcuIvw0Jv6S8uEPPxHX-24" value="" style="rounded=0;whiteSpace=wrap;html=1;fillColor=none;strokeColor=#FF3333;strokeWidth=4;" parent="1" vertex="1">
          <mxGeometry x="590" y="741.25" width="80" height="28.75" as="geometry" />
        </mxCell>
        <mxCell id="JxcuIvw0Jv6S8uEPPxHX-34" value="" style="rounded=0;whiteSpace=wrap;html=1;fillColor=none;strokeColor=#FF3333;strokeWidth=4;" parent="1" vertex="1">
          <mxGeometry x="670" y="741.25" width="110" height="28.75" as="geometry" />
        </mxCell>
        <mxCell id="JxcuIvw0Jv6S8uEPPxHX-36" value="" style="rounded=0;whiteSpace=wrap;html=1;fillColor=none;strokeColor=#FF3333;strokeWidth=4;" parent="1" vertex="1">
          <mxGeometry x="780" y="741.25" width="100" height="28.75" as="geometry" />
        </mxCell>
        <mxCell id="JxcuIvw0Jv6S8uEPPxHX-37" value="" style="rounded=0;whiteSpace=wrap;html=1;fillColor=none;strokeColor=#FF3333;strokeWidth=4;" parent="1" vertex="1">
          <mxGeometry x="879.14" y="741.25" width="70.86" height="28.75" as="geometry" />
        </mxCell>
        <mxCell id="JxcuIvw0Jv6S8uEPPxHX-38" value="" style="rounded=0;whiteSpace=wrap;html=1;fillColor=none;strokeColor=#FF3333;strokeWidth=4;" parent="1" vertex="1">
          <mxGeometry x="950" y="741.25" width="100" height="28.75" as="geometry" />
        </mxCell>
        <mxCell id="JxcuIvw0Jv6S8uEPPxHX-39" value="" style="rounded=0;whiteSpace=wrap;html=1;fillColor=none;strokeColor=#FF3333;strokeWidth=4;" parent="1" vertex="1">
          <mxGeometry x="1050" y="741.25" width="90" height="28.75" as="geometry" />
        </mxCell>
        <mxCell id="JxcuIvw0Jv6S8uEPPxHX-42" value="" style="rounded=0;whiteSpace=wrap;html=1;fillColor=none;strokeColor=#FF3333;strokeWidth=4;" parent="1" vertex="1">
          <mxGeometry x="1140" y="741.25" width="70" height="28.75" as="geometry" />
        </mxCell>
        <mxCell id="JxcuIvw0Jv6S8uEPPxHX-43" value="" style="rounded=0;whiteSpace=wrap;html=1;fillColor=none;strokeColor=#FF3333;strokeWidth=4;" parent="1" vertex="1">
          <mxGeometry x="1210" y="741.25" width="80" height="28.75" as="geometry" />
        </mxCell>
      </root>
    </mxGraphModel>
  </diagram>
</mxfile>
